STARTFONT 2.1
FONT -Galmuri7-Regular-R-Regular--10-10-75-75-c-80-iso10646-1
SIZE 10 75 75
FONTBOUNDINGBOX 11 9 0 -1
STARTPROPERTIES 10
FAMILY_NAME Galmuri7
WEIGHT_NAME Regular
FONT_VERSION 2.26.35
COPYRIGHT Copyright (c) 2019-2022 Minseo Lee (itoupluk427@gmail.com), with Reserved Font Name "Galmuri".
FOUNDRY Made with Bits'n'Picas by Kreative Software
FONT_ASCENT 9
FONT_DESCENT 1
CAP_HEIGHT 8
POINT_SIZE 8
X_HEIGHT 5
ENDPROPERTIES
CHARS 12303
STARTCHAR U+0020
ENCODING 32
SWIDTH 272 0
DWIDTH 3 0
BBX 0 0 0 0
BITMAP
ENDCHAR
STARTCHAR U+0021
ENCODING 33
SWIDTH 181 0
DWIDTH 2 0
BBX 1 7 0 0
BITMAP
80
80
80
80
80
00
80
ENDCHAR
STARTCHAR U+0022
ENCODING 34
SWIDTH 363 0
DWIDTH 4 0
BBX 3 2 0 5
BITMAP
A0
A0
ENDCHAR
STARTCHAR U+0023
ENCODING 35
SWIDTH 545 0
DWIDTH 6 0
BBX 5 7 0 0
BITMAP
50
F8
50
50
F8
50
50
ENDCHAR
STARTCHAR U+0024
ENCODING 36
SWIDTH 545 0
DWIDTH 6 0
BBX 5 7 0 0
BITMAP
20
78
A0
70
28
F0
20
ENDCHAR
STARTCHAR U+0025
ENCODING 37
SWIDTH 545 0
DWIDTH 6 0
BBX 5 7 0 0
BITMAP
40
A8
50
20
50
A8
10
ENDCHAR
STARTCHAR U+0026
ENCODING 38
SWIDTH 545 0
DWIDTH 6 0
BBX 5 7 0 0
BITMAP
40
A0
A0
40
A8
90
68
ENDCHAR
STARTCHAR U+0027
ENCODING 39
SWIDTH 181 0
DWIDTH 2 0
BBX 1 2 0 5
BITMAP
80
80
ENDCHAR
STARTCHAR U+0028
ENCODING 40
SWIDTH 272 0
DWIDTH 3 0
BBX 2 7 0 0
BITMAP
40
80
80
80
80
80
40
ENDCHAR
STARTCHAR U+0029
ENCODING 41
SWIDTH 272 0
DWIDTH 3 0
BBX 2 7 0 0
BITMAP
80
40
40
40
40
40
80
ENDCHAR
STARTCHAR U+002A
ENCODING 42
SWIDTH 545 0
DWIDTH 6 0
BBX 5 7 0 0
BITMAP
20
A8
70
20
70
A8
20
ENDCHAR
STARTCHAR U+002B
ENCODING 43
SWIDTH 545 0
DWIDTH 6 0
BBX 5 5 0 1
BITMAP
20
20
F8
20
20
ENDCHAR
STARTCHAR U+002C
ENCODING 44
SWIDTH 272 0
DWIDTH 3 0
BBX 2 2 0 -1
BITMAP
40
80
ENDCHAR
STARTCHAR U+002D
ENCODING 45
SWIDTH 454 0
DWIDTH 5 0
BBX 4 1 0 3
BITMAP
F0
ENDCHAR
STARTCHAR U+002E
ENCODING 46
SWIDTH 181 0
DWIDTH 2 0
BBX 1 1 0 0
BITMAP
80
ENDCHAR
STARTCHAR U+002F
ENCODING 47
SWIDTH 363 0
DWIDTH 4 0
BBX 3 7 0 0
BITMAP
20
20
40
40
40
80
80
ENDCHAR
STARTCHAR U+0030
ENCODING 48
SWIDTH 454 0
DWIDTH 5 0
BBX 4 7 0 0
BITMAP
60
90
90
90
90
90
60
ENDCHAR
STARTCHAR U+0031
ENCODING 49
SWIDTH 363 0
DWIDTH 4 0
BBX 2 7 0 0
BITMAP
C0
40
40
40
40
40
40
ENDCHAR
STARTCHAR U+0032
ENCODING 50
SWIDTH 454 0
DWIDTH 5 0
BBX 4 7 0 0
BITMAP
E0
10
10
60
80
80
F0
ENDCHAR
STARTCHAR U+0033
ENCODING 51
SWIDTH 454 0
DWIDTH 5 0
BBX 4 7 0 0
BITMAP
E0
10
10
60
10
10
E0
ENDCHAR
STARTCHAR U+0034
ENCODING 52
SWIDTH 454 0
DWIDTH 5 0
BBX 4 7 0 0
BITMAP
90
90
90
90
70
10
10
ENDCHAR
STARTCHAR U+0035
ENCODING 53
SWIDTH 454 0
DWIDTH 5 0
BBX 4 7 0 0
BITMAP
F0
80
80
E0
10
10
E0
ENDCHAR
STARTCHAR U+0036
ENCODING 54
SWIDTH 454 0
DWIDTH 5 0
BBX 4 7 0 0
BITMAP
60
80
80
E0
90
90
60
ENDCHAR
STARTCHAR U+0037
ENCODING 55
SWIDTH 454 0
DWIDTH 5 0
BBX 4 7 0 0
BITMAP
F0
10
10
20
40
40
40
ENDCHAR
STARTCHAR U+0038
ENCODING 56
SWIDTH 454 0
DWIDTH 5 0
BBX 4 7 0 0
BITMAP
60
90
90
60
90
90
60
ENDCHAR
STARTCHAR U+0039
ENCODING 57
SWIDTH 454 0
DWIDTH 5 0
BBX 4 7 0 0
BITMAP
60
90
90
70
10
10
60
ENDCHAR
STARTCHAR U+003A
ENCODING 58
SWIDTH 363 0
DWIDTH 4 0
BBX 1 4 1 1
BITMAP
80
00
00
80
ENDCHAR
STARTCHAR U+003B
ENCODING 59
SWIDTH 363 0
DWIDTH 4 0
BBX 2 5 0 0
BITMAP
40
00
00
40
80
ENDCHAR
STARTCHAR U+003C
ENCODING 60
SWIDTH 454 0
DWIDTH 5 0
BBX 4 7 0 0
BITMAP
10
20
40
80
40
20
10
ENDCHAR
STARTCHAR U+003D
ENCODING 61
SWIDTH 454 0
DWIDTH 5 0
BBX 4 3 0 2
BITMAP
F0
00
F0
ENDCHAR
STARTCHAR U+003E
ENCODING 62
SWIDTH 454 0
DWIDTH 5 0
BBX 4 7 0 0
BITMAP
80
40
20
10
20
40
80
ENDCHAR
STARTCHAR U+003F
ENCODING 63
SWIDTH 454 0
DWIDTH 5 0
BBX 4 7 0 0
BITMAP
E0
10
20
40
40
00
40
ENDCHAR
STARTCHAR U+0040
ENCODING 64
SWIDTH 727 0
DWIDTH 8 0
BBX 7 7 0 0
BITMAP
38
44
9A
AA
BA
44
30
ENDCHAR
STARTCHAR U+0041
ENCODING 65
SWIDTH 454 0
DWIDTH 5 0
BBX 4 7 0 0
BITMAP
60
90
90
F0
90
90
90
ENDCHAR
STARTCHAR U+0042
ENCODING 66
SWIDTH 454 0
DWIDTH 5 0
BBX 4 7 0 0
BITMAP
E0
90
90
E0
90
90
E0
ENDCHAR
STARTCHAR U+0043
ENCODING 67
SWIDTH 454 0
DWIDTH 5 0
BBX 4 7 0 0
BITMAP
70
80
80
80
80
80
70
ENDCHAR
STARTCHAR U+0044
ENCODING 68
SWIDTH 454 0
DWIDTH 5 0
BBX 4 7 0 0
BITMAP
E0
90
90
90
90
90
E0
ENDCHAR
STARTCHAR U+0045
ENCODING 69
SWIDTH 363 0
DWIDTH 4 0
BBX 3 7 0 0
BITMAP
E0
80
80
E0
80
80
E0
ENDCHAR
STARTCHAR U+0046
ENCODING 70
SWIDTH 363 0
DWIDTH 4 0
BBX 3 7 0 0
BITMAP
E0
80
80
E0
80
80
80
ENDCHAR
STARTCHAR U+0047
ENCODING 71
SWIDTH 454 0
DWIDTH 5 0
BBX 4 7 0 0
BITMAP
70
80
80
B0
90
90
60
ENDCHAR
STARTCHAR U+0048
ENCODING 72
SWIDTH 454 0
DWIDTH 5 0
BBX 4 7 0 0
BITMAP
90
90
90
F0
90
90
90
ENDCHAR
STARTCHAR U+0049
ENCODING 73
SWIDTH 181 0
DWIDTH 2 0
BBX 1 7 0 0
BITMAP
80
80
80
80
80
80
80
ENDCHAR
STARTCHAR U+004A
ENCODING 74
SWIDTH 363 0
DWIDTH 4 0
BBX 3 7 0 0
BITMAP
20
20
20
20
20
20
C0
ENDCHAR
STARTCHAR U+004B
ENCODING 75
SWIDTH 454 0
DWIDTH 5 0
BBX 4 7 0 0
BITMAP
90
A0
A0
C0
A0
A0
90
ENDCHAR
STARTCHAR U+004C
ENCODING 76
SWIDTH 363 0
DWIDTH 4 0
BBX 3 7 0 0
BITMAP
80
80
80
80
80
80
E0
ENDCHAR
STARTCHAR U+004D
ENCODING 77
SWIDTH 545 0
DWIDTH 6 0
BBX 5 7 0 0
BITMAP
88
D8
D8
A8
A8
88
88
ENDCHAR
STARTCHAR U+004E
ENCODING 78
SWIDTH 454 0
DWIDTH 5 0
BBX 4 7 0 0
BITMAP
90
D0
D0
B0
B0
90
90
ENDCHAR
STARTCHAR U+004F
ENCODING 79
SWIDTH 454 0
DWIDTH 5 0
BBX 4 7 0 0
BITMAP
60
90
90
90
90
90
60
ENDCHAR
STARTCHAR U+0050
ENCODING 80
SWIDTH 454 0
DWIDTH 5 0
BBX 4 7 0 0
BITMAP
E0
90
90
E0
80
80
80
ENDCHAR
STARTCHAR U+0051
ENCODING 81
SWIDTH 454 0
DWIDTH 5 0
BBX 4 7 0 0
BITMAP
60
90
90
90
90
A0
50
ENDCHAR
STARTCHAR U+0052
ENCODING 82
SWIDTH 454 0
DWIDTH 5 0
BBX 4 7 0 0
BITMAP
E0
90
90
E0
A0
90
90
ENDCHAR
STARTCHAR U+0053
ENCODING 83
SWIDTH 454 0
DWIDTH 5 0
BBX 4 7 0 0
BITMAP
70
80
80
60
10
10
E0
ENDCHAR
STARTCHAR U+0054
ENCODING 84
SWIDTH 545 0
DWIDTH 6 0
BBX 5 7 0 0
BITMAP
F8
20
20
20
20
20
20
ENDCHAR
STARTCHAR U+0055
ENCODING 85
SWIDTH 454 0
DWIDTH 5 0
BBX 4 7 0 0
BITMAP
90
90
90
90
90
90
60
ENDCHAR
STARTCHAR U+0056
ENCODING 86
SWIDTH 545 0
DWIDTH 6 0
BBX 5 7 0 0
BITMAP
88
88
50
50
50
20
20
ENDCHAR
STARTCHAR U+0057
ENCODING 87
SWIDTH 545 0
DWIDTH 6 0
BBX 5 7 0 0
BITMAP
88
A8
A8
A8
50
50
50
ENDCHAR
STARTCHAR U+0058
ENCODING 88
SWIDTH 545 0
DWIDTH 6 0
BBX 5 7 0 0
BITMAP
88
50
50
20
50
50
88
ENDCHAR
STARTCHAR U+0059
ENCODING 89
SWIDTH 545 0
DWIDTH 6 0
BBX 5 7 0 0
BITMAP
88
50
50
20
20
20
20
ENDCHAR
STARTCHAR U+005A
ENCODING 90
SWIDTH 454 0
DWIDTH 5 0
BBX 4 7 0 0
BITMAP
F0
10
20
60
40
80
F0
ENDCHAR
STARTCHAR U+005B
ENCODING 91
SWIDTH 272 0
DWIDTH 3 0
BBX 2 7 0 0
BITMAP
C0
80
80
80
80
80
C0
ENDCHAR
STARTCHAR U+005C
ENCODING 92
SWIDTH 363 0
DWIDTH 4 0
BBX 3 7 0 0
BITMAP
80
80
40
40
40
20
20
ENDCHAR
STARTCHAR U+005D
ENCODING 93
SWIDTH 272 0
DWIDTH 3 0
BBX 2 7 0 0
BITMAP
C0
40
40
40
40
40
C0
ENDCHAR
STARTCHAR U+005E
ENCODING 94
SWIDTH 363 0
DWIDTH 4 0
BBX 3 2 0 5
BITMAP
40
A0
ENDCHAR
STARTCHAR U+005F
ENCODING 95
SWIDTH 454 0
DWIDTH 5 0
BBX 4 1 0 0
BITMAP
F0
ENDCHAR
STARTCHAR U+0060
ENCODING 96
SWIDTH 272 0
DWIDTH 3 0
BBX 2 2 0 5
BITMAP
80
40
ENDCHAR
STARTCHAR U+0061
ENCODING 97
SWIDTH 454 0
DWIDTH 5 0
BBX 4 5 0 0
BITMAP
E0
10
70
90
70
ENDCHAR
STARTCHAR U+0062
ENCODING 98
SWIDTH 454 0
DWIDTH 5 0
BBX 4 7 0 0
BITMAP
80
80
E0
90
90
90
E0
ENDCHAR
STARTCHAR U+0063
ENCODING 99
SWIDTH 454 0
DWIDTH 5 0
BBX 4 5 0 0
BITMAP
70
80
80
80
70
ENDCHAR
STARTCHAR U+0064
ENCODING 100
SWIDTH 454 0
DWIDTH 5 0
BBX 4 7 0 0
BITMAP
10
10
70
90
90
90
70
ENDCHAR
STARTCHAR U+0065
ENCODING 101
SWIDTH 454 0
DWIDTH 5 0
BBX 4 5 0 0
BITMAP
60
90
F0
80
70
ENDCHAR
STARTCHAR U+0066
ENCODING 102
SWIDTH 363 0
DWIDTH 4 0
BBX 3 7 0 0
BITMAP
20
40
E0
40
40
40
40
ENDCHAR
STARTCHAR U+0067
ENCODING 103
SWIDTH 454 0
DWIDTH 5 0
BBX 4 6 0 -1
BITMAP
70
90
90
70
10
E0
ENDCHAR
STARTCHAR U+0068
ENCODING 104
SWIDTH 454 0
DWIDTH 5 0
BBX 4 7 0 0
BITMAP
80
80
E0
90
90
90
90
ENDCHAR
STARTCHAR U+0069
ENCODING 105
SWIDTH 181 0
DWIDTH 2 0
BBX 1 7 0 0
BITMAP
80
00
80
80
80
80
80
ENDCHAR
STARTCHAR U+006A
ENCODING 106
SWIDTH 363 0
DWIDTH 4 0
BBX 3 8 0 -1
BITMAP
20
00
20
20
20
20
20
C0
ENDCHAR
STARTCHAR U+006B
ENCODING 107
SWIDTH 454 0
DWIDTH 5 0
BBX 4 7 0 0
BITMAP
80
80
90
A0
C0
A0
90
ENDCHAR
STARTCHAR U+006C
ENCODING 108
SWIDTH 272 0
DWIDTH 3 0
BBX 2 7 0 0
BITMAP
80
80
80
80
80
80
40
ENDCHAR
STARTCHAR U+006D
ENCODING 109
SWIDTH 545 0
DWIDTH 6 0
BBX 5 5 0 0
BITMAP
F0
A8
A8
A8
A8
ENDCHAR
STARTCHAR U+006E
ENCODING 110
SWIDTH 454 0
DWIDTH 5 0
BBX 4 5 0 0
BITMAP
E0
90
90
90
90
ENDCHAR
STARTCHAR U+006F
ENCODING 111
SWIDTH 454 0
DWIDTH 5 0
BBX 4 5 0 0
BITMAP
60
90
90
90
60
ENDCHAR
STARTCHAR U+0070
ENCODING 112
SWIDTH 454 0
DWIDTH 5 0
BBX 4 6 0 -1
BITMAP
E0
90
90
E0
80
80
ENDCHAR
STARTCHAR U+0071
ENCODING 113
SWIDTH 454 0
DWIDTH 5 0
BBX 4 6 0 -1
BITMAP
70
90
90
70
10
10
ENDCHAR
STARTCHAR U+0072
ENCODING 114
SWIDTH 363 0
DWIDTH 4 0
BBX 3 5 0 0
BITMAP
A0
C0
80
80
80
ENDCHAR
STARTCHAR U+0073
ENCODING 115
SWIDTH 454 0
DWIDTH 5 0
BBX 4 5 0 0
BITMAP
70
80
60
10
E0
ENDCHAR
STARTCHAR U+0074
ENCODING 116
SWIDTH 363 0
DWIDTH 4 0
BBX 3 6 0 0
BITMAP
40
E0
40
40
40
20
ENDCHAR
STARTCHAR U+0075
ENCODING 117
SWIDTH 454 0
DWIDTH 5 0
BBX 4 5 0 0
BITMAP
90
90
90
90
70
ENDCHAR
STARTCHAR U+0076
ENCODING 118
SWIDTH 545 0
DWIDTH 6 0
BBX 5 5 0 0
BITMAP
88
88
50
50
20
ENDCHAR
STARTCHAR U+0077
ENCODING 119
SWIDTH 545 0
DWIDTH 6 0
BBX 5 5 0 0
BITMAP
88
A8
A8
50
50
ENDCHAR
STARTCHAR U+0078
ENCODING 120
SWIDTH 545 0
DWIDTH 6 0
BBX 5 5 0 0
BITMAP
88
50
20
50
88
ENDCHAR
STARTCHAR U+0079
ENCODING 121
SWIDTH 454 0
DWIDTH 5 0
BBX 4 6 0 -1
BITMAP
90
90
90
70
10
E0
ENDCHAR
STARTCHAR U+007A
ENCODING 122
SWIDTH 454 0
DWIDTH 5 0
BBX 4 5 0 0
BITMAP
F0
10
60
80
F0
ENDCHAR
STARTCHAR U+007B
ENCODING 123
SWIDTH 363 0
DWIDTH 4 0
BBX 3 7 0 0
BITMAP
20
40
40
80
40
40
20
ENDCHAR
STARTCHAR U+007C
ENCODING 124
SWIDTH 181 0
DWIDTH 2 0
BBX 1 7 0 0
BITMAP
80
80
80
80
80
80
80
ENDCHAR
STARTCHAR U+007D
ENCODING 125
SWIDTH 363 0
DWIDTH 4 0
BBX 3 7 0 0
BITMAP
80
40
40
20
40
40
80
ENDCHAR
STARTCHAR U+007E
ENCODING 126
SWIDTH 636 0
DWIDTH 7 0
BBX 6 2 0 3
BITMAP
64
98
ENDCHAR
STARTCHAR U+00A0
ENCODING 160
SWIDTH 272 0
DWIDTH 3 0
BBX 0 0 0 0
BITMAP
ENDCHAR
STARTCHAR U+00A1
ENCODING 161
SWIDTH 181 0
DWIDTH 2 0
BBX 1 7 0 -1
BITMAP
80
00
80
80
80
80
80
ENDCHAR
STARTCHAR U+00A2
ENCODING 162
SWIDTH 545 0
DWIDTH 6 0
BBX 5 7 0 0
BITMAP
08
70
98
A0
C8
70
80
ENDCHAR
STARTCHAR U+00A3
ENCODING 163
SWIDTH 454 0
DWIDTH 5 0
BBX 4 7 0 0
BITMAP
20
50
40
F0
20
40
F0
ENDCHAR
STARTCHAR U+00A4
ENCODING 164
SWIDTH 636 0
DWIDTH 7 0
BBX 6 6 0 0
BITMAP
B4
48
84
84
48
B4
ENDCHAR
STARTCHAR U+00A5
ENCODING 165
SWIDTH 545 0
DWIDTH 6 0
BBX 5 7 0 0
BITMAP
88
50
F8
20
F8
20
20
ENDCHAR
STARTCHAR U+00A6
ENCODING 166
SWIDTH 181 0
DWIDTH 2 0
BBX 1 7 0 0
BITMAP
80
80
80
00
80
80
80
ENDCHAR
STARTCHAR U+00A7
ENCODING 167
SWIDTH 363 0
DWIDTH 4 0
BBX 3 7 0 0
BITMAP
60
80
C0
A0
60
20
C0
ENDCHAR
STARTCHAR U+00A8
ENCODING 168
SWIDTH 363 0
DWIDTH 4 0
BBX 3 1 0 6
BITMAP
A0
ENDCHAR
STARTCHAR U+00A9
ENCODING 169
SWIDTH 727 0
DWIDTH 8 0
BBX 7 7 0 0
BITMAP
38
44
BA
A2
BA
44
38
ENDCHAR
STARTCHAR U+00AA
ENCODING 170
SWIDTH 363 0
DWIDTH 4 0
BBX 3 5 0 3
BITMAP
C0
60
A0
40
E0
ENDCHAR
STARTCHAR U+00AB
ENCODING 171
SWIDTH 454 0
DWIDTH 5 0
BBX 4 3 0 2
BITMAP
50
A0
50
ENDCHAR
STARTCHAR U+00AC
ENCODING 172
SWIDTH 545 0
DWIDTH 6 0
BBX 5 4 0 0
BITMAP
F8
08
08
08
ENDCHAR
STARTCHAR U+00AE
ENCODING 174
SWIDTH 727 0
DWIDTH 8 0
BBX 7 7 0 0
BITMAP
38
74
AA
B2
AA
44
38
ENDCHAR
STARTCHAR U+00AF
ENCODING 175
SWIDTH 454 0
DWIDTH 5 0
BBX 4 1 0 6
BITMAP
F0
ENDCHAR
STARTCHAR U+00B0
ENCODING 176
SWIDTH 363 0
DWIDTH 4 0
BBX 3 3 0 4
BITMAP
40
A0
40
ENDCHAR
STARTCHAR U+00B1
ENCODING 177
SWIDTH 545 0
DWIDTH 6 0
BBX 5 7 0 0
BITMAP
20
20
F8
20
20
00
F8
ENDCHAR
STARTCHAR U+00B2
ENCODING 178
SWIDTH 363 0
DWIDTH 4 0
BBX 3 4 0 4
BITMAP
C0
20
40
E0
ENDCHAR
STARTCHAR U+00B3
ENCODING 179
SWIDTH 363 0
DWIDTH 4 0
BBX 3 4 0 4
BITMAP
E0
40
20
C0
ENDCHAR
STARTCHAR U+00B4
ENCODING 180
SWIDTH 272 0
DWIDTH 3 0
BBX 2 2 0 5
BITMAP
40
80
ENDCHAR
STARTCHAR U+00B5
ENCODING 181
SWIDTH 454 0
DWIDTH 5 0
BBX 4 6 0 -1
BITMAP
90
90
90
90
F0
80
ENDCHAR
STARTCHAR U+00B6
ENCODING 182
SWIDTH 545 0
DWIDTH 6 0
BBX 5 7 0 0
BITMAP
78
E8
E8
68
28
28
28
ENDCHAR
STARTCHAR U+00B7
ENCODING 183
SWIDTH 181 0
DWIDTH 2 0
BBX 1 1 0 3
BITMAP
80
ENDCHAR
STARTCHAR U+00B8
ENCODING 184
SWIDTH 272 0
DWIDTH 3 0
BBX 2 2 0 -1
BITMAP
40
80
ENDCHAR
STARTCHAR U+00B9
ENCODING 185
SWIDTH 363 0
DWIDTH 4 0
BBX 2 4 0 4
BITMAP
C0
40
40
40
ENDCHAR
STARTCHAR U+00BA
ENCODING 186
SWIDTH 363 0
DWIDTH 4 0
BBX 3 5 0 3
BITMAP
40
A0
A0
40
E0
ENDCHAR
STARTCHAR U+00BB
ENCODING 187
SWIDTH 454 0
DWIDTH 5 0
BBX 4 3 0 2
BITMAP
A0
50
A0
ENDCHAR
STARTCHAR U+00BC
ENCODING 188
SWIDTH 727 0
DWIDTH 8 0
BBX 7 7 0 0
BITMAP
42
44
48
1A
2A
4E
82
ENDCHAR
STARTCHAR U+00BD
ENCODING 189
SWIDTH 727 0
DWIDTH 8 0
BBX 7 7 0 0
BITMAP
42
44
48
14
2A
44
8E
ENDCHAR
STARTCHAR U+00BE
ENCODING 190
SWIDTH 727 0
DWIDTH 8 0
BBX 7 7 0 0
BITMAP
E2
44
28
DA
2A
4E
82
ENDCHAR
STARTCHAR U+00BF
ENCODING 191
SWIDTH 454 0
DWIDTH 5 0
BBX 4 7 0 -1
BITMAP
20
00
20
20
40
80
70
ENDCHAR
STARTCHAR U+00C0
ENCODING 192
SWIDTH 454 0
DWIDTH 5 0
BBX 4 8 0 0
BITMAP
40
20
60
90
90
F0
90
90
ENDCHAR
STARTCHAR U+00C1
ENCODING 193
SWIDTH 454 0
DWIDTH 5 0
BBX 4 8 0 0
BITMAP
20
40
60
90
90
F0
90
90
ENDCHAR
STARTCHAR U+00C2
ENCODING 194
SWIDTH 454 0
DWIDTH 5 0
BBX 4 8 0 0
BITMAP
20
50
00
60
90
F0
90
90
ENDCHAR
STARTCHAR U+00C3
ENCODING 195
SWIDTH 454 0
DWIDTH 5 0
BBX 4 8 0 0
BITMAP
50
A0
60
90
90
F0
90
90
ENDCHAR
STARTCHAR U+00C4
ENCODING 196
SWIDTH 454 0
DWIDTH 5 0
BBX 4 8 0 0
BITMAP
50
00
60
90
90
F0
90
90
ENDCHAR
STARTCHAR U+00C5
ENCODING 197
SWIDTH 454 0
DWIDTH 5 0
BBX 4 8 0 0
BITMAP
20
50
20
60
90
F0
90
90
ENDCHAR
STARTCHAR U+00C6
ENCODING 198
SWIDTH 545 0
DWIDTH 6 0
BBX 5 7 0 0
BITMAP
78
A0
A0
B8
E0
A0
B8
ENDCHAR
STARTCHAR U+00C7
ENCODING 199
SWIDTH 454 0
DWIDTH 5 0
BBX 4 8 0 -1
BITMAP
70
80
80
80
80
70
20
40
ENDCHAR
STARTCHAR U+00C8
ENCODING 200
SWIDTH 454 0
DWIDTH 5 0
BBX 4 8 0 0
BITMAP
40
20
F0
80
F0
80
80
F0
ENDCHAR
STARTCHAR U+00C9
ENCODING 201
SWIDTH 454 0
DWIDTH 5 0
BBX 4 8 0 0
BITMAP
20
40
F0
80
F0
80
80
F0
ENDCHAR
STARTCHAR U+00CA
ENCODING 202
SWIDTH 454 0
DWIDTH 5 0
BBX 4 8 0 0
BITMAP
20
50
F0
80
F0
80
80
F0
ENDCHAR
STARTCHAR U+00CB
ENCODING 203
SWIDTH 454 0
DWIDTH 5 0
BBX 4 8 0 0
BITMAP
50
00
F0
80
F0
80
80
F0
ENDCHAR
STARTCHAR U+00CC
ENCODING 204
SWIDTH 272 0
DWIDTH 3 0
BBX 2 8 0 0
BITMAP
80
40
00
40
40
40
40
40
ENDCHAR
STARTCHAR U+00CD
ENCODING 205
SWIDTH 272 0
DWIDTH 3 0
BBX 2 8 0 0
BITMAP
40
80
00
80
80
80
80
80
ENDCHAR
STARTCHAR U+00CE
ENCODING 206
SWIDTH 363 0
DWIDTH 4 0
BBX 3 8 0 0
BITMAP
40
A0
00
40
40
40
40
40
ENDCHAR
STARTCHAR U+00CF
ENCODING 207
SWIDTH 363 0
DWIDTH 4 0
BBX 3 7 0 0
BITMAP
A0
00
40
40
40
40
40
ENDCHAR
STARTCHAR U+00D0
ENCODING 208
SWIDTH 545 0
DWIDTH 6 0
BBX 5 7 0 0
BITMAP
70
48
48
E8
48
48
70
ENDCHAR
STARTCHAR U+00D1
ENCODING 209
SWIDTH 545 0
DWIDTH 6 0
BBX 5 8 0 0
BITMAP
28
50
88
C8
A8
A8
98
88
ENDCHAR
STARTCHAR U+00D2
ENCODING 210
SWIDTH 454 0
DWIDTH 5 0
BBX 4 8 0 0
BITMAP
40
20
60
90
90
90
90
60
ENDCHAR
STARTCHAR U+00D3
ENCODING 211
SWIDTH 454 0
DWIDTH 5 0
BBX 4 8 0 0
BITMAP
20
40
60
90
90
90
90
60
ENDCHAR
STARTCHAR U+00D4
ENCODING 212
SWIDTH 454 0
DWIDTH 5 0
BBX 4 8 0 0
BITMAP
20
50
60
90
90
90
90
60
ENDCHAR
STARTCHAR U+00D5
ENCODING 213
SWIDTH 454 0
DWIDTH 5 0
BBX 4 8 0 0
BITMAP
50
A0
60
90
90
90
90
60
ENDCHAR
STARTCHAR U+00D6
ENCODING 214
SWIDTH 454 0
DWIDTH 5 0
BBX 4 8 0 0
BITMAP
50
00
60
90
90
90
90
60
ENDCHAR
STARTCHAR U+00D7
ENCODING 215
SWIDTH 545 0
DWIDTH 6 0
BBX 5 5 0 1
BITMAP
88
50
20
50
88
ENDCHAR
STARTCHAR U+00D8
ENCODING 216
SWIDTH 636 0
DWIDTH 7 0
BBX 6 6 0 0
BITMAP
34
48
58
68
48
B0
ENDCHAR
STARTCHAR U+00D9
ENCODING 217
SWIDTH 454 0
DWIDTH 5 0
BBX 4 8 0 0
BITMAP
80
40
90
90
90
90
90
60
ENDCHAR
STARTCHAR U+00DA
ENCODING 218
SWIDTH 454 0
DWIDTH 5 0
BBX 4 8 0 0
BITMAP
10
20
90
90
90
90
90
60
ENDCHAR
STARTCHAR U+00DB
ENCODING 219
SWIDTH 454 0
DWIDTH 5 0
BBX 4 8 0 0
BITMAP
20
50
90
90
90
90
90
60
ENDCHAR
STARTCHAR U+00DC
ENCODING 220
SWIDTH 454 0
DWIDTH 5 0
BBX 4 8 0 0
BITMAP
50
00
90
90
90
90
90
60
ENDCHAR
STARTCHAR U+00DD
ENCODING 221
SWIDTH 545 0
DWIDTH 6 0
BBX 5 8 0 0
BITMAP
10
20
88
50
50
20
20
20
ENDCHAR
STARTCHAR U+00DE
ENCODING 222
SWIDTH 363 0
DWIDTH 4 0
BBX 4 7 0 0
BITMAP
80
E0
90
90
E0
80
80
ENDCHAR
STARTCHAR U+00DF
ENCODING 223
SWIDTH 454 0
DWIDTH 5 0
BBX 4 7 0 0
BITMAP
60
90
90
A0
90
90
A0
ENDCHAR
STARTCHAR U+00E0
ENCODING 224
SWIDTH 454 0
DWIDTH 5 0
BBX 4 7 0 0
BITMAP
40
20
E0
10
70
90
70
ENDCHAR
STARTCHAR U+00E1
ENCODING 225
SWIDTH 454 0
DWIDTH 5 0
BBX 4 7 0 0
BITMAP
20
40
E0
10
70
90
70
ENDCHAR
STARTCHAR U+00E2
ENCODING 226
SWIDTH 454 0
DWIDTH 5 0
BBX 4 7 0 0
BITMAP
20
50
E0
10
70
90
70
ENDCHAR
STARTCHAR U+00E3
ENCODING 227
SWIDTH 545 0
DWIDTH 6 0
BBX 5 7 0 0
BITMAP
28
50
E0
10
70
90
70
ENDCHAR
STARTCHAR U+00E4
ENCODING 228
SWIDTH 454 0
DWIDTH 5 0
BBX 4 7 0 0
BITMAP
50
00
E0
10
70
90
70
ENDCHAR
STARTCHAR U+00E5
ENCODING 229
SWIDTH 454 0
DWIDTH 5 0
BBX 4 7 0 0
BITMAP
20
50
E0
10
70
90
70
ENDCHAR
STARTCHAR U+00E6
ENCODING 230
SWIDTH 545 0
DWIDTH 6 0
BBX 5 5 0 0
BITMAP
D0
28
78
A0
58
ENDCHAR
STARTCHAR U+00E7
ENCODING 231
SWIDTH 454 0
DWIDTH 5 0
BBX 4 6 0 -1
BITMAP
70
80
80
80
70
C0
ENDCHAR
STARTCHAR U+00E8
ENCODING 232
SWIDTH 454 0
DWIDTH 5 0
BBX 4 7 0 0
BITMAP
40
20
60
90
F0
80
70
ENDCHAR
STARTCHAR U+00E9
ENCODING 233
SWIDTH 454 0
DWIDTH 5 0
BBX 4 7 0 0
BITMAP
20
40
60
90
F0
80
70
ENDCHAR
STARTCHAR U+00EA
ENCODING 234
SWIDTH 454 0
DWIDTH 5 0
BBX 4 7 0 0
BITMAP
20
50
60
90
F0
80
70
ENDCHAR
STARTCHAR U+00EB
ENCODING 235
SWIDTH 454 0
DWIDTH 5 0
BBX 4 7 0 0
BITMAP
50
00
60
90
F0
80
70
ENDCHAR
STARTCHAR U+00EC
ENCODING 236
SWIDTH 272 0
DWIDTH 3 0
BBX 2 7 0 0
BITMAP
80
40
00
40
40
40
40
ENDCHAR
STARTCHAR U+00ED
ENCODING 237
SWIDTH 272 0
DWIDTH 3 0
BBX 2 7 0 0
BITMAP
40
80
00
80
80
80
80
ENDCHAR
STARTCHAR U+00EE
ENCODING 238
SWIDTH 363 0
DWIDTH 4 0
BBX 3 7 0 0
BITMAP
40
A0
00
40
40
40
40
ENDCHAR
STARTCHAR U+00EF
ENCODING 239
SWIDTH 363 0
DWIDTH 4 0
BBX 3 6 0 0
BITMAP
A0
00
40
40
40
40
ENDCHAR
STARTCHAR U+00F0
ENCODING 240
SWIDTH 454 0
DWIDTH 5 0
BBX 4 7 0 0
BITMAP
A0
40
A0
10
70
90
60
ENDCHAR
STARTCHAR U+00F1
ENCODING 241
SWIDTH 454 0
DWIDTH 5 0
BBX 4 8 0 0
BITMAP
50
A0
00
E0
90
90
90
90
ENDCHAR
STARTCHAR U+00F2
ENCODING 242
SWIDTH 454 0
DWIDTH 5 0
BBX 4 7 0 0
BITMAP
40
20
60
90
90
90
60
ENDCHAR
STARTCHAR U+00F3
ENCODING 243
SWIDTH 454 0
DWIDTH 5 0
BBX 4 7 0 0
BITMAP
20
40
60
90
90
90
60
ENDCHAR
STARTCHAR U+00F4
ENCODING 244
SWIDTH 454 0
DWIDTH 5 0
BBX 4 7 0 0
BITMAP
20
50
60
90
90
90
60
ENDCHAR
STARTCHAR U+00F5
ENCODING 245
SWIDTH 454 0
DWIDTH 5 0
BBX 4 7 0 0
BITMAP
50
A0
60
90
90
90
60
ENDCHAR
STARTCHAR U+00F6
ENCODING 246
SWIDTH 454 0
DWIDTH 5 0
BBX 4 7 0 0
BITMAP
50
00
60
90
90
90
60
ENDCHAR
STARTCHAR U+00F7
ENCODING 247
SWIDTH 545 0
DWIDTH 6 0
BBX 5 5 0 1
BITMAP
20
00
F8
00
20
ENDCHAR
STARTCHAR U+00F8
ENCODING 248
SWIDTH 636 0
DWIDTH 7 0
BBX 6 5 0 0
BITMAP
34
58
68
48
B0
ENDCHAR
STARTCHAR U+00F9
ENCODING 249
SWIDTH 454 0
DWIDTH 5 0
BBX 4 8 0 0
BITMAP
40
20
00
90
90
90
90
70
ENDCHAR
STARTCHAR U+00FA
ENCODING 250
SWIDTH 454 0
DWIDTH 5 0
BBX 4 8 0 0
BITMAP
20
40
00
90
90
90
90
70
ENDCHAR
STARTCHAR U+00FB
ENCODING 251
SWIDTH 454 0
DWIDTH 5 0
BBX 4 8 0 0
BITMAP
20
50
00
90
90
90
90
70
ENDCHAR
STARTCHAR U+00FC
ENCODING 252
SWIDTH 454 0
DWIDTH 5 0
BBX 4 7 0 0
BITMAP
50
00
90
90
90
90
70
ENDCHAR
STARTCHAR U+00FD
ENCODING 253
SWIDTH 454 0
DWIDTH 5 0
BBX 4 9 0 -1
BITMAP
20
40
00
90
90
90
70
10
E0
ENDCHAR
STARTCHAR U+00FE
ENCODING 254
SWIDTH 454 0
DWIDTH 5 0
BBX 4 7 0 -1
BITMAP
80
E0
90
90
E0
80
80
ENDCHAR
STARTCHAR U+00FF
ENCODING 255
SWIDTH 454 0
DWIDTH 5 0
BBX 4 8 0 -1
BITMAP
50
00
90
90
90
70
10
E0
ENDCHAR
STARTCHAR U+0192
ENCODING 402
SWIDTH 363 0
DWIDTH 4 0
BBX 3 8 0 -1
BITMAP
20
40
E0
40
40
40
40
80
ENDCHAR
STARTCHAR U+2010
ENCODING 8208
SWIDTH 363 0
DWIDTH 4 0
BBX 3 1 0 3
BITMAP
E0
ENDCHAR
STARTCHAR U+2011
ENCODING 8209
SWIDTH 363 0
DWIDTH 4 0
BBX 3 1 0 3
BITMAP
E0
ENDCHAR
STARTCHAR U+2012
ENCODING 8210
SWIDTH 454 0
DWIDTH 5 0
BBX 4 1 0 3
BITMAP
F0
ENDCHAR
STARTCHAR U+2013
ENCODING 8211
SWIDTH 363 0
DWIDTH 4 0
BBX 3 1 0 3
BITMAP
E0
ENDCHAR
STARTCHAR U+2014
ENCODING 8212
SWIDTH 727 0
DWIDTH 8 0
BBX 7 1 0 3
BITMAP
FE
ENDCHAR
STARTCHAR U+2015
ENCODING 8213
SWIDTH 727 0
DWIDTH 8 0
BBX 7 1 0 3
BITMAP
FE
ENDCHAR
STARTCHAR U+2016
ENCODING 8214
SWIDTH 363 0
DWIDTH 4 0
BBX 3 7 0 0
BITMAP
A0
A0
A0
A0
A0
A0
A0
ENDCHAR
STARTCHAR U+2017
ENCODING 8215
SWIDTH 363 0
DWIDTH 4 0
BBX 3 3 0 0
BITMAP
E0
00
E0
ENDCHAR
STARTCHAR U+2018
ENCODING 8216
SWIDTH 272 0
DWIDTH 3 0
BBX 2 2 0 5
BITMAP
40
80
ENDCHAR
STARTCHAR U+2019
ENCODING 8217
SWIDTH 272 0
DWIDTH 3 0
BBX 2 2 0 5
BITMAP
40
80
ENDCHAR
STARTCHAR U+201A
ENCODING 8218
SWIDTH 272 0
DWIDTH 3 0
BBX 2 2 0 -1
BITMAP
40
80
ENDCHAR
STARTCHAR U+201B
ENCODING 8219
SWIDTH 272 0
DWIDTH 3 0
BBX 2 2 0 5
BITMAP
80
40
ENDCHAR
STARTCHAR U+201C
ENCODING 8220
SWIDTH 454 0
DWIDTH 5 0
BBX 4 2 0 5
BITMAP
50
A0
ENDCHAR
STARTCHAR U+201D
ENCODING 8221
SWIDTH 454 0
DWIDTH 5 0
BBX 4 2 0 5
BITMAP
50
A0
ENDCHAR
STARTCHAR U+201E
ENCODING 8222
SWIDTH 454 0
DWIDTH 5 0
BBX 4 2 0 -1
BITMAP
50
A0
ENDCHAR
STARTCHAR U+201F
ENCODING 8223
SWIDTH 454 0
DWIDTH 5 0
BBX 4 2 0 5
BITMAP
A0
50
ENDCHAR
STARTCHAR U+2020
ENCODING 8224
SWIDTH 545 0
DWIDTH 6 0
BBX 5 7 0 0
BITMAP
20
20
F8
20
20
20
20
ENDCHAR
STARTCHAR U+2021
ENCODING 8225
SWIDTH 545 0
DWIDTH 6 0
BBX 5 7 0 0
BITMAP
20
F8
20
20
20
F8
20
ENDCHAR
STARTCHAR U+2022
ENCODING 8226
SWIDTH 272 0
DWIDTH 3 0
BBX 2 2 0 3
BITMAP
C0
C0
ENDCHAR
STARTCHAR U+2023
ENCODING 8227
SWIDTH 272 0
DWIDTH 3 0
BBX 2 3 0 2
BITMAP
80
C0
80
ENDCHAR
STARTCHAR U+2024
ENCODING 8228
SWIDTH 181 0
DWIDTH 2 0
BBX 1 1 0 1
BITMAP
80
ENDCHAR
STARTCHAR U+2025
ENCODING 8229
SWIDTH 727 0
DWIDTH 8 0
BBX 5 1 1 3
BITMAP
88
ENDCHAR
STARTCHAR U+2026
ENCODING 8230
SWIDTH 727 0
DWIDTH 8 0
BBX 5 1 1 3
BITMAP
A8
ENDCHAR
STARTCHAR U+2027
ENCODING 8231
SWIDTH 181 0
DWIDTH 2 0
BBX 1 1 0 3
BITMAP
80
ENDCHAR
STARTCHAR U+2030
ENCODING 8240
SWIDTH 727 0
DWIDTH 8 0
BBX 7 7 0 0
BITMAP
50
A0
A0
40
54
AA
94
ENDCHAR
STARTCHAR U+2031
ENCODING 8241
SWIDTH 909 0
DWIDTH 10 0
BBX 9 7 0 0
BITMAP
5000
A000
A000
4000
5500
AA80
9500
ENDCHAR
STARTCHAR U+2032
ENCODING 8242
SWIDTH 272 0
DWIDTH 3 0
BBX 2 2 0 5
BITMAP
40
80
ENDCHAR
STARTCHAR U+2033
ENCODING 8243
SWIDTH 454 0
DWIDTH 5 0
BBX 4 2 0 5
BITMAP
50
A0
ENDCHAR
STARTCHAR U+2034
ENCODING 8244
SWIDTH 636 0
DWIDTH 7 0
BBX 6 2 0 5
BITMAP
54
A8
ENDCHAR
STARTCHAR U+2035
ENCODING 8245
SWIDTH 272 0
DWIDTH 3 0
BBX 2 2 0 5
BITMAP
80
40
ENDCHAR
STARTCHAR U+2036
ENCODING 8246
SWIDTH 454 0
DWIDTH 5 0
BBX 4 2 0 5
BITMAP
A0
50
ENDCHAR
STARTCHAR U+2037
ENCODING 8247
SWIDTH 636 0
DWIDTH 7 0
BBX 6 2 0 5
BITMAP
A8
54
ENDCHAR
STARTCHAR U+2038
ENCODING 8248
SWIDTH 363 0
DWIDTH 4 0
BBX 3 2 0 0
BITMAP
40
A0
ENDCHAR
STARTCHAR U+2039
ENCODING 8249
SWIDTH 272 0
DWIDTH 3 0
BBX 2 3 0 2
BITMAP
40
80
40
ENDCHAR
STARTCHAR U+203A
ENCODING 8250
SWIDTH 272 0
DWIDTH 3 0
BBX 2 3 0 2
BITMAP
80
40
80
ENDCHAR
STARTCHAR U+203B
ENCODING 8251
SWIDTH 727 0
DWIDTH 8 0
BBX 7 7 0 0
BITMAP
92
44
28
92
28
44
92
ENDCHAR
STARTCHAR U+203C
ENCODING 8252
SWIDTH 363 0
DWIDTH 4 0
BBX 3 7 0 0
BITMAP
A0
A0
A0
A0
A0
00
A0
ENDCHAR
STARTCHAR U+203D
ENCODING 8253
SWIDTH 454 0
DWIDTH 5 0
BBX 4 7 0 0
BITMAP
E0
10
A0
40
40
00
40
ENDCHAR
STARTCHAR U+2043
ENCODING 8259
SWIDTH 272 0
DWIDTH 3 0
BBX 2 1 0 3
BITMAP
C0
ENDCHAR
STARTCHAR U+2044
ENCODING 8260
SWIDTH 363 0
DWIDTH 4 0
BBX 3 7 0 0
BITMAP
20
20
40
40
40
80
80
ENDCHAR
STARTCHAR U+2045
ENCODING 8261
SWIDTH 272 0
DWIDTH 3 0
BBX 2 7 0 0
BITMAP
C0
80
80
C0
80
80
C0
ENDCHAR
STARTCHAR U+2046
ENCODING 8262
SWIDTH 272 0
DWIDTH 3 0
BBX 2 7 0 0
BITMAP
C0
40
40
C0
40
40
C0
ENDCHAR
STARTCHAR U+2047
ENCODING 8263
SWIDTH 818 0
DWIDTH 9 0
BBX 8 7 0 0
BITMAP
EE
11
22
44
44
00
44
ENDCHAR
STARTCHAR U+2048
ENCODING 8264
SWIDTH 636 0
DWIDTH 7 0
BBX 6 7 0 0
BITMAP
E4
14
24
44
44
00
44
ENDCHAR
STARTCHAR U+2049
ENCODING 8265
SWIDTH 727 0
DWIDTH 8 0
BBX 6 7 1 0
BITMAP
B8
84
88
90
90
00
90
ENDCHAR
STARTCHAR U+204B
ENCODING 8267
SWIDTH 545 0
DWIDTH 6 0
BBX 5 7 0 0
BITMAP
F0
B8
B8
B0
A0
A0
A0
ENDCHAR
STARTCHAR U+2057
ENCODING 8279
SWIDTH 818 0
DWIDTH 9 0
BBX 8 2 0 5
BITMAP
55
AA
ENDCHAR
STARTCHAR U+20A1
ENCODING 8353
SWIDTH 545 0
DWIDTH 6 0
BBX 5 7 0 0
BITMAP
08
70
98
A0
C8
70
80
ENDCHAR
STARTCHAR U+20A4
ENCODING 8356
SWIDTH 454 0
DWIDTH 5 0
BBX 4 7 0 0
BITMAP
20
50
40
F0
20
40
F0
ENDCHAR
STARTCHAR U+20A9
ENCODING 8361
SWIDTH 727 0
DWIDTH 8 0
BBX 7 7 0 0
BITMAP
44
54
FE
54
FE
28
28
ENDCHAR
STARTCHAR U+20AC
ENCODING 8364
SWIDTH 545 0
DWIDTH 6 0
BBX 5 7 0 0
BITMAP
30
48
E0
40
E0
48
30
ENDCHAR
STARTCHAR U+2103
ENCODING 8451
SWIDTH 727 0
DWIDTH 8 0
BBX 7 8 0 0
BITMAP
40
AE
50
10
10
10
10
0E
ENDCHAR
STARTCHAR U+2109
ENCODING 8457
SWIDTH 727 0
DWIDTH 8 0
BBX 7 8 0 0
BITMAP
40
AE
48
08
0E
08
08
08
ENDCHAR
STARTCHAR U+2116
ENCODING 8470
SWIDTH 727 0
DWIDTH 8 0
BBX 7 7 0 0
BITMAP
A0
A0
E8
B4
B4
B4
AA
ENDCHAR
STARTCHAR U+2121
ENCODING 8481
SWIDTH 727 0
DWIDTH 8 0
BBX 7 7 0 0
BITMAP
FC
54
54
5C
54
54
5E
ENDCHAR
STARTCHAR U+2122
ENCODING 8482
SWIDTH 727 0
DWIDTH 8 0
BBX 7 3 0 4
BITMAP
F6
5A
52
ENDCHAR
STARTCHAR U+2160
ENCODING 8544
SWIDTH 181 0
DWIDTH 2 0
BBX 1 7 0 0
BITMAP
80
80
80
80
80
80
80
ENDCHAR
STARTCHAR U+2161
ENCODING 8545
SWIDTH 363 0
DWIDTH 4 0
BBX 3 7 0 0
BITMAP
A0
A0
A0
A0
A0
A0
A0
ENDCHAR
STARTCHAR U+2162
ENCODING 8546
SWIDTH 545 0
DWIDTH 6 0
BBX 5 7 0 0
BITMAP
A8
A8
A8
A8
A8
A8
A8
ENDCHAR
STARTCHAR U+2163
ENCODING 8547
SWIDTH 727 0
DWIDTH 8 0
BBX 7 7 0 0
BITMAP
A2
A2
94
94
94
88
88
ENDCHAR
STARTCHAR U+2164
ENCODING 8548
SWIDTH 545 0
DWIDTH 6 0
BBX 5 7 0 0
BITMAP
88
88
50
50
50
20
20
ENDCHAR
STARTCHAR U+2165
ENCODING 8549
SWIDTH 727 0
DWIDTH 8 0
BBX 7 7 0 0
BITMAP
8A
8A
52
52
52
22
22
ENDCHAR
STARTCHAR U+2166
ENCODING 8550
SWIDTH 909 0
DWIDTH 10 0
BBX 9 7 0 0
BITMAP
8A80
8A80
5280
5280
5280
2280
2280
ENDCHAR
STARTCHAR U+2167
ENCODING 8551
SWIDTH 1090 0
DWIDTH 12 0
BBX 11 7 0 0
BITMAP
8AA0
8AA0
52A0
52A0
52A0
22A0
22A0
ENDCHAR
STARTCHAR U+2168
ENCODING 8552
SWIDTH 727 0
DWIDTH 8 0
BBX 7 7 0 0
BITMAP
A2
94
94
88
94
94
A2
ENDCHAR
STARTCHAR U+2169
ENCODING 8553
SWIDTH 545 0
DWIDTH 6 0
BBX 5 7 0 0
BITMAP
88
50
50
20
50
50
88
ENDCHAR
STARTCHAR U+216A
ENCODING 8554
SWIDTH 727 0
DWIDTH 8 0
BBX 7 7 0 0
BITMAP
8A
52
52
22
52
52
8A
ENDCHAR
STARTCHAR U+216B
ENCODING 8555
SWIDTH 909 0
DWIDTH 10 0
BBX 9 7 0 0
BITMAP
8A80
5280
5280
2280
5280
5280
8A80
ENDCHAR
STARTCHAR U+216C
ENCODING 8556
SWIDTH 363 0
DWIDTH 4 0
BBX 3 7 0 0
BITMAP
80
80
80
80
80
80
E0
ENDCHAR
STARTCHAR U+216D
ENCODING 8557
SWIDTH 454 0
DWIDTH 5 0
BBX 4 7 0 0
BITMAP
70
80
80
80
80
80
70
ENDCHAR
STARTCHAR U+216E
ENCODING 8558
SWIDTH 454 0
DWIDTH 5 0
BBX 4 7 0 0
BITMAP
E0
90
90
90
90
90
E0
ENDCHAR
STARTCHAR U+216F
ENCODING 8559
SWIDTH 545 0
DWIDTH 6 0
BBX 5 7 0 0
BITMAP
88
D8
D8
A8
A8
88
88
ENDCHAR
STARTCHAR U+2170
ENCODING 8560
SWIDTH 181 0
DWIDTH 2 0
BBX 1 7 0 0
BITMAP
80
00
80
80
80
80
80
ENDCHAR
STARTCHAR U+2171
ENCODING 8561
SWIDTH 363 0
DWIDTH 4 0
BBX 3 7 0 0
BITMAP
A0
00
A0
A0
A0
A0
A0
ENDCHAR
STARTCHAR U+2172
ENCODING 8562
SWIDTH 545 0
DWIDTH 6 0
BBX 5 7 0 0
BITMAP
A8
00
A8
A8
A8
A8
A8
ENDCHAR
STARTCHAR U+2173
ENCODING 8563
SWIDTH 727 0
DWIDTH 8 0
BBX 7 7 0 0
BITMAP
80
00
A2
A2
94
94
88
ENDCHAR
STARTCHAR U+2174
ENCODING 8564
SWIDTH 545 0
DWIDTH 6 0
BBX 5 5 0 0
BITMAP
88
88
50
50
20
ENDCHAR
STARTCHAR U+2175
ENCODING 8565
SWIDTH 727 0
DWIDTH 8 0
BBX 7 7 0 0
BITMAP
02
00
8A
8A
52
52
22
ENDCHAR
STARTCHAR U+2176
ENCODING 8566
SWIDTH 909 0
DWIDTH 10 0
BBX 9 7 0 0
BITMAP
0280
0000
8A80
8A80
5280
5280
2280
ENDCHAR
STARTCHAR U+2177
ENCODING 8567
SWIDTH 1090 0
DWIDTH 12 0
BBX 11 7 0 0
BITMAP
02A0
0000
8AA0
8AA0
52A0
52A0
22A0
ENDCHAR
STARTCHAR U+2178
ENCODING 8568
SWIDTH 727 0
DWIDTH 8 0
BBX 7 7 0 0
BITMAP
80
00
A2
94
88
94
A2
ENDCHAR
STARTCHAR U+2179
ENCODING 8569
SWIDTH 545 0
DWIDTH 6 0
BBX 5 5 0 0
BITMAP
88
50
20
50
88
ENDCHAR
STARTCHAR U+217A
ENCODING 8570
SWIDTH 727 0
DWIDTH 8 0
BBX 7 7 0 0
BITMAP
02
00
8A
52
22
52
8A
ENDCHAR
STARTCHAR U+217B
ENCODING 8571
SWIDTH 909 0
DWIDTH 10 0
BBX 9 7 0 0
BITMAP
0280
0000
8A80
5280
2280
5280
8A80
ENDCHAR
STARTCHAR U+217C
ENCODING 8572
SWIDTH 272 0
DWIDTH 3 0
BBX 2 7 0 0
BITMAP
80
80
80
80
80
80
40
ENDCHAR
STARTCHAR U+217D
ENCODING 8573
SWIDTH 454 0
DWIDTH 5 0
BBX 4 5 0 0
BITMAP
70
80
80
80
70
ENDCHAR
STARTCHAR U+217E
ENCODING 8574
SWIDTH 454 0
DWIDTH 5 0
BBX 4 7 0 0
BITMAP
10
10
70
90
90
90
70
ENDCHAR
STARTCHAR U+217F
ENCODING 8575
SWIDTH 545 0
DWIDTH 6 0
BBX 5 5 0 0
BITMAP
F0
A8
A8
A8
A8
ENDCHAR
STARTCHAR U+2190
ENCODING 8592
SWIDTH 727 0
DWIDTH 8 0
BBX 7 5 0 1
BITMAP
20
40
FE
40
20
ENDCHAR
STARTCHAR U+2191
ENCODING 8593
SWIDTH 727 0
DWIDTH 8 0
BBX 5 7 1 0
BITMAP
20
70
A8
20
20
20
20
ENDCHAR
STARTCHAR U+2192
ENCODING 8594
SWIDTH 727 0
DWIDTH 8 0
BBX 7 5 0 1
BITMAP
08
04
FE
04
08
ENDCHAR
STARTCHAR U+2193
ENCODING 8595
SWIDTH 727 0
DWIDTH 8 0
BBX 5 7 1 0
BITMAP
20
20
20
20
A8
70
20
ENDCHAR
STARTCHAR U+2194
ENCODING 8596
SWIDTH 727 0
DWIDTH 8 0
BBX 7 5 0 1
BITMAP
28
44
FE
44
28
ENDCHAR
STARTCHAR U+2195
ENCODING 8597
SWIDTH 727 0
DWIDTH 8 0
BBX 5 7 1 0
BITMAP
20
70
A8
20
A8
70
20
ENDCHAR
STARTCHAR U+2196
ENCODING 8598
SWIDTH 727 0
DWIDTH 8 0
BBX 5 5 1 1
BITMAP
E0
C0
A0
10
08
ENDCHAR
STARTCHAR U+2197
ENCODING 8599
SWIDTH 727 0
DWIDTH 8 0
BBX 5 5 1 1
BITMAP
38
18
28
40
80
ENDCHAR
STARTCHAR U+2198
ENCODING 8600
SWIDTH 727 0
DWIDTH 8 0
BBX 5 5 1 1
BITMAP
80
40
28
18
38
ENDCHAR
STARTCHAR U+2199
ENCODING 8601
SWIDTH 727 0
DWIDTH 8 0
BBX 5 5 1 1
BITMAP
08
10
A0
C0
E0
ENDCHAR
STARTCHAR U+219E
ENCODING 8606
SWIDTH 727 0
DWIDTH 8 0
BBX 7 5 0 1
BITMAP
28
50
FE
50
28
ENDCHAR
STARTCHAR U+219F
ENCODING 8607
SWIDTH 727 0
DWIDTH 8 0
BBX 5 7 1 0
BITMAP
20
70
A8
70
A8
20
20
ENDCHAR
STARTCHAR U+21A0
ENCODING 8608
SWIDTH 727 0
DWIDTH 8 0
BBX 7 5 0 1
BITMAP
28
14
FE
14
28
ENDCHAR
STARTCHAR U+21A1
ENCODING 8609
SWIDTH 727 0
DWIDTH 8 0
BBX 5 7 1 0
BITMAP
20
20
A8
70
A8
70
20
ENDCHAR
STARTCHAR U+21A2
ENCODING 8610
SWIDTH 727 0
DWIDTH 8 0
BBX 7 5 0 1
BITMAP
22
44
F8
44
22
ENDCHAR
STARTCHAR U+21A3
ENCODING 8611
SWIDTH 727 0
DWIDTH 8 0
BBX 7 5 0 1
BITMAP
88
44
3E
44
88
ENDCHAR
STARTCHAR U+21A4
ENCODING 8612
SWIDTH 727 0
DWIDTH 8 0
BBX 7 5 0 1
BITMAP
22
42
FE
42
22
ENDCHAR
STARTCHAR U+21A5
ENCODING 8613
SWIDTH 727 0
DWIDTH 8 0
BBX 5 7 1 0
BITMAP
20
70
A8
20
20
20
F8
ENDCHAR
STARTCHAR U+21A6
ENCODING 8614
SWIDTH 727 0
DWIDTH 8 0
BBX 7 5 0 1
BITMAP
88
84
FE
84
88
ENDCHAR
STARTCHAR U+21A7
ENCODING 8615
SWIDTH 727 0
DWIDTH 8 0
BBX 5 7 1 0
BITMAP
F8
20
20
20
A8
70
20
ENDCHAR
STARTCHAR U+21A9
ENCODING 8617
SWIDTH 727 0
DWIDTH 8 0
BBX 7 7 0 0
BITMAP
1C
02
22
42
FC
40
20
ENDCHAR
STARTCHAR U+21AA
ENCODING 8618
SWIDTH 727 0
DWIDTH 8 0
BBX 7 7 0 0
BITMAP
70
80
88
84
7E
04
08
ENDCHAR
STARTCHAR U+21AB
ENCODING 8619
SWIDTH 727 0
DWIDTH 8 0
BBX 7 7 0 0
BITMAP
04
2A
4A
FC
48
28
08
ENDCHAR
STARTCHAR U+21AC
ENCODING 8620
SWIDTH 727 0
DWIDTH 8 0
BBX 7 7 0 0
BITMAP
40
A8
A4
7E
24
28
20
ENDCHAR
STARTCHAR U+21B0
ENCODING 8624
SWIDTH 727 0
DWIDTH 8 0
BBX 7 7 0 0
BITMAP
20
40
FE
42
22
02
02
ENDCHAR
STARTCHAR U+21B1
ENCODING 8625
SWIDTH 727 0
DWIDTH 8 0
BBX 7 7 0 0
BITMAP
08
04
FE
84
88
80
80
ENDCHAR
STARTCHAR U+21B2
ENCODING 8626
SWIDTH 727 0
DWIDTH 8 0
BBX 7 7 0 0
BITMAP
02
02
22
42
FE
40
20
ENDCHAR
STARTCHAR U+21B3
ENCODING 8627
SWIDTH 727 0
DWIDTH 8 0
BBX 7 7 0 0
BITMAP
80
80
88
84
FE
04
08
ENDCHAR
STARTCHAR U+21B4
ENCODING 8628
SWIDTH 727 0
DWIDTH 8 0
BBX 7 7 0 0
BITMAP
F8
08
08
08
2A
1C
08
ENDCHAR
STARTCHAR U+21B5
ENCODING 8629
SWIDTH 727 0
DWIDTH 8 0
BBX 7 7 0 0
BITMAP
02
02
22
42
FE
40
20
ENDCHAR
STARTCHAR U+21B6
ENCODING 8630
SWIDTH 727 0
DWIDTH 8 0
BBX 7 7 0 0
BITMAP
1C
22
22
22
A8
70
20
ENDCHAR
STARTCHAR U+21B7
ENCODING 8631
SWIDTH 727 0
DWIDTH 8 0
BBX 7 7 0 0
BITMAP
70
88
88
88
2A
1C
08
ENDCHAR
STARTCHAR U+21B8
ENCODING 8632
SWIDTH 727 0
DWIDTH 8 0
BBX 7 7 0 0
BITMAP
FE
00
F0
C0
A0
90
08
ENDCHAR
STARTCHAR U+21BA
ENCODING 8634
SWIDTH 727 0
DWIDTH 8 0
BBX 7 7 0 0
BITMAP
2E
4C
8A
82
82
44
38
ENDCHAR
STARTCHAR U+21BB
ENCODING 8635
SWIDTH 727 0
DWIDTH 8 0
BBX 7 7 0 0
BITMAP
E8
64
A2
82
82
44
38
ENDCHAR
STARTCHAR U+21BC
ENCODING 8636
SWIDTH 727 0
DWIDTH 8 0
BBX 7 3 0 3
BITMAP
20
40
FE
ENDCHAR
STARTCHAR U+21BD
ENCODING 8637
SWIDTH 727 0
DWIDTH 8 0
BBX 7 3 0 1
BITMAP
FE
40
20
ENDCHAR
STARTCHAR U+21BE
ENCODING 8638
SWIDTH 727 0
DWIDTH 8 0
BBX 3 7 3 0
BITMAP
80
C0
A0
80
80
80
80
ENDCHAR
STARTCHAR U+21BF
ENCODING 8639
SWIDTH 727 0
DWIDTH 8 0
BBX 3 7 1 0
BITMAP
20
60
A0
20
20
20
20
ENDCHAR
STARTCHAR U+21C0
ENCODING 8640
SWIDTH 727 0
DWIDTH 8 0
BBX 7 3 0 3
BITMAP
08
04
FE
ENDCHAR
STARTCHAR U+21C1
ENCODING 8641
SWIDTH 727 0
DWIDTH 8 0
BBX 7 3 0 1
BITMAP
FE
04
08
ENDCHAR
STARTCHAR U+21C2
ENCODING 8642
SWIDTH 727 0
DWIDTH 8 0
BBX 3 7 3 0
BITMAP
80
80
80
80
A0
C0
80
ENDCHAR
STARTCHAR U+21C3
ENCODING 8643
SWIDTH 727 0
DWIDTH 8 0
BBX 3 7 1 0
BITMAP
20
20
20
20
A0
60
20
ENDCHAR
STARTCHAR U+21CB
ENCODING 8651
SWIDTH 727 0
DWIDTH 8 0
BBX 7 7 0 0
BITMAP
20
40
FE
00
FE
04
08
ENDCHAR
STARTCHAR U+21CC
ENCODING 8652
SWIDTH 727 0
DWIDTH 8 0
BBX 7 7 0 0
BITMAP
08
04
FE
00
FE
40
20
ENDCHAR
STARTCHAR U+21D0
ENCODING 8656
SWIDTH 727 0
DWIDTH 8 0
BBX 7 5 0 1
BITMAP
20
7E
80
7E
20
ENDCHAR
STARTCHAR U+21D1
ENCODING 8657
SWIDTH 727 0
DWIDTH 8 0
BBX 5 7 1 0
BITMAP
20
50
D8
50
50
50
50
ENDCHAR
STARTCHAR U+21D2
ENCODING 8658
SWIDTH 727 0
DWIDTH 8 0
BBX 7 5 0 1
BITMAP
08
FC
02
FC
08
ENDCHAR
STARTCHAR U+21D3
ENCODING 8659
SWIDTH 727 0
DWIDTH 8 0
BBX 5 7 1 0
BITMAP
50
50
50
50
D8
50
20
ENDCHAR
STARTCHAR U+21D4
ENCODING 8660
SWIDTH 727 0
DWIDTH 8 0
BBX 7 5 0 1
BITMAP
28
7C
82
7C
28
ENDCHAR
STARTCHAR U+21D5
ENCODING 8661
SWIDTH 727 0
DWIDTH 8 0
BBX 5 7 1 0
BITMAP
20
50
D8
50
D8
50
20
ENDCHAR
STARTCHAR U+21D6
ENCODING 8662
SWIDTH 727 0
DWIDTH 8 0
BBX 6 6 1 0
BITMAP
F0
A0
D0
A8
14
08
ENDCHAR
STARTCHAR U+21D7
ENCODING 8663
SWIDTH 727 0
DWIDTH 8 0
BBX 6 6 0 0
BITMAP
3C
14
2C
54
A0
40
ENDCHAR
STARTCHAR U+21D8
ENCODING 8664
SWIDTH 727 0
DWIDTH 8 0
BBX 6 6 0 1
BITMAP
40
A0
54
2C
14
3C
ENDCHAR
STARTCHAR U+21D9
ENCODING 8665
SWIDTH 727 0
DWIDTH 8 0
BBX 6 6 1 1
BITMAP
08
14
A8
D0
A0
F0
ENDCHAR
STARTCHAR U+21E0
ENCODING 8672
SWIDTH 727 0
DWIDTH 8 0
BBX 7 5 0 1
BITMAP
20
40
AA
40
20
ENDCHAR
STARTCHAR U+21E1
ENCODING 8673
SWIDTH 727 0
DWIDTH 8 0
BBX 5 7 1 0
BITMAP
20
50
A8
00
20
00
20
ENDCHAR
STARTCHAR U+21E2
ENCODING 8674
SWIDTH 727 0
DWIDTH 8 0
BBX 7 5 0 1
BITMAP
08
04
AA
04
08
ENDCHAR
STARTCHAR U+21E3
ENCODING 8675
SWIDTH 727 0
DWIDTH 8 0
BBX 5 7 1 0
BITMAP
20
00
20
00
A8
50
20
ENDCHAR
STARTCHAR U+21E4
ENCODING 8676
SWIDTH 727 0
DWIDTH 8 0
BBX 7 5 0 1
BITMAP
90
A0
FE
A0
90
ENDCHAR
STARTCHAR U+21E5
ENCODING 8677
SWIDTH 727 0
DWIDTH 8 0
BBX 7 5 0 1
BITMAP
12
0A
FE
0A
12
ENDCHAR
STARTCHAR U+21E6
ENCODING 8678
SWIDTH 727 0
DWIDTH 8 0
BBX 7 7 0 0
BITMAP
10
30
5E
82
5E
30
10
ENDCHAR
STARTCHAR U+21E7
ENCODING 8679
SWIDTH 727 0
DWIDTH 8 0
BBX 7 7 0 0
BITMAP
10
28
44
EE
28
28
38
ENDCHAR
STARTCHAR U+21E8
ENCODING 8680
SWIDTH 727 0
DWIDTH 8 0
BBX 7 7 0 0
BITMAP
10
18
F4
82
F4
18
10
ENDCHAR
STARTCHAR U+21E9
ENCODING 8681
SWIDTH 727 0
DWIDTH 8 0
BBX 7 7 0 0
BITMAP
38
28
28
EE
44
28
10
ENDCHAR
STARTCHAR U+21EA
ENCODING 8682
SWIDTH 727 0
DWIDTH 8 0
BBX 7 7 0 0
BITMAP
10
28
44
EE
38
00
38
ENDCHAR
STARTCHAR U+21EB
ENCODING 8683
SWIDTH 727 0
DWIDTH 8 0
BBX 7 7 0 0
BITMAP
10
28
44
EE
28
28
FE
ENDCHAR
STARTCHAR U+21F0
ENCODING 8688
SWIDTH 727 0
DWIDTH 8 0
BBX 7 7 0 0
BITMAP
90
98
F4
82
F4
98
90
ENDCHAR
STARTCHAR U+21F1
ENCODING 8689
SWIDTH 727 0
DWIDTH 8 0
BBX 7 7 0 0
BITMAP
FE
80
BC
B0
A8
A4
82
ENDCHAR
STARTCHAR U+21F2
ENCODING 8690
SWIDTH 727 0
DWIDTH 8 0
BBX 7 7 0 0
BITMAP
82
4A
2A
1A
7A
02
FE
ENDCHAR
STARTCHAR U+21F7
ENCODING 8695
SWIDTH 727 0
DWIDTH 8 0
BBX 7 5 0 1
BITMAP
28
48
FE
48
28
ENDCHAR
STARTCHAR U+21F8
ENCODING 8696
SWIDTH 727 0
DWIDTH 8 0
BBX 7 5 0 1
BITMAP
28
24
FE
24
28
ENDCHAR
STARTCHAR U+21FD
ENCODING 8701
SWIDTH 727 0
DWIDTH 8 0
BBX 7 5 0 1
BITMAP
20
60
BE
60
20
ENDCHAR
STARTCHAR U+21FE
ENCODING 8702
SWIDTH 727 0
DWIDTH 8 0
BBX 7 5 0 1
BITMAP
08
0C
FA
0C
08
ENDCHAR
STARTCHAR U+21FF
ENCODING 8703
SWIDTH 727 0
DWIDTH 8 0
BBX 7 5 0 1
BITMAP
28
6C
BA
6C
28
ENDCHAR
STARTCHAR U+2200
ENCODING 8704
SWIDTH 727 0
DWIDTH 8 0
BBX 7 7 0 0
BITMAP
82
82
7C
44
28
28
10
ENDCHAR
STARTCHAR U+2202
ENCODING 8706
SWIDTH 727 0
DWIDTH 8 0
BBX 5 7 1 0
BITMAP
30
48
08
78
90
90
E0
ENDCHAR
STARTCHAR U+2203
ENCODING 8707
SWIDTH 727 0
DWIDTH 8 0
BBX 7 7 0 0
BITMAP
FE
02
02
FE
02
02
FE
ENDCHAR
STARTCHAR U+2205
ENCODING 8709
SWIDTH 727 0
DWIDTH 8 0
BBX 7 7 0 0
BITMAP
3A
44
8A
92
A2
44
B8
ENDCHAR
STARTCHAR U+2206
ENCODING 8710
SWIDTH 727 0
DWIDTH 8 0
BBX 7 7 0 0
BITMAP
10
28
28
44
44
82
FE
ENDCHAR
STARTCHAR U+2207
ENCODING 8711
SWIDTH 727 0
DWIDTH 8 0
BBX 7 7 0 0
BITMAP
FE
82
44
44
28
28
10
ENDCHAR
STARTCHAR U+2208
ENCODING 8712
SWIDTH 727 0
DWIDTH 8 0
BBX 7 7 0 0
BITMAP
3E
40
80
FE
80
40
3E
ENDCHAR
STARTCHAR U+220B
ENCODING 8715
SWIDTH 727 0
DWIDTH 8 0
BBX 7 7 0 0
BITMAP
F8
04
02
FE
02
04
F8
ENDCHAR
STARTCHAR U+220F
ENCODING 8719
SWIDTH 727 0
DWIDTH 8 0
BBX 5 7 1 0
BITMAP
F8
50
50
50
50
50
50
ENDCHAR
STARTCHAR U+2210
ENCODING 8720
SWIDTH 727 0
DWIDTH 8 0
BBX 5 7 1 0
BITMAP
50
50
50
50
50
50
F8
ENDCHAR
STARTCHAR U+2211
ENCODING 8721
SWIDTH 727 0
DWIDTH 8 0
BBX 5 7 1 0
BITMAP
F8
80
40
20
40
80
F8
ENDCHAR
STARTCHAR U+221A
ENCODING 8730
SWIDTH 727 0
DWIDTH 8 0
BBX 7 7 0 0
BITMAP
1E
10
10
20
20
A0
60
ENDCHAR
STARTCHAR U+221D
ENCODING 8733
SWIDTH 727 0
DWIDTH 8 0
BBX 7 5 0 1
BITMAP
66
98
88
98
66
ENDCHAR
STARTCHAR U+221E
ENCODING 8734
SWIDTH 727 0
DWIDTH 8 0
BBX 7 4 0 2
BITMAP
64
9A
B2
4C
ENDCHAR
STARTCHAR U+221F
ENCODING 8735
SWIDTH 727 0
DWIDTH 8 0
BBX 6 6 1 1
BITMAP
80
80
80
80
80
FC
ENDCHAR
STARTCHAR U+2220
ENCODING 8736
SWIDTH 727 0
DWIDTH 8 0
BBX 7 6 0 1
BITMAP
04
08
10
20
40
FE
ENDCHAR
STARTCHAR U+2223
ENCODING 8739
SWIDTH 727 0
DWIDTH 8 0
BBX 1 7 3 0
BITMAP
80
80
80
80
80
80
80
ENDCHAR
STARTCHAR U+2224
ENCODING 8740
SWIDTH 727 0
DWIDTH 8 0
BBX 5 7 1 0
BITMAP
20
28
30
20
60
A0
20
ENDCHAR
STARTCHAR U+2225
ENCODING 8741
SWIDTH 727 0
DWIDTH 8 0
BBX 3 7 2 0
BITMAP
A0
A0
A0
A0
A0
A0
A0
ENDCHAR
STARTCHAR U+2226
ENCODING 8742
SWIDTH 727 0
DWIDTH 8 0
BBX 5 7 1 0
BITMAP
50
50
58
70
D0
50
50
ENDCHAR
STARTCHAR U+2227
ENCODING 8743
SWIDTH 727 0
DWIDTH 8 0
BBX 7 7 0 0
BITMAP
10
10
28
28
44
44
82
ENDCHAR
STARTCHAR U+2228
ENCODING 8744
SWIDTH 727 0
DWIDTH 8 0
BBX 7 7 0 0
BITMAP
82
44
44
28
28
10
10
ENDCHAR
STARTCHAR U+2229
ENCODING 8745
SWIDTH 727 0
DWIDTH 8 0
BBX 6 7 0 0
BITMAP
84
84
84
84
84
48
30
ENDCHAR
STARTCHAR U+222A
ENCODING 8746
SWIDTH 727 0
DWIDTH 8 0
BBX 6 7 0 0
BITMAP
30
48
84
84
84
84
84
ENDCHAR
STARTCHAR U+222B
ENCODING 8747
SWIDTH 727 0
DWIDTH 8 0
BBX 3 7 2 0
BITMAP
40
A0
80
40
20
A0
40
ENDCHAR
STARTCHAR U+222C
ENCODING 8748
SWIDTH 727 0
DWIDTH 8 0
BBX 6 7 0 0
BITMAP
48
B4
90
48
24
B4
48
ENDCHAR
STARTCHAR U+222D
ENCODING 8749
SWIDTH 727 0
DWIDTH 8 0
BBX 7 7 0 0
BITMAP
54
AA
A8
54
2A
AA
54
ENDCHAR
STARTCHAR U+2234
ENCODING 8756
SWIDTH 727 0
DWIDTH 8 0
BBX 6 6 0 1
BITMAP
30
30
00
00
CC
CC
ENDCHAR
STARTCHAR U+2235
ENCODING 8757
SWIDTH 727 0
DWIDTH 8 0
BBX 6 6 0 1
BITMAP
CC
CC
00
00
30
30
ENDCHAR
STARTCHAR U+2236
ENCODING 8758
SWIDTH 727 0
DWIDTH 8 0
BBX 2 6 2 1
BITMAP
C0
C0
00
00
C0
C0
ENDCHAR
STARTCHAR U+2237
ENCODING 8759
SWIDTH 727 0
DWIDTH 8 0
BBX 6 6 0 1
BITMAP
CC
CC
00
00
CC
CC
ENDCHAR
STARTCHAR U+223D
ENCODING 8765
SWIDTH 727 0
DWIDTH 8 0
BBX 7 5 0 1
BITMAP
64
8A
92
A2
4C
ENDCHAR
STARTCHAR U+2252
ENCODING 8786
SWIDTH 727 0
DWIDTH 8 0
BBX 7 7 0 0
BITMAP
40
00
FE
00
FE
00
04
ENDCHAR
STARTCHAR U+2260
ENCODING 8800
SWIDTH 727 0
DWIDTH 8 0
BBX 7 5 0 1
BITMAP
08
FE
10
FE
20
ENDCHAR
STARTCHAR U+2261
ENCODING 8801
SWIDTH 727 0
DWIDTH 8 0
BBX 7 5 0 1
BITMAP
FE
00
FE
00
FE
ENDCHAR
STARTCHAR U+2264
ENCODING 8804
SWIDTH 727 0
DWIDTH 8 0
BBX 7 7 0 0
BITMAP
06
38
C0
38
06
00
FE
ENDCHAR
STARTCHAR U+2265
ENCODING 8805
SWIDTH 636 0
DWIDTH 7 0
BBX 7 7 0 0
BITMAP
C0
38
06
38
C0
00
FE
ENDCHAR
STARTCHAR U+2266
ENCODING 8806
SWIDTH 727 0
DWIDTH 8 0
BBX 7 7 0 0
BITMAP
1E
E0
18
06
FE
00
FE
ENDCHAR
STARTCHAR U+2267
ENCODING 8807
SWIDTH 727 0
DWIDTH 8 0
BBX 7 7 0 0
BITMAP
F0
0E
30
C0
FE
00
FE
ENDCHAR
STARTCHAR U+226A
ENCODING 8810
SWIDTH 727 0
DWIDTH 8 0
BBX 6 7 0 0
BITMAP
14
28
50
A0
50
28
14
ENDCHAR
STARTCHAR U+226B
ENCODING 8811
SWIDTH 727 0
DWIDTH 8 0
BBX 6 7 1 0
BITMAP
A0
50
28
14
28
50
A0
ENDCHAR
STARTCHAR U+2282
ENCODING 8834
SWIDTH 727 0
DWIDTH 8 0
BBX 7 6 0 1
BITMAP
3E
40
80
80
40
3E
ENDCHAR
STARTCHAR U+2283
ENCODING 8835
SWIDTH 727 0
DWIDTH 8 0
BBX 7 6 0 1
BITMAP
F8
04
02
02
04
F8
ENDCHAR
STARTCHAR U+2286
ENCODING 8838
SWIDTH 727 0
DWIDTH 8 0
BBX 7 7 0 0
BITMAP
7E
80
80
80
7E
00
FE
ENDCHAR
STARTCHAR U+2287
ENCODING 8839
SWIDTH 727 0
DWIDTH 8 0
BBX 7 7 0 0
BITMAP
FC
02
02
02
FC
00
FE
ENDCHAR
STARTCHAR U+22A5
ENCODING 8869
SWIDTH 727 0
DWIDTH 8 0
BBX 7 6 0 1
BITMAP
10
10
10
10
10
FE
ENDCHAR
STARTCHAR U+22BF
ENCODING 8895
SWIDTH 727 0
DWIDTH 8 0
BBX 6 6 0 1
BITMAP
04
0C
14
24
44
FC
ENDCHAR
STARTCHAR U+2460
ENCODING 9312
SWIDTH 727 0
DWIDTH 8 0
BBX 7 7 0 0
BITMAP
38
44
92
92
92
44
38
ENDCHAR
STARTCHAR U+2461
ENCODING 9313
SWIDTH 727 0
DWIDTH 8 0
BBX 7 7 0 0
BITMAP
38
44
BA
92
BA
44
38
ENDCHAR
STARTCHAR U+2462
ENCODING 9314
SWIDTH 727 0
DWIDTH 8 0
BBX 7 7 0 0
BITMAP
38
54
AA
92
AA
54
38
ENDCHAR
STARTCHAR U+2463
ENCODING 9315
SWIDTH 727 0
DWIDTH 8 0
BBX 7 7 0 0
BITMAP
38
44
9A
AA
BA
4C
38
ENDCHAR
STARTCHAR U+2464
ENCODING 9316
SWIDTH 727 0
DWIDTH 8 0
BBX 7 7 0 0
BITMAP
38
64
B2
8A
AA
54
38
ENDCHAR
STARTCHAR U+2465
ENCODING 9317
SWIDTH 727 0
DWIDTH 8 0
BBX 7 7 0 0
BITMAP
38
54
A2
B2
AA
54
38
ENDCHAR
STARTCHAR U+2466
ENCODING 9318
SWIDTH 727 0
DWIDTH 8 0
BBX 7 7 0 0
BITMAP
38
44
BA
8A
92
54
38
ENDCHAR
STARTCHAR U+2467
ENCODING 9319
SWIDTH 727 0
DWIDTH 8 0
BBX 7 7 0 0
BITMAP
38
54
AA
92
AA
54
38
ENDCHAR
STARTCHAR U+2468
ENCODING 9320
SWIDTH 727 0
DWIDTH 8 0
BBX 7 7 0 0
BITMAP
38
6C
AA
9A
8A
6C
38
ENDCHAR
STARTCHAR U+2469
ENCODING 9321
SWIDTH 727 0
DWIDTH 8 0
BBX 7 7 0 0
BITMAP
38
64
AA
AA
AA
64
38
ENDCHAR
STARTCHAR U+246A
ENCODING 9322
SWIDTH 727 0
DWIDTH 8 0
BBX 7 7 0 0
BITMAP
38
6C
AA
AA
AA
6C
38
ENDCHAR
STARTCHAR U+246B
ENCODING 9323
SWIDTH 727 0
DWIDTH 8 0
BBX 7 7 0 0
BITMAP
38
6C
B6
AA
B2
6C
38
ENDCHAR
STARTCHAR U+246C
ENCODING 9324
SWIDTH 727 0
DWIDTH 8 0
BBX 7 7 0 0
BITMAP
38
54
AA
B2
AA
54
38
ENDCHAR
STARTCHAR U+246D
ENCODING 9325
SWIDTH 727 0
DWIDTH 8 0
BBX 7 7 0 0
BITMAP
38
44
AA
BE
AA
4C
38
ENDCHAR
STARTCHAR U+246E
ENCODING 9326
SWIDTH 727 0
DWIDTH 8 0
BBX 7 7 0 0
BITMAP
38
44
AA
AA
A6
54
38
ENDCHAR
STARTCHAR U+246F
ENCODING 9327
SWIDTH 727 0
DWIDTH 8 0
BBX 7 7 0 0
BITMAP
38
44
AA
AE
AA
4C
38
ENDCHAR
STARTCHAR U+2470
ENCODING 9328
SWIDTH 727 0
DWIDTH 8 0
BBX 7 7 0 0
BITMAP
38
44
BE
AA
AA
44
38
ENDCHAR
STARTCHAR U+2471
ENCODING 9329
SWIDTH 727 0
DWIDTH 8 0
BBX 7 7 0 0
BITMAP
38
4C
B6
AA
B6
4C
38
ENDCHAR
STARTCHAR U+2472
ENCODING 9330
SWIDTH 727 0
DWIDTH 8 0
BBX 7 7 0 0
BITMAP
38
44
AA
AA
A6
54
38
ENDCHAR
STARTCHAR U+2473
ENCODING 9331
SWIDTH 727 0
DWIDTH 8 0
BBX 7 7 0 0
BITMAP
38
44
AA
AA
AA
44
38
ENDCHAR
STARTCHAR U+24EA
ENCODING 9450
SWIDTH 727 0
DWIDTH 8 0
BBX 7 7 0 0
BITMAP
38
44
92
AA
92
44
38
ENDCHAR
STARTCHAR U+24EB
ENCODING 9451
SWIDTH 727 0
DWIDTH 8 0
BBX 7 7 0 0
BITMAP
7C
D6
D6
D6
D6
D6
7C
ENDCHAR
STARTCHAR U+24EC
ENCODING 9452
SWIDTH 727 0
DWIDTH 8 0
BBX 7 7 0 0
BITMAP
7C
A6
BA
B6
AE
A2
7C
ENDCHAR
STARTCHAR U+24ED
ENCODING 9453
SWIDTH 727 0
DWIDTH 8 0
BBX 7 7 0 0
BITMAP
7C
A6
BA
A6
BA
A6
7C
ENDCHAR
STARTCHAR U+24EE
ENCODING 9454
SWIDTH 727 0
DWIDTH 8 0
BBX 7 7 0 0
BITMAP
7C
B2
AA
AA
A2
BA
7C
ENDCHAR
STARTCHAR U+24EF
ENCODING 9455
SWIDTH 727 0
DWIDTH 8 0
BBX 7 7 0 0
BITMAP
7C
A2
AE
A2
BA
A6
7C
ENDCHAR
STARTCHAR U+24F0
ENCODING 9456
SWIDTH 727 0
DWIDTH 8 0
BBX 7 7 0 0
BITMAP
7C
B2
AE
A2
AA
A6
7C
ENDCHAR
STARTCHAR U+24F1
ENCODING 9457
SWIDTH 727 0
DWIDTH 8 0
BBX 7 7 0 0
BITMAP
7C
A2
BA
B6
B6
B6
7C
ENDCHAR
STARTCHAR U+24F2
ENCODING 9458
SWIDTH 727 0
DWIDTH 8 0
BBX 7 7 0 0
BITMAP
7C
B2
AA
A2
AA
A6
7C
ENDCHAR
STARTCHAR U+24F3
ENCODING 9459
SWIDTH 727 0
DWIDTH 8 0
BBX 7 7 0 0
BITMAP
7C
B2
AA
A2
BA
A6
7C
ENDCHAR
STARTCHAR U+24F4
ENCODING 9460
SWIDTH 727 0
DWIDTH 8 0
BBX 7 7 0 0
BITMAP
7C
92
EA
CA
AA
86
7C
ENDCHAR
STARTCHAR U+24FF
ENCODING 9471
SWIDTH 727 0
DWIDTH 8 0
BBX 7 7 0 0
BITMAP
7C
E6
D6
D6
D6
CE
7C
ENDCHAR
STARTCHAR U+2500
ENCODING 9472
SWIDTH 727 0
DWIDTH 8 0
BBX 8 1 0 3
BITMAP
FF
ENDCHAR
STARTCHAR U+2501
ENCODING 9473
SWIDTH 727 0
DWIDTH 8 0
BBX 8 2 0 3
BITMAP
FF
FF
ENDCHAR
STARTCHAR U+2502
ENCODING 9474
SWIDTH 727 0
DWIDTH 8 0
BBX 1 8 3 0
BITMAP
80
80
80
80
80
80
80
80
ENDCHAR
STARTCHAR U+2503
ENCODING 9475
SWIDTH 727 0
DWIDTH 8 0
BBX 2 8 3 0
BITMAP
C0
C0
C0
C0
C0
C0
C0
C0
ENDCHAR
STARTCHAR U+2504
ENCODING 9476
SWIDTH 727 0
DWIDTH 8 0
BBX 7 1 0 3
BITMAP
D6
ENDCHAR
STARTCHAR U+2505
ENCODING 9477
SWIDTH 727 0
DWIDTH 8 0
BBX 7 2 0 3
BITMAP
D6
D6
ENDCHAR
STARTCHAR U+2506
ENCODING 9478
SWIDTH 727 0
DWIDTH 8 0
BBX 1 7 3 0
BITMAP
80
80
00
80
00
80
80
ENDCHAR
STARTCHAR U+2507
ENCODING 9479
SWIDTH 727 0
DWIDTH 8 0
BBX 2 7 3 0
BITMAP
C0
C0
00
C0
00
C0
C0
ENDCHAR
STARTCHAR U+2508
ENCODING 9480
SWIDTH 727 0
DWIDTH 8 0
BBX 7 1 0 3
BITMAP
AA
ENDCHAR
STARTCHAR U+2509
ENCODING 9481
SWIDTH 727 0
DWIDTH 8 0
BBX 7 2 0 3
BITMAP
AA
AA
ENDCHAR
STARTCHAR U+250A
ENCODING 9482
SWIDTH 727 0
DWIDTH 8 0
BBX 1 7 3 0
BITMAP
80
00
80
00
80
00
80
ENDCHAR
STARTCHAR U+250B
ENCODING 9483
SWIDTH 727 0
DWIDTH 8 0
BBX 2 7 3 0
BITMAP
C0
00
C0
00
C0
00
C0
ENDCHAR
STARTCHAR U+250C
ENCODING 9484
SWIDTH 727 0
DWIDTH 8 0
BBX 5 4 3 0
BITMAP
F8
80
80
80
ENDCHAR
STARTCHAR U+250D
ENCODING 9485
SWIDTH 727 0
DWIDTH 8 0
BBX 5 5 3 0
BITMAP
F8
F8
80
80
80
ENDCHAR
STARTCHAR U+250E
ENCODING 9486
SWIDTH 727 0
DWIDTH 8 0
BBX 5 4 3 0
BITMAP
F8
C0
C0
C0
ENDCHAR
STARTCHAR U+250F
ENCODING 9487
SWIDTH 727 0
DWIDTH 8 0
BBX 5 5 3 0
BITMAP
F8
F8
C0
C0
C0
ENDCHAR
STARTCHAR U+2510
ENCODING 9488
SWIDTH 727 0
DWIDTH 8 0
BBX 4 4 0 0
BITMAP
F0
10
10
10
ENDCHAR
STARTCHAR U+2511
ENCODING 9489
SWIDTH 727 0
DWIDTH 8 0
BBX 4 5 0 0
BITMAP
F0
F0
10
10
10
ENDCHAR
STARTCHAR U+2512
ENCODING 9490
SWIDTH 727 0
DWIDTH 8 0
BBX 5 4 0 0
BITMAP
F8
18
18
18
ENDCHAR
STARTCHAR U+2513
ENCODING 9491
SWIDTH 727 0
DWIDTH 8 0
BBX 5 5 0 0
BITMAP
F8
F8
18
18
18
ENDCHAR
STARTCHAR U+2514
ENCODING 9492
SWIDTH 727 0
DWIDTH 8 0
BBX 5 5 3 3
BITMAP
80
80
80
80
F8
ENDCHAR
STARTCHAR U+2515
ENCODING 9493
SWIDTH 727 0
DWIDTH 8 0
BBX 5 5 3 3
BITMAP
80
80
80
F8
F8
ENDCHAR
STARTCHAR U+2516
ENCODING 9494
SWIDTH 727 0
DWIDTH 8 0
BBX 5 5 3 3
BITMAP
C0
C0
C0
C0
F8
ENDCHAR
STARTCHAR U+2517
ENCODING 9495
SWIDTH 727 0
DWIDTH 8 0
BBX 5 5 3 3
BITMAP
C0
C0
C0
F8
F8
ENDCHAR
STARTCHAR U+2518
ENCODING 9496
SWIDTH 727 0
DWIDTH 8 0
BBX 4 5 0 3
BITMAP
10
10
10
10
F0
ENDCHAR
STARTCHAR U+2519
ENCODING 9497
SWIDTH 727 0
DWIDTH 8 0
BBX 4 5 0 3
BITMAP
10
10
10
F0
F0
ENDCHAR
STARTCHAR U+251A
ENCODING 9498
SWIDTH 727 0
DWIDTH 8 0
BBX 5 5 0 3
BITMAP
18
18
18
18
F8
ENDCHAR
STARTCHAR U+251B
ENCODING 9499
SWIDTH 727 0
DWIDTH 8 0
BBX 5 5 0 3
BITMAP
18
18
18
F8
F8
ENDCHAR
STARTCHAR U+251C
ENCODING 9500
SWIDTH 727 0
DWIDTH 8 0
BBX 5 8 3 0
BITMAP
80
80
80
80
F8
80
80
80
ENDCHAR
STARTCHAR U+251D
ENCODING 9501
SWIDTH 727 0
DWIDTH 8 0
BBX 5 8 3 0
BITMAP
80
80
80
F8
F8
80
80
80
ENDCHAR
STARTCHAR U+251E
ENCODING 9502
SWIDTH 727 0
DWIDTH 8 0
BBX 5 8 3 0
BITMAP
C0
C0
C0
C0
F8
80
80
80
ENDCHAR
STARTCHAR U+251F
ENCODING 9503
SWIDTH 727 0
DWIDTH 8 0
BBX 5 8 3 0
BITMAP
80
80
80
80
F8
C0
C0
C0
ENDCHAR
STARTCHAR U+2520
ENCODING 9504
SWIDTH 727 0
DWIDTH 8 0
BBX 5 8 3 0
BITMAP
C0
C0
C0
C0
F8
C0
C0
C0
ENDCHAR
STARTCHAR U+2521
ENCODING 9505
SWIDTH 727 0
DWIDTH 8 0
BBX 5 8 3 0
BITMAP
C0
C0
C0
F8
F8
80
80
80
ENDCHAR
STARTCHAR U+2522
ENCODING 9506
SWIDTH 727 0
DWIDTH 8 0
BBX 5 8 3 0
BITMAP
80
80
80
F8
F8
C0
C0
C0
ENDCHAR
STARTCHAR U+2523
ENCODING 9507
SWIDTH 727 0
DWIDTH 8 0
BBX 5 8 3 0
BITMAP
C0
C0
C0
F8
F8
C0
C0
C0
ENDCHAR
STARTCHAR U+2524
ENCODING 9508
SWIDTH 727 0
DWIDTH 8 0
BBX 4 8 0 0
BITMAP
10
10
10
10
F0
10
10
10
ENDCHAR
STARTCHAR U+2525
ENCODING 9509
SWIDTH 727 0
DWIDTH 8 0
BBX 4 8 0 0
BITMAP
10
10
10
F0
F0
10
10
10
ENDCHAR
STARTCHAR U+2526
ENCODING 9510
SWIDTH 727 0
DWIDTH 8 0
BBX 5 8 0 0
BITMAP
18
18
18
18
F8
10
10
10
ENDCHAR
STARTCHAR U+2527
ENCODING 9511
SWIDTH 727 0
DWIDTH 8 0
BBX 5 8 0 0
BITMAP
10
10
10
10
F8
18
18
18
ENDCHAR
STARTCHAR U+2528
ENCODING 9512
SWIDTH 727 0
DWIDTH 8 0
BBX 5 8 0 0
BITMAP
18
18
18
18
F8
18
18
18
ENDCHAR
STARTCHAR U+2529
ENCODING 9513
SWIDTH 727 0
DWIDTH 8 0
BBX 5 8 0 0
BITMAP
18
18
18
F8
F8
10
10
10
ENDCHAR
STARTCHAR U+252A
ENCODING 9514
SWIDTH 727 0
DWIDTH 8 0
BBX 5 8 0 0
BITMAP
10
10
10
F8
F8
18
18
18
ENDCHAR
STARTCHAR U+252B
ENCODING 9515
SWIDTH 727 0
DWIDTH 8 0
BBX 5 8 0 0
BITMAP
18
18
18
F8
F8
18
18
18
ENDCHAR
STARTCHAR U+252C
ENCODING 9516
SWIDTH 727 0
DWIDTH 8 0
BBX 8 4 0 0
BITMAP
FF
10
10
10
ENDCHAR
STARTCHAR U+252D
ENCODING 9517
SWIDTH 727 0
DWIDTH 8 0
BBX 8 5 0 0
BITMAP
F0
FF
10
10
10
ENDCHAR
STARTCHAR U+252E
ENCODING 9518
SWIDTH 727 0
DWIDTH 8 0
BBX 8 5 0 0
BITMAP
1F
FF
10
10
10
ENDCHAR
STARTCHAR U+252F
ENCODING 9519
SWIDTH 727 0
DWIDTH 8 0
BBX 8 5 0 0
BITMAP
FF
FF
10
10
10
ENDCHAR
STARTCHAR U+2530
ENCODING 9520
SWIDTH 727 0
DWIDTH 8 0
BBX 8 4 0 0
BITMAP
FF
18
18
18
ENDCHAR
STARTCHAR U+2531
ENCODING 9521
SWIDTH 727 0
DWIDTH 8 0
BBX 8 5 0 0
BITMAP
F8
FF
18
18
18
ENDCHAR
STARTCHAR U+2532
ENCODING 9522
SWIDTH 727 0
DWIDTH 8 0
BBX 8 5 0 0
BITMAP
1F
FF
18
18
18
ENDCHAR
STARTCHAR U+2533
ENCODING 9523
SWIDTH 727 0
DWIDTH 8 0
BBX 8 5 0 0
BITMAP
FF
FF
18
18
18
ENDCHAR
STARTCHAR U+2534
ENCODING 9524
SWIDTH 727 0
DWIDTH 8 0
BBX 8 5 0 3
BITMAP
10
10
10
10
FF
ENDCHAR
STARTCHAR U+2535
ENCODING 9525
SWIDTH 727 0
DWIDTH 8 0
BBX 8 5 0 3
BITMAP
10
10
10
F0
FF
ENDCHAR
STARTCHAR U+2536
ENCODING 9526
SWIDTH 727 0
DWIDTH 8 0
BBX 8 5 0 3
BITMAP
10
10
10
1F
FF
ENDCHAR
STARTCHAR U+2537
ENCODING 9527
SWIDTH 727 0
DWIDTH 8 0
BBX 8 5 0 3
BITMAP
10
10
10
FF
FF
ENDCHAR
STARTCHAR U+2538
ENCODING 9528
SWIDTH 727 0
DWIDTH 8 0
BBX 8 5 0 3
BITMAP
18
18
18
18
FF
ENDCHAR
STARTCHAR U+2539
ENCODING 9529
SWIDTH 727 0
DWIDTH 8 0
BBX 8 5 0 3
BITMAP
18
18
18
F8
FF
ENDCHAR
STARTCHAR U+253A
ENCODING 9530
SWIDTH 727 0
DWIDTH 8 0
BBX 8 5 0 3
BITMAP
18
18
18
1F
FF
ENDCHAR
STARTCHAR U+253B
ENCODING 9531
SWIDTH 727 0
DWIDTH 8 0
BBX 8 5 0 3
BITMAP
18
18
18
FF
FF
ENDCHAR
STARTCHAR U+253C
ENCODING 9532
SWIDTH 727 0
DWIDTH 8 0
BBX 8 8 0 0
BITMAP
10
10
10
10
FF
10
10
10
ENDCHAR
STARTCHAR U+253D
ENCODING 9533
SWIDTH 727 0
DWIDTH 8 0
BBX 8 8 0 0
BITMAP
10
10
10
F0
FF
10
10
10
ENDCHAR
STARTCHAR U+253E
ENCODING 9534
SWIDTH 727 0
DWIDTH 8 0
BBX 8 8 0 0
BITMAP
10
10
10
1F
FF
10
10
10
ENDCHAR
STARTCHAR U+253F
ENCODING 9535
SWIDTH 727 0
DWIDTH 8 0
BBX 8 8 0 0
BITMAP
10
10
10
FF
FF
10
10
10
ENDCHAR
STARTCHAR U+2540
ENCODING 9536
SWIDTH 727 0
DWIDTH 8 0
BBX 8 8 0 0
BITMAP
18
18
18
18
FF
10
10
10
ENDCHAR
STARTCHAR U+2541
ENCODING 9537
SWIDTH 727 0
DWIDTH 8 0
BBX 8 8 0 0
BITMAP
10
10
10
10
FF
18
18
18
ENDCHAR
STARTCHAR U+2542
ENCODING 9538
SWIDTH 727 0
DWIDTH 8 0
BBX 8 8 0 0
BITMAP
18
18
18
18
FF
18
18
18
ENDCHAR
STARTCHAR U+2543
ENCODING 9539
SWIDTH 727 0
DWIDTH 8 0
BBX 8 8 0 0
BITMAP
18
18
18
F8
FF
10
10
10
ENDCHAR
STARTCHAR U+2544
ENCODING 9540
SWIDTH 727 0
DWIDTH 8 0
BBX 8 8 0 0
BITMAP
18
18
18
1F
FF
10
10
10
ENDCHAR
STARTCHAR U+2545
ENCODING 9541
SWIDTH 727 0
DWIDTH 8 0
BBX 8 8 0 0
BITMAP
10
10
10
F8
FF
18
18
18
ENDCHAR
STARTCHAR U+2546
ENCODING 9542
SWIDTH 727 0
DWIDTH 8 0
BBX 8 8 0 0
BITMAP
10
10
10
1F
FF
18
18
18
ENDCHAR
STARTCHAR U+2547
ENCODING 9543
SWIDTH 727 0
DWIDTH 8 0
BBX 8 8 0 0
BITMAP
18
18
18
FF
FF
10
10
10
ENDCHAR
STARTCHAR U+2548
ENCODING 9544
SWIDTH 727 0
DWIDTH 8 0
BBX 8 8 0 0
BITMAP
10
10
10
FF
FF
18
18
18
ENDCHAR
STARTCHAR U+2549
ENCODING 9545
SWIDTH 727 0
DWIDTH 8 0
BBX 8 8 0 0
BITMAP
18
18
18
F8
FF
18
18
18
ENDCHAR
STARTCHAR U+254A
ENCODING 9546
SWIDTH 727 0
DWIDTH 8 0
BBX 8 8 0 0
BITMAP
18
18
18
1F
FF
18
18
18
ENDCHAR
STARTCHAR U+254B
ENCODING 9547
SWIDTH 727 0
DWIDTH 8 0
BBX 8 8 0 0
BITMAP
18
18
18
FF
FF
18
18
18
ENDCHAR
STARTCHAR U+254C
ENCODING 9548
SWIDTH 727 0
DWIDTH 8 0
BBX 7 1 0 3
BITMAP
EE
ENDCHAR
STARTCHAR U+254D
ENCODING 9549
SWIDTH 727 0
DWIDTH 8 0
BBX 7 2 0 3
BITMAP
EE
EE
ENDCHAR
STARTCHAR U+254E
ENCODING 9550
SWIDTH 727 0
DWIDTH 8 0
BBX 1 7 3 0
BITMAP
80
80
80
00
80
80
80
ENDCHAR
STARTCHAR U+254F
ENCODING 9551
SWIDTH 727 0
DWIDTH 8 0
BBX 2 7 3 0
BITMAP
C0
C0
C0
00
C0
C0
C0
ENDCHAR
STARTCHAR U+2550
ENCODING 9552
SWIDTH 727 0
DWIDTH 8 0
BBX 8 3 0 2
BITMAP
FF
00
FF
ENDCHAR
STARTCHAR U+2551
ENCODING 9553
SWIDTH 727 0
DWIDTH 8 0
BBX 3 8 2 0
BITMAP
A0
A0
A0
A0
A0
A0
A0
A0
ENDCHAR
STARTCHAR U+2552
ENCODING 9554
SWIDTH 727 0
DWIDTH 8 0
BBX 5 5 3 0
BITMAP
F8
80
F8
80
80
ENDCHAR
STARTCHAR U+2553
ENCODING 9555
SWIDTH 727 0
DWIDTH 8 0
BBX 6 4 2 0
BITMAP
FC
A0
A0
A0
ENDCHAR
STARTCHAR U+2554
ENCODING 9556
SWIDTH 727 0
DWIDTH 8 0
BBX 6 5 2 0
BITMAP
FC
80
BC
A0
A0
ENDCHAR
STARTCHAR U+2555
ENCODING 9557
SWIDTH 727 0
DWIDTH 8 0
BBX 4 5 0 0
BITMAP
F0
10
F0
10
10
ENDCHAR
STARTCHAR U+2556
ENCODING 9558
SWIDTH 727 0
DWIDTH 8 0
BBX 5 4 0 0
BITMAP
F8
28
28
28
ENDCHAR
STARTCHAR U+2557
ENCODING 9559
SWIDTH 727 0
DWIDTH 8 0
BBX 5 5 0 0
BITMAP
F8
08
E8
28
28
ENDCHAR
STARTCHAR U+2558
ENCODING 9560
SWIDTH 727 0
DWIDTH 8 0
BBX 5 6 3 2
BITMAP
80
80
80
F8
80
F8
ENDCHAR
STARTCHAR U+2559
ENCODING 9561
SWIDTH 727 0
DWIDTH 8 0
BBX 6 5 2 3
BITMAP
A0
A0
A0
A0
FC
ENDCHAR
STARTCHAR U+255A
ENCODING 9562
SWIDTH 727 0
DWIDTH 8 0
BBX 6 6 2 2
BITMAP
A0
A0
A0
BC
80
FC
ENDCHAR
STARTCHAR U+255B
ENCODING 9563
SWIDTH 727 0
DWIDTH 8 0
BBX 4 6 0 2
BITMAP
10
10
10
F0
10
F0
ENDCHAR
STARTCHAR U+255C
ENCODING 9564
SWIDTH 727 0
DWIDTH 8 0
BBX 5 5 0 3
BITMAP
28
28
28
28
F8
ENDCHAR
STARTCHAR U+255D
ENCODING 9565
SWIDTH 727 0
DWIDTH 8 0
BBX 5 6 0 2
BITMAP
28
28
28
E8
08
F8
ENDCHAR
STARTCHAR U+255E
ENCODING 9566
SWIDTH 727 0
DWIDTH 8 0
BBX 5 8 3 0
BITMAP
80
80
80
F8
80
F8
80
80
ENDCHAR
STARTCHAR U+255F
ENCODING 9567
SWIDTH 727 0
DWIDTH 8 0
BBX 6 8 2 0
BITMAP
A0
A0
A0
A0
BC
A0
A0
A0
ENDCHAR
STARTCHAR U+2560
ENCODING 9568
SWIDTH 727 0
DWIDTH 8 0
BBX 6 8 2 0
BITMAP
A0
A0
A0
BC
80
BC
A0
A0
ENDCHAR
STARTCHAR U+2561
ENCODING 9569
SWIDTH 727 0
DWIDTH 8 0
BBX 4 8 0 0
BITMAP
10
10
10
F0
10
F0
10
10
ENDCHAR
STARTCHAR U+2562
ENCODING 9570
SWIDTH 727 0
DWIDTH 8 0
BBX 5 8 0 0
BITMAP
28
28
28
28
E8
28
28
28
ENDCHAR
STARTCHAR U+2563
ENCODING 9571
SWIDTH 727 0
DWIDTH 8 0
BBX 5 8 0 0
BITMAP
28
28
28
E8
08
E8
28
28
ENDCHAR
STARTCHAR U+2564
ENCODING 9572
SWIDTH 727 0
DWIDTH 8 0
BBX 8 5 0 0
BITMAP
FF
00
FF
10
10
ENDCHAR
STARTCHAR U+2565
ENCODING 9573
SWIDTH 727 0
DWIDTH 8 0
BBX 8 4 0 0
BITMAP
FF
28
28
28
ENDCHAR
STARTCHAR U+2566
ENCODING 9574
SWIDTH 727 0
DWIDTH 8 0
BBX 8 5 0 0
BITMAP
FF
00
EF
28
28
ENDCHAR
STARTCHAR U+2567
ENCODING 9575
SWIDTH 727 0
DWIDTH 8 0
BBX 8 6 0 2
BITMAP
10
10
10
FF
00
FF
ENDCHAR
STARTCHAR U+2568
ENCODING 9576
SWIDTH 727 0
DWIDTH 8 0
BBX 8 5 0 3
BITMAP
28
28
28
28
FF
ENDCHAR
STARTCHAR U+2569
ENCODING 9577
SWIDTH 727 0
DWIDTH 8 0
BBX 8 6 0 2
BITMAP
28
28
28
EF
00
FF
ENDCHAR
STARTCHAR U+256A
ENCODING 9578
SWIDTH 727 0
DWIDTH 8 0
BBX 8 8 0 0
BITMAP
10
10
10
FF
10
FF
10
10
ENDCHAR
STARTCHAR U+256B
ENCODING 9579
SWIDTH 727 0
DWIDTH 8 0
BBX 8 8 0 0
BITMAP
28
28
28
28
FF
28
28
28
ENDCHAR
STARTCHAR U+256C
ENCODING 9580
SWIDTH 727 0
DWIDTH 8 0
BBX 8 8 0 0
BITMAP
28
28
28
EF
00
EF
28
28
ENDCHAR
STARTCHAR U+256D
ENCODING 9581
SWIDTH 727 0
DWIDTH 8 0
BBX 5 4 3 0
BITMAP
38
40
80
80
ENDCHAR
STARTCHAR U+256E
ENCODING 9582
SWIDTH 727 0
DWIDTH 8 0
BBX 4 4 0 0
BITMAP
C0
20
10
10
ENDCHAR
STARTCHAR U+256F
ENCODING 9583
SWIDTH 727 0
DWIDTH 8 0
BBX 4 5 0 3
BITMAP
10
10
10
20
C0
ENDCHAR
STARTCHAR U+2570
ENCODING 9584
SWIDTH 727 0
DWIDTH 8 0
BBX 5 5 3 3
BITMAP
80
80
80
40
38
ENDCHAR
STARTCHAR U+2571
ENCODING 9585
SWIDTH 727 0
DWIDTH 8 0
BBX 8 8 0 0
BITMAP
01
02
04
08
10
20
40
80
ENDCHAR
STARTCHAR U+2572
ENCODING 9586
SWIDTH 727 0
DWIDTH 8 0
BBX 7 7 0 0
BITMAP
80
40
20
10
08
04
02
ENDCHAR
STARTCHAR U+2573
ENCODING 9587
SWIDTH 727 0
DWIDTH 8 0
BBX 8 8 0 0
BITMAP
01
82
44
28
10
28
44
82
ENDCHAR
STARTCHAR U+2574
ENCODING 9588
SWIDTH 727 0
DWIDTH 8 0
BBX 4 1 0 3
BITMAP
F0
ENDCHAR
STARTCHAR U+2575
ENCODING 9589
SWIDTH 727 0
DWIDTH 8 0
BBX 1 5 3 3
BITMAP
80
80
80
80
80
ENDCHAR
STARTCHAR U+2576
ENCODING 9590
SWIDTH 727 0
DWIDTH 8 0
BBX 5 1 3 3
BITMAP
F8
ENDCHAR
STARTCHAR U+2577
ENCODING 9591
SWIDTH 727 0
DWIDTH 8 0
BBX 1 4 3 0
BITMAP
80
80
80
80
ENDCHAR
STARTCHAR U+2578
ENCODING 9592
SWIDTH 727 0
DWIDTH 8 0
BBX 4 2 0 3
BITMAP
F0
F0
ENDCHAR
STARTCHAR U+2579
ENCODING 9593
SWIDTH 727 0
DWIDTH 8 0
BBX 2 5 3 3
BITMAP
C0
C0
C0
C0
C0
ENDCHAR
STARTCHAR U+257A
ENCODING 9594
SWIDTH 727 0
DWIDTH 8 0
BBX 5 2 3 3
BITMAP
F8
F8
ENDCHAR
STARTCHAR U+257B
ENCODING 9595
SWIDTH 727 0
DWIDTH 8 0
BBX 2 4 3 0
BITMAP
C0
C0
C0
C0
ENDCHAR
STARTCHAR U+257C
ENCODING 9596
SWIDTH 727 0
DWIDTH 8 0
BBX 8 2 0 3
BITMAP
1F
FF
ENDCHAR
STARTCHAR U+257D
ENCODING 9597
SWIDTH 727 0
DWIDTH 8 0
BBX 2 8 3 0
BITMAP
80
80
80
80
C0
C0
C0
C0
ENDCHAR
STARTCHAR U+257E
ENCODING 9598
SWIDTH 727 0
DWIDTH 8 0
BBX 8 2 0 3
BITMAP
F0
FF
ENDCHAR
STARTCHAR U+257F
ENCODING 9599
SWIDTH 727 0
DWIDTH 8 0
BBX 2 8 3 0
BITMAP
C0
C0
C0
C0
C0
80
80
80
ENDCHAR
STARTCHAR U+2580
ENCODING 9600
SWIDTH 727 0
DWIDTH 8 0
BBX 8 4 0 4
BITMAP
FF
FF
FF
FF
ENDCHAR
STARTCHAR U+2581
ENCODING 9601
SWIDTH 727 0
DWIDTH 8 0
BBX 8 1 0 0
BITMAP
FF
ENDCHAR
STARTCHAR U+2582
ENCODING 9602
SWIDTH 727 0
DWIDTH 8 0
BBX 8 2 0 0
BITMAP
FF
FF
ENDCHAR
STARTCHAR U+2583
ENCODING 9603
SWIDTH 727 0
DWIDTH 8 0
BBX 8 3 0 0
BITMAP
FF
FF
FF
ENDCHAR
STARTCHAR U+2584
ENCODING 9604
SWIDTH 727 0
DWIDTH 8 0
BBX 8 4 0 0
BITMAP
FF
FF
FF
FF
ENDCHAR
STARTCHAR U+2585
ENCODING 9605
SWIDTH 727 0
DWIDTH 8 0
BBX 8 5 0 0
BITMAP
FF
FF
FF
FF
FF
ENDCHAR
STARTCHAR U+2586
ENCODING 9606
SWIDTH 727 0
DWIDTH 8 0
BBX 8 6 0 0
BITMAP
FF
FF
FF
FF
FF
FF
ENDCHAR
STARTCHAR U+2587
ENCODING 9607
SWIDTH 727 0
DWIDTH 8 0
BBX 8 7 0 0
BITMAP
FF
FF
FF
FF
FF
FF
FF
ENDCHAR
STARTCHAR U+2588
ENCODING 9608
SWIDTH 727 0
DWIDTH 8 0
BBX 8 8 0 0
BITMAP
FF
FF
FF
FF
FF
FF
FF
FF
ENDCHAR
STARTCHAR U+2589
ENCODING 9609
SWIDTH 727 0
DWIDTH 8 0
BBX 7 8 0 0
BITMAP
FE
FE
FE
FE
FE
FE
FE
FE
ENDCHAR
STARTCHAR U+258A
ENCODING 9610
SWIDTH 727 0
DWIDTH 8 0
BBX 6 8 0 0
BITMAP
FC
FC
FC
FC
FC
FC
FC
FC
ENDCHAR
STARTCHAR U+258B
ENCODING 9611
SWIDTH 727 0
DWIDTH 8 0
BBX 5 8 0 0
BITMAP
F8
F8
F8
F8
F8
F8
F8
F8
ENDCHAR
STARTCHAR U+258C
ENCODING 9612
SWIDTH 727 0
DWIDTH 8 0
BBX 4 8 0 0
BITMAP
F0
F0
F0
F0
F0
F0
F0
F0
ENDCHAR
STARTCHAR U+258D
ENCODING 9613
SWIDTH 727 0
DWIDTH 8 0
BBX 3 8 0 0
BITMAP
E0
E0
E0
E0
E0
E0
E0
E0
ENDCHAR
STARTCHAR U+258E
ENCODING 9614
SWIDTH 727 0
DWIDTH 8 0
BBX 2 8 0 0
BITMAP
C0
C0
C0
C0
C0
C0
C0
C0
ENDCHAR
STARTCHAR U+258F
ENCODING 9615
SWIDTH 727 0
DWIDTH 8 0
BBX 1 8 0 0
BITMAP
80
80
80
80
80
80
80
80
ENDCHAR
STARTCHAR U+2590
ENCODING 9616
SWIDTH 727 0
DWIDTH 8 0
BBX 4 8 4 0
BITMAP
F0
F0
F0
F0
F0
F0
F0
F0
ENDCHAR
STARTCHAR U+2591
ENCODING 9617
SWIDTH 727 0
DWIDTH 8 0
BBX 7 7 0 1
BITMAP
AA
00
AA
00
AA
00
AA
ENDCHAR
STARTCHAR U+2592
ENCODING 9618
SWIDTH 727 0
DWIDTH 8 0
BBX 8 8 0 0
BITMAP
AA
55
AA
55
AA
55
AA
55
ENDCHAR
STARTCHAR U+2593
ENCODING 9619
SWIDTH 727 0
DWIDTH 8 0
BBX 8 8 0 0
BITMAP
AA
FF
AA
FF
AA
FF
AA
FF
ENDCHAR
STARTCHAR U+2594
ENCODING 9620
SWIDTH 727 0
DWIDTH 8 0
BBX 8 1 0 7
BITMAP
FF
ENDCHAR
STARTCHAR U+2595
ENCODING 9621
SWIDTH 727 0
DWIDTH 8 0
BBX 1 8 7 0
BITMAP
80
80
80
80
80
80
80
80
ENDCHAR
STARTCHAR U+2596
ENCODING 9622
SWIDTH 727 0
DWIDTH 8 0
BBX 4 4 0 0
BITMAP
F0
F0
F0
F0
ENDCHAR
STARTCHAR U+2597
ENCODING 9623
SWIDTH 727 0
DWIDTH 8 0
BBX 4 4 4 0
BITMAP
F0
F0
F0
F0
ENDCHAR
STARTCHAR U+2598
ENCODING 9624
SWIDTH 727 0
DWIDTH 8 0
BBX 4 4 0 4
BITMAP
F0
F0
F0
F0
ENDCHAR
STARTCHAR U+2599
ENCODING 9625
SWIDTH 727 0
DWIDTH 8 0
BBX 8 8 0 0
BITMAP
F0
F0
F0
F0
FF
FF
FF
FF
ENDCHAR
STARTCHAR U+259A
ENCODING 9626
SWIDTH 727 0
DWIDTH 8 0
BBX 8 8 0 0
BITMAP
F0
F0
F0
F0
0F
0F
0F
0F
ENDCHAR
STARTCHAR U+259B
ENCODING 9627
SWIDTH 727 0
DWIDTH 8 0
BBX 8 8 0 0
BITMAP
FF
FF
FF
FF
F0
F0
F0
F0
ENDCHAR
STARTCHAR U+259C
ENCODING 9628
SWIDTH 727 0
DWIDTH 8 0
BBX 8 8 0 0
BITMAP
FF
FF
FF
FF
0F
0F
0F
0F
ENDCHAR
STARTCHAR U+259D
ENCODING 9629
SWIDTH 727 0
DWIDTH 8 0
BBX 4 4 4 4
BITMAP
F0
F0
F0
F0
ENDCHAR
STARTCHAR U+259E
ENCODING 9630
SWIDTH 727 0
DWIDTH 8 0
BBX 8 8 0 0
BITMAP
0F
0F
0F
0F
F0
F0
F0
F0
ENDCHAR
STARTCHAR U+259F
ENCODING 9631
SWIDTH 727 0
DWIDTH 8 0
BBX 8 8 0 0
BITMAP
0F
0F
0F
0F
FF
FF
FF
FF
ENDCHAR
STARTCHAR U+25A0
ENCODING 9632
SWIDTH 727 0
DWIDTH 8 0
BBX 7 7 0 0
BITMAP
FE
FE
FE
FE
FE
FE
FE
ENDCHAR
STARTCHAR U+25A1
ENCODING 9633
SWIDTH 727 0
DWIDTH 8 0
BBX 7 7 0 0
BITMAP
FE
82
82
82
82
82
FE
ENDCHAR
STARTCHAR U+25A2
ENCODING 9634
SWIDTH 727 0
DWIDTH 8 0
BBX 7 7 0 0
BITMAP
7C
82
82
82
82
82
7C
ENDCHAR
STARTCHAR U+25A3
ENCODING 9635
SWIDTH 727 0
DWIDTH 8 0
BBX 7 7 0 0
BITMAP
FE
82
BA
BA
BA
82
FE
ENDCHAR
STARTCHAR U+25A4
ENCODING 9636
SWIDTH 727 0
DWIDTH 8 0
BBX 7 7 0 0
BITMAP
FE
82
FE
82
FE
82
FE
ENDCHAR
STARTCHAR U+25A5
ENCODING 9637
SWIDTH 727 0
DWIDTH 8 0
BBX 7 7 0 0
BITMAP
FE
AA
AA
AA
AA
AA
FE
ENDCHAR
STARTCHAR U+25A6
ENCODING 9638
SWIDTH 727 0
DWIDTH 8 0
BBX 7 7 0 0
BITMAP
FE
AA
FE
AA
FE
AA
FE
ENDCHAR
STARTCHAR U+25A7
ENCODING 9639
SWIDTH 727 0
DWIDTH 8 0
BBX 7 7 0 0
BITMAP
FE
CA
A6
92
CA
A6
FE
ENDCHAR
STARTCHAR U+25A8
ENCODING 9640
SWIDTH 727 0
DWIDTH 8 0
BBX 7 7 0 0
BITMAP
FE
A6
CA
92
A6
CA
FE
ENDCHAR
STARTCHAR U+25A9
ENCODING 9641
SWIDTH 727 0
DWIDTH 8 0
BBX 7 7 0 0
BITMAP
FE
D6
AA
D6
AA
D6
FE
ENDCHAR
STARTCHAR U+25AA
ENCODING 9642
SWIDTH 727 0
DWIDTH 8 0
BBX 3 3 2 2
BITMAP
E0
E0
E0
ENDCHAR
STARTCHAR U+25AB
ENCODING 9643
SWIDTH 727 0
DWIDTH 8 0
BBX 3 3 2 2
BITMAP
E0
A0
E0
ENDCHAR
STARTCHAR U+25AC
ENCODING 9644
SWIDTH 727 0
DWIDTH 8 0
BBX 7 4 0 1
BITMAP
FE
FE
FE
FE
ENDCHAR
STARTCHAR U+25AD
ENCODING 9645
SWIDTH 727 0
DWIDTH 8 0
BBX 7 4 0 1
BITMAP
FE
82
82
FE
ENDCHAR
STARTCHAR U+25AE
ENCODING 9646
SWIDTH 727 0
DWIDTH 8 0
BBX 4 7 1 0
BITMAP
F0
F0
F0
F0
F0
F0
F0
ENDCHAR
STARTCHAR U+25AF
ENCODING 9647
SWIDTH 727 0
DWIDTH 8 0
BBX 4 7 1 0
BITMAP
F0
90
90
90
90
90
F0
ENDCHAR
STARTCHAR U+25B2
ENCODING 9650
SWIDTH 727 0
DWIDTH 8 0
BBX 7 7 0 0
BITMAP
10
38
38
7C
7C
FE
FE
ENDCHAR
STARTCHAR U+25B3
ENCODING 9651
SWIDTH 727 0
DWIDTH 8 0
BBX 7 7 0 0
BITMAP
10
28
28
44
44
82
FE
ENDCHAR
STARTCHAR U+25B6
ENCODING 9654
SWIDTH 727 0
DWIDTH 8 0
BBX 7 7 0 0
BITMAP
C0
F0
FC
FE
FC
F0
C0
ENDCHAR
STARTCHAR U+25B7
ENCODING 9655
SWIDTH 727 0
DWIDTH 8 0
BBX 7 7 0 0
BITMAP
C0
B0
8C
82
8C
B0
C0
ENDCHAR
STARTCHAR U+25BC
ENCODING 9660
SWIDTH 727 0
DWIDTH 8 0
BBX 7 7 0 0
BITMAP
FE
FE
7C
7C
38
38
10
ENDCHAR
STARTCHAR U+25BD
ENCODING 9661
SWIDTH 727 0
DWIDTH 8 0
BBX 7 7 0 0
BITMAP
FE
82
44
44
28
28
10
ENDCHAR
STARTCHAR U+25C0
ENCODING 9664
SWIDTH 727 0
DWIDTH 8 0
BBX 7 7 0 0
BITMAP
06
1E
7E
FE
7E
1E
06
ENDCHAR
STARTCHAR U+25C1
ENCODING 9665
SWIDTH 727 0
DWIDTH 8 0
BBX 7 7 0 0
BITMAP
06
1A
62
82
62
1A
06
ENDCHAR
STARTCHAR U+25C6
ENCODING 9670
SWIDTH 727 0
DWIDTH 8 0
BBX 7 7 0 0
BITMAP
10
38
7C
FE
7C
38
10
ENDCHAR
STARTCHAR U+25C7
ENCODING 9671
SWIDTH 727 0
DWIDTH 8 0
BBX 7 7 0 0
BITMAP
10
28
44
82
44
28
10
ENDCHAR
STARTCHAR U+25C8
ENCODING 9672
SWIDTH 727 0
DWIDTH 8 0
BBX 7 7 0 0
BITMAP
10
28
54
BA
54
28
10
ENDCHAR
STARTCHAR U+25C9
ENCODING 9673
SWIDTH 727 0
DWIDTH 8 0
BBX 7 7 0 0
BITMAP
38
44
BA
BA
BA
44
38
ENDCHAR
STARTCHAR U+25CA
ENCODING 9674
SWIDTH 727 0
DWIDTH 8 0
BBX 7 7 0 0
BITMAP
10
28
44
82
44
28
10
ENDCHAR
STARTCHAR U+25CB
ENCODING 9675
SWIDTH 727 0
DWIDTH 8 0
BBX 7 7 0 0
BITMAP
38
44
82
82
82
44
38
ENDCHAR
STARTCHAR U+25CC
ENCODING 9676
SWIDTH 727 0
DWIDTH 8 0
BBX 7 7 0 0
BITMAP
10
44
00
82
00
44
10
ENDCHAR
STARTCHAR U+25CD
ENCODING 9677
SWIDTH 727 0
DWIDTH 8 0
BBX 7 7 0 0
BITMAP
38
6C
AA
AA
AA
6C
38
ENDCHAR
STARTCHAR U+25CE
ENCODING 9678
SWIDTH 727 0
DWIDTH 8 0
BBX 7 7 0 0
BITMAP
38
44
92
AA
92
44
38
ENDCHAR
STARTCHAR U+25CF
ENCODING 9679
SWIDTH 727 0
DWIDTH 8 0
BBX 7 7 0 0
BITMAP
38
7C
FE
FE
FE
7C
38
ENDCHAR
STARTCHAR U+25D0
ENCODING 9680
SWIDTH 727 0
DWIDTH 8 0
BBX 7 7 0 0
BITMAP
38
64
E2
E2
E2
64
38
ENDCHAR
STARTCHAR U+25D1
ENCODING 9681
SWIDTH 727 0
DWIDTH 8 0
BBX 7 7 0 0
BITMAP
38
4C
8E
8E
8E
4C
38
ENDCHAR
STARTCHAR U+25D2
ENCODING 9682
SWIDTH 727 0
DWIDTH 8 0
BBX 7 7 0 0
BITMAP
38
44
82
82
FE
7C
38
ENDCHAR
STARTCHAR U+25D3
ENCODING 9683
SWIDTH 727 0
DWIDTH 8 0
BBX 7 7 0 0
BITMAP
38
7C
FE
82
82
44
38
ENDCHAR
STARTCHAR U+25D4
ENCODING 9684
SWIDTH 727 0
DWIDTH 8 0
BBX 7 7 0 0
BITMAP
38
5C
9E
9E
82
44
38
ENDCHAR
STARTCHAR U+25D5
ENCODING 9685
SWIDTH 727 0
DWIDTH 8 0
BBX 7 7 0 0
BITMAP
38
4C
8E
8E
FE
7C
38
ENDCHAR
STARTCHAR U+25D6
ENCODING 9686
SWIDTH 727 0
DWIDTH 8 0
BBX 4 7 0 0
BITMAP
30
70
F0
F0
F0
70
30
ENDCHAR
STARTCHAR U+25D7
ENCODING 9687
SWIDTH 727 0
DWIDTH 8 0
BBX 4 7 3 0
BITMAP
C0
E0
F0
F0
F0
E0
C0
ENDCHAR
STARTCHAR U+25D8
ENCODING 9688
SWIDTH 727 0
DWIDTH 8 0
BBX 7 7 0 0
BITMAP
FE
C6
82
82
82
C6
FE
ENDCHAR
STARTCHAR U+25D9
ENCODING 9689
SWIDTH 727 0
DWIDTH 8 0
BBX 7 7 0 0
BITMAP
FE
C6
BA
BA
BA
C6
FE
ENDCHAR
STARTCHAR U+25DA
ENCODING 9690
SWIDTH 727 0
DWIDTH 8 0
BBX 7 4 0 3
BITMAP
FE
C6
BA
BA
ENDCHAR
STARTCHAR U+25DB
ENCODING 9691
SWIDTH 727 0
DWIDTH 8 0
BBX 7 4 0 0
BITMAP
BA
BA
C6
FE
ENDCHAR
STARTCHAR U+25DC
ENCODING 9692
SWIDTH 727 0
DWIDTH 8 0
BBX 4 4 0 3
BITMAP
30
40
80
80
ENDCHAR
STARTCHAR U+25DD
ENCODING 9693
SWIDTH 727 0
DWIDTH 8 0
BBX 4 4 3 3
BITMAP
C0
20
10
10
ENDCHAR
STARTCHAR U+25DE
ENCODING 9694
SWIDTH 727 0
DWIDTH 8 0
BBX 4 4 3 0
BITMAP
10
10
20
C0
ENDCHAR
STARTCHAR U+25DF
ENCODING 9695
SWIDTH 727 0
DWIDTH 8 0
BBX 4 4 0 0
BITMAP
80
80
40
30
ENDCHAR
STARTCHAR U+25E0
ENCODING 9696
SWIDTH 727 0
DWIDTH 8 0
BBX 7 4 0 3
BITMAP
38
44
82
82
ENDCHAR
STARTCHAR U+25E1
ENCODING 9697
SWIDTH 727 0
DWIDTH 8 0
BBX 7 4 0 0
BITMAP
82
82
44
38
ENDCHAR
STARTCHAR U+25E2
ENCODING 9698
SWIDTH 727 0
DWIDTH 8 0
BBX 7 7 0 0
BITMAP
02
06
0E
1E
3E
7E
FE
ENDCHAR
STARTCHAR U+25E3
ENCODING 9699
SWIDTH 727 0
DWIDTH 8 0
BBX 7 7 0 0
BITMAP
80
C0
E0
F0
F8
FC
FE
ENDCHAR
STARTCHAR U+25E4
ENCODING 9700
SWIDTH 727 0
DWIDTH 8 0
BBX 7 7 0 0
BITMAP
FE
FC
F8
F0
E0
C0
80
ENDCHAR
STARTCHAR U+25E5
ENCODING 9701
SWIDTH 727 0
DWIDTH 8 0
BBX 7 7 0 0
BITMAP
FE
7E
3E
1E
0E
06
02
ENDCHAR
STARTCHAR U+25E6
ENCODING 9702
SWIDTH 454 0
DWIDTH 5 0
BBX 4 4 0 2
BITMAP
60
90
90
60
ENDCHAR
STARTCHAR U+25E7
ENCODING 9703
SWIDTH 727 0
DWIDTH 8 0
BBX 7 7 0 0
BITMAP
FE
E2
E2
E2
E2
E2
FE
ENDCHAR
STARTCHAR U+25E8
ENCODING 9704
SWIDTH 727 0
DWIDTH 8 0
BBX 7 7 0 0
BITMAP
FE
8E
8E
8E
8E
8E
FE
ENDCHAR
STARTCHAR U+25E9
ENCODING 9705
SWIDTH 727 0
DWIDTH 8 0
BBX 7 7 0 0
BITMAP
FE
FA
F2
E2
C2
82
FE
ENDCHAR
STARTCHAR U+25EA
ENCODING 9706
SWIDTH 727 0
DWIDTH 8 0
BBX 7 7 0 0
BITMAP
FE
82
86
8E
9E
BE
FE
ENDCHAR
STARTCHAR U+25EB
ENCODING 9707
SWIDTH 727 0
DWIDTH 8 0
BBX 7 7 0 0
BITMAP
FE
92
92
92
92
92
FE
ENDCHAR
STARTCHAR U+25EC
ENCODING 9708
SWIDTH 727 0
DWIDTH 8 0
BBX 7 7 0 0
BITMAP
10
28
28
44
54
82
FE
ENDCHAR
STARTCHAR U+25ED
ENCODING 9709
SWIDTH 727 0
DWIDTH 8 0
BBX 7 7 0 0
BITMAP
10
28
28
64
64
E2
FE
ENDCHAR
STARTCHAR U+25EE
ENCODING 9710
SWIDTH 727 0
DWIDTH 8 0
BBX 7 7 0 0
BITMAP
10
28
28
4C
4C
8E
FE
ENDCHAR
STARTCHAR U+25EF
ENCODING 9711
SWIDTH 727 0
DWIDTH 8 0
BBX 7 7 0 0
BITMAP
38
44
82
82
82
44
38
ENDCHAR
STARTCHAR U+25F0
ENCODING 9712
SWIDTH 727 0
DWIDTH 8 0
BBX 7 7 0 0
BITMAP
FE
92
92
F2
82
82
FE
ENDCHAR
STARTCHAR U+25F1
ENCODING 9713
SWIDTH 727 0
DWIDTH 8 0
BBX 7 7 0 0
BITMAP
FE
82
82
F2
92
92
FE
ENDCHAR
STARTCHAR U+25F2
ENCODING 9714
SWIDTH 727 0
DWIDTH 8 0
BBX 7 7 0 0
BITMAP
FE
82
82
9E
92
92
FE
ENDCHAR
STARTCHAR U+25F3
ENCODING 9715
SWIDTH 727 0
DWIDTH 8 0
BBX 7 7 0 0
BITMAP
FE
92
92
9E
82
82
FE
ENDCHAR
STARTCHAR U+25F4
ENCODING 9716
SWIDTH 727 0
DWIDTH 8 0
BBX 7 7 0 0
BITMAP
38
54
92
F2
82
44
38
ENDCHAR
STARTCHAR U+25F5
ENCODING 9717
SWIDTH 727 0
DWIDTH 8 0
BBX 7 7 0 0
BITMAP
38
44
82
F2
92
54
38
ENDCHAR
STARTCHAR U+25F6
ENCODING 9718
SWIDTH 727 0
DWIDTH 8 0
BBX 7 7 0 0
BITMAP
38
44
82
9E
92
54
38
ENDCHAR
STARTCHAR U+25F7
ENCODING 9719
SWIDTH 727 0
DWIDTH 8 0
BBX 7 7 0 0
BITMAP
38
54
92
9E
82
44
38
ENDCHAR
STARTCHAR U+25F8
ENCODING 9720
SWIDTH 727 0
DWIDTH 8 0
BBX 7 7 0 0
BITMAP
FE
84
88
90
A0
C0
80
ENDCHAR
STARTCHAR U+25F9
ENCODING 9721
SWIDTH 727 0
DWIDTH 8 0
BBX 7 7 0 0
BITMAP
FE
42
22
12
0A
06
02
ENDCHAR
STARTCHAR U+25FA
ENCODING 9722
SWIDTH 727 0
DWIDTH 8 0
BBX 7 7 0 0
BITMAP
80
C0
A0
90
88
84
FE
ENDCHAR
STARTCHAR U+25FB
ENCODING 9723
SWIDTH 727 0
DWIDTH 8 0
BBX 5 5 1 1
BITMAP
F8
88
88
88
F8
ENDCHAR
STARTCHAR U+25FC
ENCODING 9724
SWIDTH 727 0
DWIDTH 8 0
BBX 5 5 1 1
BITMAP
F8
F8
F8
F8
F8
ENDCHAR
STARTCHAR U+25FD
ENCODING 9725
SWIDTH 727 0
DWIDTH 8 0
BBX 4 4 1 1
BITMAP
F0
90
90
F0
ENDCHAR
STARTCHAR U+25FE
ENCODING 9726
SWIDTH 727 0
DWIDTH 8 0
BBX 4 4 1 1
BITMAP
F0
F0
F0
F0
ENDCHAR
STARTCHAR U+25FF
ENCODING 9727
SWIDTH 727 0
DWIDTH 8 0
BBX 7 7 0 0
BITMAP
02
06
0A
12
22
42
FE
ENDCHAR
STARTCHAR U+2600
ENCODING 9728
SWIDTH 727 0
DWIDTH 8 0
BBX 7 7 0 0
BITMAP
10
44
38
BA
38
44
10
ENDCHAR
STARTCHAR U+2601
ENCODING 9729
SWIDTH 727 0
DWIDTH 8 0
BBX 7 6 0 1
BITMAP
30
4C
82
82
92
6C
ENDCHAR
STARTCHAR U+2602
ENCODING 9730
SWIDTH 727 0
DWIDTH 8 0
BBX 7 7 0 0
BITMAP
10
7C
FE
10
10
14
08
ENDCHAR
STARTCHAR U+2603
ENCODING 9731
SWIDTH 727 0
DWIDTH 8 0
BBX 7 7 0 0
BITMAP
38
44
6C
82
82
44
38
ENDCHAR
STARTCHAR U+2605
ENCODING 9733
SWIDTH 727 0
DWIDTH 8 0
BBX 7 7 0 0
BITMAP
10
10
FE
7C
38
28
44
ENDCHAR
STARTCHAR U+2606
ENCODING 9734
SWIDTH 727 0
DWIDTH 8 0
BBX 7 7 0 0
BITMAP
10
10
EE
44
38
28
44
ENDCHAR
STARTCHAR U+2610
ENCODING 9744
SWIDTH 727 0
DWIDTH 8 0
BBX 7 7 0 0
BITMAP
FE
82
82
82
82
82
FE
ENDCHAR
STARTCHAR U+2611
ENCODING 9745
SWIDTH 727 0
DWIDTH 8 0
BBX 7 7 0 0
BITMAP
FE
82
86
AA
92
82
FE
ENDCHAR
STARTCHAR U+2612
ENCODING 9746
SWIDTH 727 0
DWIDTH 8 0
BBX 7 7 0 0
BITMAP
FE
82
AA
92
AA
82
FE
ENDCHAR
STARTCHAR U+262E
ENCODING 9774
SWIDTH 727 0
DWIDTH 8 0
BBX 7 7 0 0
BITMAP
38
54
92
BA
D6
54
38
ENDCHAR
STARTCHAR U+2630
ENCODING 9776
SWIDTH 727 0
DWIDTH 8 0
BBX 7 5 0 1
BITMAP
FE
00
FE
00
FE
ENDCHAR
STARTCHAR U+2631
ENCODING 9777
SWIDTH 727 0
DWIDTH 8 0
BBX 7 5 0 1
BITMAP
EE
00
FE
00
FE
ENDCHAR
STARTCHAR U+2632
ENCODING 9778
SWIDTH 727 0
DWIDTH 8 0
BBX 7 5 0 1
BITMAP
FE
00
EE
00
FE
ENDCHAR
STARTCHAR U+2633
ENCODING 9779
SWIDTH 727 0
DWIDTH 8 0
BBX 7 5 0 1
BITMAP
EE
00
EE
00
FE
ENDCHAR
STARTCHAR U+2634
ENCODING 9780
SWIDTH 727 0
DWIDTH 8 0
BBX 7 5 0 1
BITMAP
FE
00
FE
00
EE
ENDCHAR
STARTCHAR U+2635
ENCODING 9781
SWIDTH 727 0
DWIDTH 8 0
BBX 7 5 0 1
BITMAP
EE
00
FE
00
EE
ENDCHAR
STARTCHAR U+2636
ENCODING 9782
SWIDTH 727 0
DWIDTH 8 0
BBX 7 5 0 1
BITMAP
FE
00
EE
00
EE
ENDCHAR
STARTCHAR U+2637
ENCODING 9783
SWIDTH 727 0
DWIDTH 8 0
BBX 7 5 0 1
BITMAP
EE
00
EE
00
EE
ENDCHAR
STARTCHAR U+2639
ENCODING 9785
SWIDTH 727 0
DWIDTH 8 0
BBX 5 5 1 1
BITMAP
50
50
00
70
88
ENDCHAR
STARTCHAR U+263A
ENCODING 9786
SWIDTH 727 0
DWIDTH 8 0
BBX 5 5 1 1
BITMAP
50
50
00
88
70
ENDCHAR
STARTCHAR U+263B
ENCODING 9787
SWIDTH 727 0
DWIDTH 8 0
BBX 7 7 0 0
BITMAP
FE
D6
D6
FE
BA
C6
FE
ENDCHAR
STARTCHAR U+263C
ENCODING 9788
SWIDTH 727 0
DWIDTH 8 0
BBX 7 7 0 0
BITMAP
10
44
38
AA
38
44
10
ENDCHAR
STARTCHAR U+2640
ENCODING 9792
SWIDTH 727 0
DWIDTH 8 0
BBX 5 7 1 0
BITMAP
70
88
88
70
20
F8
20
ENDCHAR
STARTCHAR U+2641
ENCODING 9793
SWIDTH 727 0
DWIDTH 8 0
BBX 5 7 1 0
BITMAP
20
F8
20
70
88
88
70
ENDCHAR
STARTCHAR U+2642
ENCODING 9794
SWIDTH 727 0
DWIDTH 8 0
BBX 5 7 1 0
BITMAP
20
70
A8
70
88
88
70
ENDCHAR
STARTCHAR U+2660
ENCODING 9824
SWIDTH 727 0
DWIDTH 8 0
BBX 7 7 0 0
BITMAP
10
38
7C
FE
FE
38
7C
ENDCHAR
STARTCHAR U+2661
ENCODING 9825
SWIDTH 727 0
DWIDTH 8 0
BBX 7 7 0 0
BITMAP
6C
92
82
82
44
28
10
ENDCHAR
STARTCHAR U+2662
ENCODING 9826
SWIDTH 727 0
DWIDTH 8 0
BBX 7 7 0 0
BITMAP
10
28
44
82
44
28
10
ENDCHAR
STARTCHAR U+2663
ENCODING 9827
SWIDTH 727 0
DWIDTH 8 0
BBX 7 7 0 0
BITMAP
38
38
D6
FE
D6
38
7C
ENDCHAR
STARTCHAR U+2664
ENCODING 9828
SWIDTH 727 0
DWIDTH 8 0
BBX 7 7 0 0
BITMAP
10
28
44
82
EE
28
7C
ENDCHAR
STARTCHAR U+2665
ENCODING 9829
SWIDTH 727 0
DWIDTH 8 0
BBX 7 7 0 0
BITMAP
6C
FE
FE
FE
7C
38
10
ENDCHAR
STARTCHAR U+2666
ENCODING 9830
SWIDTH 727 0
DWIDTH 8 0
BBX 7 7 0 0
BITMAP
10
38
7C
FE
7C
38
10
ENDCHAR
STARTCHAR U+2667
ENCODING 9831
SWIDTH 727 0
DWIDTH 8 0
BBX 7 7 0 0
BITMAP
38
28
D6
BA
D6
28
7C
ENDCHAR
STARTCHAR U+2669
ENCODING 9833
SWIDTH 727 0
DWIDTH 8 0
BBX 3 7 2 0
BITMAP
20
20
20
20
20
E0
C0
ENDCHAR
STARTCHAR U+266A
ENCODING 9834
SWIDTH 727 0
DWIDTH 8 0
BBX 5 7 1 0
BITMAP
20
30
28
28
60
E0
C0
ENDCHAR
STARTCHAR U+266B
ENCODING 9835
SWIDTH 727 0
DWIDTH 8 0
BBX 7 7 0 0
BITMAP
3E
22
22
22
66
EE
CC
ENDCHAR
STARTCHAR U+266C
ENCODING 9836
SWIDTH 727 0
DWIDTH 8 0
BBX 7 7 0 0
BITMAP
3E
22
3E
22
66
EE
CC
ENDCHAR
STARTCHAR U+266D
ENCODING 9837
SWIDTH 727 0
DWIDTH 8 0
BBX 4 7 2 0
BITMAP
80
80
A0
D0
90
A0
C0
ENDCHAR
STARTCHAR U+266E
ENCODING 9838
SWIDTH 727 0
DWIDTH 8 0
BBX 3 7 2 0
BITMAP
80
A0
E0
A0
E0
A0
20
ENDCHAR
STARTCHAR U+266F
ENCODING 9839
SWIDTH 727 0
DWIDTH 8 0
BBX 5 7 1 0
BITMAP
10
58
70
D8
70
D0
40
ENDCHAR
STARTCHAR U+2680
ENCODING 9856
SWIDTH 727 0
DWIDTH 8 0
BBX 7 7 0 0
BITMAP
FE
FE
FE
EE
FE
FE
FE
ENDCHAR
STARTCHAR U+2681
ENCODING 9857
SWIDTH 727 0
DWIDTH 8 0
BBX 7 7 0 0
BITMAP
FE
FA
FE
FE
FE
BE
FE
ENDCHAR
STARTCHAR U+2682
ENCODING 9858
SWIDTH 727 0
DWIDTH 8 0
BBX 7 7 0 0
BITMAP
FE
FA
FE
EE
FE
BE
FE
ENDCHAR
STARTCHAR U+2683
ENCODING 9859
SWIDTH 727 0
DWIDTH 8 0
BBX 7 7 0 0
BITMAP
FE
BA
FE
FE
FE
BA
FE
ENDCHAR
STARTCHAR U+2684
ENCODING 9860
SWIDTH 727 0
DWIDTH 8 0
BBX 7 7 0 0
BITMAP
FE
BA
FE
EE
FE
BA
FE
ENDCHAR
STARTCHAR U+2685
ENCODING 9861
SWIDTH 727 0
DWIDTH 8 0
BBX 7 7 0 0
BITMAP
FE
BA
FE
BA
FE
BA
FE
ENDCHAR
STARTCHAR U+2686
ENCODING 9862
SWIDTH 727 0
DWIDTH 8 0
BBX 7 7 0 0
BITMAP
38
44
82
8A
82
44
38
ENDCHAR
STARTCHAR U+2687
ENCODING 9863
SWIDTH 727 0
DWIDTH 8 0
BBX 7 7 0 0
BITMAP
38
44
82
AA
82
44
38
ENDCHAR
STARTCHAR U+2688
ENCODING 9864
SWIDTH 727 0
DWIDTH 8 0
BBX 7 7 0 0
BITMAP
38
7C
FE
F6
FE
7C
38
ENDCHAR
STARTCHAR U+2689
ENCODING 9865
SWIDTH 727 0
DWIDTH 8 0
BBX 7 7 0 0
BITMAP
38
7C
FE
D6
FE
7C
38
ENDCHAR
STARTCHAR U+26A0
ENCODING 9888
SWIDTH 727 0
DWIDTH 8 0
BBX 7 7 0 0
BITMAP
FE
EE
EE
EE
FE
EE
FE
ENDCHAR
STARTCHAR U+26C4
ENCODING 9924
SWIDTH 727 0
DWIDTH 8 0
BBX 7 7 0 0
BITMAP
38
44
6C
82
82
44
38
ENDCHAR
STARTCHAR U+26D4
ENCODING 9940
SWIDTH 727 0
DWIDTH 8 0
BBX 7 7 0 0
BITMAP
38
7C
FE
82
FE
7C
38
ENDCHAR
STARTCHAR U+2706
ENCODING 9990
SWIDTH 727 0
DWIDTH 8 0
BBX 5 8 1 0
BITMAP
08
F8
88
88
88
F8
F8
F8
ENDCHAR
STARTCHAR U+2709
ENCODING 9993
SWIDTH 727 0
DWIDTH 8 0
BBX 7 7 0 0
BITMAP
FE
82
C6
AA
92
82
FE
ENDCHAR
STARTCHAR U+2753
ENCODING 10067
SWIDTH 727 0
DWIDTH 8 0
BBX 7 7 0 0
BITMAP
FE
CE
F6
EE
FE
EE
FE
ENDCHAR
STARTCHAR U+2757
ENCODING 10071
SWIDTH 727 0
DWIDTH 8 0
BBX 7 7 0 0
BITMAP
FE
EE
EE
EE
FE
EE
FE
ENDCHAR
STARTCHAR U+2776
ENCODING 10102
SWIDTH 727 0
DWIDTH 8 0
BBX 7 7 0 0
BITMAP
7C
CE
EE
EE
EE
EE
7C
ENDCHAR
STARTCHAR U+2777
ENCODING 10103
SWIDTH 727 0
DWIDTH 8 0
BBX 7 7 0 0
BITMAP
7C
CE
F6
EE
DE
C6
7C
ENDCHAR
STARTCHAR U+2778
ENCODING 10104
SWIDTH 727 0
DWIDTH 8 0
BBX 7 7 0 0
BITMAP
7C
CE
F6
CE
F6
CE
7C
ENDCHAR
STARTCHAR U+2779
ENCODING 10105
SWIDTH 727 0
DWIDTH 8 0
BBX 7 7 0 0
BITMAP
7C
E6
D6
D6
C6
F6
7C
ENDCHAR
STARTCHAR U+277A
ENCODING 10106
SWIDTH 727 0
DWIDTH 8 0
BBX 7 7 0 0
BITMAP
7C
C6
DE
C6
F6
CE
7C
ENDCHAR
STARTCHAR U+277B
ENCODING 10107
SWIDTH 727 0
DWIDTH 8 0
BBX 7 7 0 0
BITMAP
7C
E6
DE
C6
D6
CE
7C
ENDCHAR
STARTCHAR U+277C
ENCODING 10108
SWIDTH 727 0
DWIDTH 8 0
BBX 7 7 0 0
BITMAP
7C
C6
F6
EE
EE
EE
7C
ENDCHAR
STARTCHAR U+277D
ENCODING 10109
SWIDTH 727 0
DWIDTH 8 0
BBX 7 7 0 0
BITMAP
7C
E6
D6
C6
D6
CE
7C
ENDCHAR
STARTCHAR U+277E
ENCODING 10110
SWIDTH 727 0
DWIDTH 8 0
BBX 7 7 0 0
BITMAP
7C
E6
D6
C6
F6
CE
7C
ENDCHAR
STARTCHAR U+277F
ENCODING 10111
SWIDTH 727 0
DWIDTH 8 0
BBX 7 7 0 0
BITMAP
7C
B2
AA
AA
AA
A6
7C
ENDCHAR
STARTCHAR U+2780
ENCODING 10112
SWIDTH 727 0
DWIDTH 8 0
BBX 7 7 0 0
BITMAP
38
44
92
92
92
44
38
ENDCHAR
STARTCHAR U+2781
ENCODING 10113
SWIDTH 727 0
DWIDTH 8 0
BBX 7 7 0 0
BITMAP
38
44
BA
92
BA
44
38
ENDCHAR
STARTCHAR U+2782
ENCODING 10114
SWIDTH 727 0
DWIDTH 8 0
BBX 7 7 0 0
BITMAP
38
54
AA
92
AA
54
38
ENDCHAR
STARTCHAR U+2783
ENCODING 10115
SWIDTH 727 0
DWIDTH 8 0
BBX 7 7 0 0
BITMAP
38
44
9A
AA
BA
4C
38
ENDCHAR
STARTCHAR U+2784
ENCODING 10116
SWIDTH 727 0
DWIDTH 8 0
BBX 7 7 0 0
BITMAP
38
64
B2
8A
AA
54
38
ENDCHAR
STARTCHAR U+2785
ENCODING 10117
SWIDTH 727 0
DWIDTH 8 0
BBX 7 7 0 0
BITMAP
38
54
A2
B2
AA
54
38
ENDCHAR
STARTCHAR U+2786
ENCODING 10118
SWIDTH 727 0
DWIDTH 8 0
BBX 7 7 0 0
BITMAP
38
44
BA
8A
92
54
38
ENDCHAR
STARTCHAR U+2787
ENCODING 10119
SWIDTH 727 0
DWIDTH 8 0
BBX 7 7 0 0
BITMAP
38
54
AA
92
AA
54
38
ENDCHAR
STARTCHAR U+2788
ENCODING 10120
SWIDTH 727 0
DWIDTH 8 0
BBX 7 7 0 0
BITMAP
38
6C
AA
9A
8A
6C
38
ENDCHAR
STARTCHAR U+2789
ENCODING 10121
SWIDTH 727 0
DWIDTH 8 0
BBX 7 7 0 0
BITMAP
38
64
AA
AA
AA
64
38
ENDCHAR
STARTCHAR U+278A
ENCODING 10122
SWIDTH 727 0
DWIDTH 8 0
BBX 7 7 0 0
BITMAP
7C
CE
EE
EE
EE
EE
7C
ENDCHAR
STARTCHAR U+278B
ENCODING 10123
SWIDTH 727 0
DWIDTH 8 0
BBX 7 7 0 0
BITMAP
7C
CE
F6
EE
DE
C6
7C
ENDCHAR
STARTCHAR U+278C
ENCODING 10124
SWIDTH 727 0
DWIDTH 8 0
BBX 7 7 0 0
BITMAP
7C
CE
F6
CE
F6
CE
7C
ENDCHAR
STARTCHAR U+278D
ENCODING 10125
SWIDTH 727 0
DWIDTH 8 0
BBX 7 7 0 0
BITMAP
7C
E6
D6
D6
C6
F6
7C
ENDCHAR
STARTCHAR U+278E
ENCODING 10126
SWIDTH 727 0
DWIDTH 8 0
BBX 7 7 0 0
BITMAP
7C
C6
DE
C6
F6
CE
7C
ENDCHAR
STARTCHAR U+278F
ENCODING 10127
SWIDTH 727 0
DWIDTH 8 0
BBX 7 7 0 0
BITMAP
7C
E6
DE
C6
D6
CE
7C
ENDCHAR
STARTCHAR U+2790
ENCODING 10128
SWIDTH 727 0
DWIDTH 8 0
BBX 7 7 0 0
BITMAP
7C
C6
F6
EE
EE
EE
7C
ENDCHAR
STARTCHAR U+2791
ENCODING 10129
SWIDTH 727 0
DWIDTH 8 0
BBX 7 7 0 0
BITMAP
7C
E6
D6
C6
D6
CE
7C
ENDCHAR
STARTCHAR U+2792
ENCODING 10130
SWIDTH 727 0
DWIDTH 8 0
BBX 7 7 0 0
BITMAP
7C
E6
D6
C6
F6
CE
7C
ENDCHAR
STARTCHAR U+2793
ENCODING 10131
SWIDTH 727 0
DWIDTH 8 0
BBX 7 7 0 0
BITMAP
7C
B2
AA
AA
AA
A6
7C
ENDCHAR
STARTCHAR U+2800
ENCODING 10240
SWIDTH 363 0
DWIDTH 4 0
BBX 0 0 0 0
BITMAP
ENDCHAR
STARTCHAR U+2801
ENCODING 10241
SWIDTH 363 0
DWIDTH 4 0
BBX 1 1 0 6
BITMAP
80
ENDCHAR
STARTCHAR U+2802
ENCODING 10242
SWIDTH 363 0
DWIDTH 4 0
BBX 1 1 0 4
BITMAP
80
ENDCHAR
STARTCHAR U+2803
ENCODING 10243
SWIDTH 363 0
DWIDTH 4 0
BBX 1 3 0 4
BITMAP
80
00
80
ENDCHAR
STARTCHAR U+2804
ENCODING 10244
SWIDTH 363 0
DWIDTH 4 0
BBX 1 1 0 2
BITMAP
80
ENDCHAR
STARTCHAR U+2805
ENCODING 10245
SWIDTH 363 0
DWIDTH 4 0
BBX 1 5 0 2
BITMAP
80
00
00
00
80
ENDCHAR
STARTCHAR U+2806
ENCODING 10246
SWIDTH 363 0
DWIDTH 4 0
BBX 1 3 0 2
BITMAP
80
00
80
ENDCHAR
STARTCHAR U+2807
ENCODING 10247
SWIDTH 363 0
DWIDTH 4 0
BBX 1 5 0 2
BITMAP
80
00
80
00
80
ENDCHAR
STARTCHAR U+2808
ENCODING 10248
SWIDTH 363 0
DWIDTH 4 0
BBX 1 1 2 6
BITMAP
80
ENDCHAR
STARTCHAR U+2809
ENCODING 10249
SWIDTH 363 0
DWIDTH 4 0
BBX 3 1 0 6
BITMAP
A0
ENDCHAR
STARTCHAR U+280A
ENCODING 10250
SWIDTH 363 0
DWIDTH 4 0
BBX 3 3 0 4
BITMAP
20
00
80
ENDCHAR
STARTCHAR U+280B
ENCODING 10251
SWIDTH 363 0
DWIDTH 4 0
BBX 3 3 0 4
BITMAP
A0
00
80
ENDCHAR
STARTCHAR U+280C
ENCODING 10252
SWIDTH 363 0
DWIDTH 4 0
BBX 3 5 0 2
BITMAP
20
00
00
00
80
ENDCHAR
STARTCHAR U+280D
ENCODING 10253
SWIDTH 363 0
DWIDTH 4 0
BBX 3 5 0 2
BITMAP
A0
00
00
00
80
ENDCHAR
STARTCHAR U+280E
ENCODING 10254
SWIDTH 363 0
DWIDTH 4 0
BBX 3 5 0 2
BITMAP
20
00
80
00
80
ENDCHAR
STARTCHAR U+280F
ENCODING 10255
SWIDTH 363 0
DWIDTH 4 0
BBX 3 5 0 2
BITMAP
A0
00
80
00
80
ENDCHAR
STARTCHAR U+2810
ENCODING 10256
SWIDTH 363 0
DWIDTH 4 0
BBX 1 1 2 4
BITMAP
80
ENDCHAR
STARTCHAR U+2811
ENCODING 10257
SWIDTH 363 0
DWIDTH 4 0
BBX 3 3 0 4
BITMAP
80
00
20
ENDCHAR
STARTCHAR U+2812
ENCODING 10258
SWIDTH 363 0
DWIDTH 4 0
BBX 3 1 0 4
BITMAP
A0
ENDCHAR
STARTCHAR U+2813
ENCODING 10259
SWIDTH 363 0
DWIDTH 4 0
BBX 3 3 0 4
BITMAP
80
00
A0
ENDCHAR
STARTCHAR U+2814
ENCODING 10260
SWIDTH 363 0
DWIDTH 4 0
BBX 3 3 0 2
BITMAP
20
00
80
ENDCHAR
STARTCHAR U+2815
ENCODING 10261
SWIDTH 363 0
DWIDTH 4 0
BBX 3 5 0 2
BITMAP
80
00
20
00
80
ENDCHAR
STARTCHAR U+2816
ENCODING 10262
SWIDTH 363 0
DWIDTH 4 0
BBX 3 3 0 2
BITMAP
A0
00
80
ENDCHAR
STARTCHAR U+2817
ENCODING 10263
SWIDTH 363 0
DWIDTH 4 0
BBX 3 5 0 2
BITMAP
80
00
A0
00
80
ENDCHAR
STARTCHAR U+2818
ENCODING 10264
SWIDTH 363 0
DWIDTH 4 0
BBX 1 3 2 4
BITMAP
80
00
80
ENDCHAR
STARTCHAR U+2819
ENCODING 10265
SWIDTH 363 0
DWIDTH 4 0
BBX 3 3 0 4
BITMAP
A0
00
20
ENDCHAR
STARTCHAR U+281A
ENCODING 10266
SWIDTH 363 0
DWIDTH 4 0
BBX 3 3 0 4
BITMAP
20
00
A0
ENDCHAR
STARTCHAR U+281B
ENCODING 10267
SWIDTH 363 0
DWIDTH 4 0
BBX 3 3 0 4
BITMAP
A0
00
A0
ENDCHAR
STARTCHAR U+281C
ENCODING 10268
SWIDTH 363 0
DWIDTH 4 0
BBX 3 5 0 2
BITMAP
20
00
20
00
80
ENDCHAR
STARTCHAR U+281D
ENCODING 10269
SWIDTH 363 0
DWIDTH 4 0
BBX 3 5 0 2
BITMAP
A0
00
20
00
80
ENDCHAR
STARTCHAR U+281E
ENCODING 10270
SWIDTH 363 0
DWIDTH 4 0
BBX 3 5 0 2
BITMAP
20
00
A0
00
80
ENDCHAR
STARTCHAR U+281F
ENCODING 10271
SWIDTH 363 0
DWIDTH 4 0
BBX 3 5 0 2
BITMAP
A0
00
A0
00
80
ENDCHAR
STARTCHAR U+2820
ENCODING 10272
SWIDTH 363 0
DWIDTH 4 0
BBX 1 1 2 2
BITMAP
80
ENDCHAR
STARTCHAR U+2821
ENCODING 10273
SWIDTH 363 0
DWIDTH 4 0
BBX 3 5 0 2
BITMAP
80
00
00
00
20
ENDCHAR
STARTCHAR U+2822
ENCODING 10274
SWIDTH 363 0
DWIDTH 4 0
BBX 3 3 0 2
BITMAP
80
00
20
ENDCHAR
STARTCHAR U+2823
ENCODING 10275
SWIDTH 363 0
DWIDTH 4 0
BBX 3 5 0 2
BITMAP
80
00
80
00
20
ENDCHAR
STARTCHAR U+2824
ENCODING 10276
SWIDTH 363 0
DWIDTH 4 0
BBX 3 1 0 2
BITMAP
A0
ENDCHAR
STARTCHAR U+2825
ENCODING 10277
SWIDTH 363 0
DWIDTH 4 0
BBX 3 5 0 2
BITMAP
80
00
00
00
A0
ENDCHAR
STARTCHAR U+2826
ENCODING 10278
SWIDTH 363 0
DWIDTH 4 0
BBX 3 3 0 2
BITMAP
80
00
A0
ENDCHAR
STARTCHAR U+2827
ENCODING 10279
SWIDTH 363 0
DWIDTH 4 0
BBX 3 5 0 2
BITMAP
80
00
80
00
A0
ENDCHAR
STARTCHAR U+2828
ENCODING 10280
SWIDTH 363 0
DWIDTH 4 0
BBX 1 5 2 2
BITMAP
80
00
00
00
80
ENDCHAR
STARTCHAR U+2829
ENCODING 10281
SWIDTH 363 0
DWIDTH 4 0
BBX 3 5 0 2
BITMAP
A0
00
00
00
20
ENDCHAR
STARTCHAR U+282A
ENCODING 10282
SWIDTH 363 0
DWIDTH 4 0
BBX 3 5 0 2
BITMAP
20
00
80
00
20
ENDCHAR
STARTCHAR U+282B
ENCODING 10283
SWIDTH 363 0
DWIDTH 4 0
BBX 3 5 0 2
BITMAP
A0
00
80
00
20
ENDCHAR
STARTCHAR U+282C
ENCODING 10284
SWIDTH 363 0
DWIDTH 4 0
BBX 3 5 0 2
BITMAP
20
00
00
00
A0
ENDCHAR
STARTCHAR U+282D
ENCODING 10285
SWIDTH 363 0
DWIDTH 4 0
BBX 3 5 0 2
BITMAP
A0
00
00
00
A0
ENDCHAR
STARTCHAR U+282E
ENCODING 10286
SWIDTH 363 0
DWIDTH 4 0
BBX 3 5 0 2
BITMAP
20
00
80
00
A0
ENDCHAR
STARTCHAR U+282F
ENCODING 10287
SWIDTH 363 0
DWIDTH 4 0
BBX 3 5 0 2
BITMAP
A0
00
80
00
A0
ENDCHAR
STARTCHAR U+2830
ENCODING 10288
SWIDTH 363 0
DWIDTH 4 0
BBX 1 3 2 2
BITMAP
80
00
80
ENDCHAR
STARTCHAR U+2831
ENCODING 10289
SWIDTH 363 0
DWIDTH 4 0
BBX 3 5 0 2
BITMAP
80
00
20
00
20
ENDCHAR
STARTCHAR U+2832
ENCODING 10290
SWIDTH 363 0
DWIDTH 4 0
BBX 3 3 0 2
BITMAP
A0
00
20
ENDCHAR
STARTCHAR U+2833
ENCODING 10291
SWIDTH 363 0
DWIDTH 4 0
BBX 3 5 0 2
BITMAP
80
00
A0
00
20
ENDCHAR
STARTCHAR U+2834
ENCODING 10292
SWIDTH 363 0
DWIDTH 4 0
BBX 3 3 0 2
BITMAP
20
00
A0
ENDCHAR
STARTCHAR U+2835
ENCODING 10293
SWIDTH 363 0
DWIDTH 4 0
BBX 3 5 0 2
BITMAP
80
00
20
00
A0
ENDCHAR
STARTCHAR U+2836
ENCODING 10294
SWIDTH 363 0
DWIDTH 4 0
BBX 3 3 0 2
BITMAP
A0
00
A0
ENDCHAR
STARTCHAR U+2837
ENCODING 10295
SWIDTH 363 0
DWIDTH 4 0
BBX 3 5 0 2
BITMAP
80
00
A0
00
A0
ENDCHAR
STARTCHAR U+2838
ENCODING 10296
SWIDTH 363 0
DWIDTH 4 0
BBX 1 5 2 2
BITMAP
80
00
80
00
80
ENDCHAR
STARTCHAR U+2839
ENCODING 10297
SWIDTH 363 0
DWIDTH 4 0
BBX 3 5 0 2
BITMAP
A0
00
20
00
20
ENDCHAR
STARTCHAR U+283A
ENCODING 10298
SWIDTH 363 0
DWIDTH 4 0
BBX 3 5 0 2
BITMAP
20
00
A0
00
20
ENDCHAR
STARTCHAR U+283B
ENCODING 10299
SWIDTH 363 0
DWIDTH 4 0
BBX 3 5 0 2
BITMAP
A0
00
A0
00
20
ENDCHAR
STARTCHAR U+283C
ENCODING 10300
SWIDTH 363 0
DWIDTH 4 0
BBX 3 5 0 2
BITMAP
20
00
20
00
A0
ENDCHAR
STARTCHAR U+283D
ENCODING 10301
SWIDTH 363 0
DWIDTH 4 0
BBX 3 5 0 2
BITMAP
A0
00
20
00
A0
ENDCHAR
STARTCHAR U+283E
ENCODING 10302
SWIDTH 363 0
DWIDTH 4 0
BBX 3 5 0 2
BITMAP
20
00
A0
00
A0
ENDCHAR
STARTCHAR U+283F
ENCODING 10303
SWIDTH 363 0
DWIDTH 4 0
BBX 3 5 0 2
BITMAP
A0
00
A0
00
A0
ENDCHAR
STARTCHAR U+2840
ENCODING 10304
SWIDTH 363 0
DWIDTH 4 0
BBX 1 1 0 0
BITMAP
80
ENDCHAR
STARTCHAR U+2841
ENCODING 10305
SWIDTH 363 0
DWIDTH 4 0
BBX 1 7 0 0
BITMAP
80
00
00
00
00
00
80
ENDCHAR
STARTCHAR U+2842
ENCODING 10306
SWIDTH 363 0
DWIDTH 4 0
BBX 1 5 0 0
BITMAP
80
00
00
00
80
ENDCHAR
STARTCHAR U+2843
ENCODING 10307
SWIDTH 363 0
DWIDTH 4 0
BBX 1 7 0 0
BITMAP
80
00
80
00
00
00
80
ENDCHAR
STARTCHAR U+2844
ENCODING 10308
SWIDTH 363 0
DWIDTH 4 0
BBX 1 3 0 0
BITMAP
80
00
80
ENDCHAR
STARTCHAR U+2845
ENCODING 10309
SWIDTH 363 0
DWIDTH 4 0
BBX 1 7 0 0
BITMAP
80
00
00
00
80
00
80
ENDCHAR
STARTCHAR U+2846
ENCODING 10310
SWIDTH 363 0
DWIDTH 4 0
BBX 1 5 0 0
BITMAP
80
00
80
00
80
ENDCHAR
STARTCHAR U+2847
ENCODING 10311
SWIDTH 363 0
DWIDTH 4 0
BBX 1 7 0 0
BITMAP
80
00
80
00
80
00
80
ENDCHAR
STARTCHAR U+2848
ENCODING 10312
SWIDTH 363 0
DWIDTH 4 0
BBX 3 7 0 0
BITMAP
20
00
00
00
00
00
80
ENDCHAR
STARTCHAR U+2849
ENCODING 10313
SWIDTH 363 0
DWIDTH 4 0
BBX 3 7 0 0
BITMAP
A0
00
00
00
00
00
80
ENDCHAR
STARTCHAR U+284A
ENCODING 10314
SWIDTH 363 0
DWIDTH 4 0
BBX 3 7 0 0
BITMAP
20
00
80
00
00
00
80
ENDCHAR
STARTCHAR U+284B
ENCODING 10315
SWIDTH 363 0
DWIDTH 4 0
BBX 3 7 0 0
BITMAP
A0
00
80
00
00
00
80
ENDCHAR
STARTCHAR U+284C
ENCODING 10316
SWIDTH 363 0
DWIDTH 4 0
BBX 3 7 0 0
BITMAP
20
00
00
00
80
00
80
ENDCHAR
STARTCHAR U+284D
ENCODING 10317
SWIDTH 363 0
DWIDTH 4 0
BBX 3 7 0 0
BITMAP
A0
00
00
00
80
00
80
ENDCHAR
STARTCHAR U+284E
ENCODING 10318
SWIDTH 363 0
DWIDTH 4 0
BBX 3 7 0 0
BITMAP
20
00
80
00
80
00
80
ENDCHAR
STARTCHAR U+284F
ENCODING 10319
SWIDTH 363 0
DWIDTH 4 0
BBX 3 7 0 0
BITMAP
A0
00
80
00
80
00
80
ENDCHAR
STARTCHAR U+2850
ENCODING 10320
SWIDTH 363 0
DWIDTH 4 0
BBX 3 5 0 0
BITMAP
20
00
00
00
80
ENDCHAR
STARTCHAR U+2851
ENCODING 10321
SWIDTH 363 0
DWIDTH 4 0
BBX 3 7 0 0
BITMAP
80
00
20
00
00
00
80
ENDCHAR
STARTCHAR U+2852
ENCODING 10322
SWIDTH 363 0
DWIDTH 4 0
BBX 3 5 0 0
BITMAP
A0
00
00
00
80
ENDCHAR
STARTCHAR U+2853
ENCODING 10323
SWIDTH 363 0
DWIDTH 4 0
BBX 3 7 0 0
BITMAP
80
00
A0
00
00
00
80
ENDCHAR
STARTCHAR U+2854
ENCODING 10324
SWIDTH 363 0
DWIDTH 4 0
BBX 3 5 0 0
BITMAP
20
00
80
00
80
ENDCHAR
STARTCHAR U+2855
ENCODING 10325
SWIDTH 363 0
DWIDTH 4 0
BBX 3 7 0 0
BITMAP
80
00
20
00
80
00
80
ENDCHAR
STARTCHAR U+2856
ENCODING 10326
SWIDTH 363 0
DWIDTH 4 0
BBX 3 5 0 0
BITMAP
A0
00
80
00
80
ENDCHAR
STARTCHAR U+2857
ENCODING 10327
SWIDTH 363 0
DWIDTH 4 0
BBX 3 7 0 0
BITMAP
80
00
A0
00
80
00
80
ENDCHAR
STARTCHAR U+2858
ENCODING 10328
SWIDTH 363 0
DWIDTH 4 0
BBX 3 7 0 0
BITMAP
20
00
20
00
00
00
80
ENDCHAR
STARTCHAR U+2859
ENCODING 10329
SWIDTH 363 0
DWIDTH 4 0
BBX 3 7 0 0
BITMAP
A0
00
20
00
00
00
80
ENDCHAR
STARTCHAR U+285A
ENCODING 10330
SWIDTH 363 0
DWIDTH 4 0
BBX 3 7 0 0
BITMAP
20
00
A0
00
00
00
80
ENDCHAR
STARTCHAR U+285B
ENCODING 10331
SWIDTH 363 0
DWIDTH 4 0
BBX 3 7 0 0
BITMAP
A0
00
A0
00
00
00
80
ENDCHAR
STARTCHAR U+285C
ENCODING 10332
SWIDTH 363 0
DWIDTH 4 0
BBX 3 7 0 0
BITMAP
20
00
20
00
80
00
80
ENDCHAR
STARTCHAR U+285D
ENCODING 10333
SWIDTH 363 0
DWIDTH 4 0
BBX 3 7 0 0
BITMAP
A0
00
20
00
80
00
80
ENDCHAR
STARTCHAR U+285E
ENCODING 10334
SWIDTH 363 0
DWIDTH 4 0
BBX 3 7 0 0
BITMAP
20
00
A0
00
80
00
80
ENDCHAR
STARTCHAR U+285F
ENCODING 10335
SWIDTH 363 0
DWIDTH 4 0
BBX 3 7 0 0
BITMAP
A0
00
A0
00
80
00
80
ENDCHAR
STARTCHAR U+2860
ENCODING 10336
SWIDTH 363 0
DWIDTH 4 0
BBX 3 3 0 0
BITMAP
20
00
80
ENDCHAR
STARTCHAR U+2861
ENCODING 10337
SWIDTH 363 0
DWIDTH 4 0
BBX 3 7 0 0
BITMAP
80
00
00
00
20
00
80
ENDCHAR
STARTCHAR U+2862
ENCODING 10338
SWIDTH 363 0
DWIDTH 4 0
BBX 3 5 0 0
BITMAP
80
00
20
00
80
ENDCHAR
STARTCHAR U+2863
ENCODING 10339
SWIDTH 363 0
DWIDTH 4 0
BBX 3 7 0 0
BITMAP
80
00
80
00
20
00
80
ENDCHAR
STARTCHAR U+2864
ENCODING 10340
SWIDTH 363 0
DWIDTH 4 0
BBX 3 3 0 0
BITMAP
A0
00
80
ENDCHAR
STARTCHAR U+2865
ENCODING 10341
SWIDTH 363 0
DWIDTH 4 0
BBX 3 7 0 0
BITMAP
80
00
00
00
A0
00
80
ENDCHAR
STARTCHAR U+2866
ENCODING 10342
SWIDTH 363 0
DWIDTH 4 0
BBX 3 5 0 0
BITMAP
80
00
A0
00
80
ENDCHAR
STARTCHAR U+2867
ENCODING 10343
SWIDTH 363 0
DWIDTH 4 0
BBX 3 7 0 0
BITMAP
80
00
80
00
A0
00
80
ENDCHAR
STARTCHAR U+2868
ENCODING 10344
SWIDTH 363 0
DWIDTH 4 0
BBX 3 7 0 0
BITMAP
20
00
00
00
20
00
80
ENDCHAR
STARTCHAR U+2869
ENCODING 10345
SWIDTH 363 0
DWIDTH 4 0
BBX 3 7 0 0
BITMAP
A0
00
00
00
20
00
80
ENDCHAR
STARTCHAR U+286A
ENCODING 10346
SWIDTH 363 0
DWIDTH 4 0
BBX 3 7 0 0
BITMAP
20
00
80
00
20
00
80
ENDCHAR
STARTCHAR U+286B
ENCODING 10347
SWIDTH 363 0
DWIDTH 4 0
BBX 3 7 0 0
BITMAP
A0
00
80
00
20
00
80
ENDCHAR
STARTCHAR U+286C
ENCODING 10348
SWIDTH 363 0
DWIDTH 4 0
BBX 3 7 0 0
BITMAP
20
00
00
00
A0
00
80
ENDCHAR
STARTCHAR U+286D
ENCODING 10349
SWIDTH 363 0
DWIDTH 4 0
BBX 3 7 0 0
BITMAP
A0
00
00
00
A0
00
80
ENDCHAR
STARTCHAR U+286E
ENCODING 10350
SWIDTH 363 0
DWIDTH 4 0
BBX 3 7 0 0
BITMAP
20
00
80
00
A0
00
80
ENDCHAR
STARTCHAR U+286F
ENCODING 10351
SWIDTH 363 0
DWIDTH 4 0
BBX 3 7 0 0
BITMAP
A0
00
80
00
A0
00
80
ENDCHAR
STARTCHAR U+2870
ENCODING 10352
SWIDTH 363 0
DWIDTH 4 0
BBX 3 5 0 0
BITMAP
20
00
20
00
80
ENDCHAR
STARTCHAR U+2871
ENCODING 10353
SWIDTH 363 0
DWIDTH 4 0
BBX 3 7 0 0
BITMAP
80
00
20
00
20
00
80
ENDCHAR
STARTCHAR U+2872
ENCODING 10354
SWIDTH 363 0
DWIDTH 4 0
BBX 3 5 0 0
BITMAP
A0
00
20
00
80
ENDCHAR
STARTCHAR U+2873
ENCODING 10355
SWIDTH 363 0
DWIDTH 4 0
BBX 3 7 0 0
BITMAP
80
00
A0
00
20
00
80
ENDCHAR
STARTCHAR U+2874
ENCODING 10356
SWIDTH 363 0
DWIDTH 4 0
BBX 3 5 0 0
BITMAP
20
00
A0
00
80
ENDCHAR
STARTCHAR U+2875
ENCODING 10357
SWIDTH 363 0
DWIDTH 4 0
BBX 3 7 0 0
BITMAP
80
00
20
00
A0
00
80
ENDCHAR
STARTCHAR U+2876
ENCODING 10358
SWIDTH 363 0
DWIDTH 4 0
BBX 3 5 0 0
BITMAP
A0
00
A0
00
80
ENDCHAR
STARTCHAR U+2877
ENCODING 10359
SWIDTH 363 0
DWIDTH 4 0
BBX 3 7 0 0
BITMAP
80
00
A0
00
A0
00
80
ENDCHAR
STARTCHAR U+2878
ENCODING 10360
SWIDTH 363 0
DWIDTH 4 0
BBX 3 7 0 0
BITMAP
20
00
20
00
20
00
80
ENDCHAR
STARTCHAR U+2879
ENCODING 10361
SWIDTH 363 0
DWIDTH 4 0
BBX 3 7 0 0
BITMAP
A0
00
20
00
20
00
80
ENDCHAR
STARTCHAR U+287A
ENCODING 10362
SWIDTH 363 0
DWIDTH 4 0
BBX 3 7 0 0
BITMAP
20
00
A0
00
20
00
80
ENDCHAR
STARTCHAR U+287B
ENCODING 10363
SWIDTH 363 0
DWIDTH 4 0
BBX 3 7 0 0
BITMAP
A0
00
A0
00
20
00
80
ENDCHAR
STARTCHAR U+287C
ENCODING 10364
SWIDTH 363 0
DWIDTH 4 0
BBX 3 7 0 0
BITMAP
20
00
20
00
A0
00
80
ENDCHAR
STARTCHAR U+287D
ENCODING 10365
SWIDTH 363 0
DWIDTH 4 0
BBX 3 7 0 0
BITMAP
A0
00
20
00
A0
00
80
ENDCHAR
STARTCHAR U+287E
ENCODING 10366
SWIDTH 363 0
DWIDTH 4 0
BBX 3 7 0 0
BITMAP
20
00
A0
00
A0
00
80
ENDCHAR
STARTCHAR U+287F
ENCODING 10367
SWIDTH 363 0
DWIDTH 4 0
BBX 3 7 0 0
BITMAP
A0
00
A0
00
A0
00
80
ENDCHAR
STARTCHAR U+2880
ENCODING 10368
SWIDTH 363 0
DWIDTH 4 0
BBX 1 1 2 0
BITMAP
80
ENDCHAR
STARTCHAR U+2881
ENCODING 10369
SWIDTH 363 0
DWIDTH 4 0
BBX 3 7 0 0
BITMAP
80
00
00
00
00
00
20
ENDCHAR
STARTCHAR U+2882
ENCODING 10370
SWIDTH 363 0
DWIDTH 4 0
BBX 3 5 0 0
BITMAP
80
00
00
00
20
ENDCHAR
STARTCHAR U+2883
ENCODING 10371
SWIDTH 363 0
DWIDTH 4 0
BBX 3 7 0 0
BITMAP
80
00
80
00
00
00
20
ENDCHAR
STARTCHAR U+2884
ENCODING 10372
SWIDTH 363 0
DWIDTH 4 0
BBX 3 3 0 0
BITMAP
80
00
20
ENDCHAR
STARTCHAR U+2885
ENCODING 10373
SWIDTH 363 0
DWIDTH 4 0
BBX 3 7 0 0
BITMAP
80
00
00
00
80
00
20
ENDCHAR
STARTCHAR U+2886
ENCODING 10374
SWIDTH 363 0
DWIDTH 4 0
BBX 3 5 0 0
BITMAP
80
00
80
00
20
ENDCHAR
STARTCHAR U+2887
ENCODING 10375
SWIDTH 363 0
DWIDTH 4 0
BBX 3 7 0 0
BITMAP
80
00
80
00
80
00
20
ENDCHAR
STARTCHAR U+2888
ENCODING 10376
SWIDTH 363 0
DWIDTH 4 0
BBX 1 7 2 0
BITMAP
80
00
00
00
00
00
80
ENDCHAR
STARTCHAR U+2889
ENCODING 10377
SWIDTH 363 0
DWIDTH 4 0
BBX 3 7 0 0
BITMAP
A0
00
00
00
00
00
20
ENDCHAR
STARTCHAR U+288A
ENCODING 10378
SWIDTH 363 0
DWIDTH 4 0
BBX 3 7 0 0
BITMAP
20
00
80
00
00
00
20
ENDCHAR
STARTCHAR U+288B
ENCODING 10379
SWIDTH 363 0
DWIDTH 4 0
BBX 3 7 0 0
BITMAP
A0
00
80
00
00
00
20
ENDCHAR
STARTCHAR U+288C
ENCODING 10380
SWIDTH 363 0
DWIDTH 4 0
BBX 3 7 0 0
BITMAP
20
00
00
00
80
00
20
ENDCHAR
STARTCHAR U+288D
ENCODING 10381
SWIDTH 363 0
DWIDTH 4 0
BBX 3 7 0 0
BITMAP
A0
00
00
00
80
00
20
ENDCHAR
STARTCHAR U+288E
ENCODING 10382
SWIDTH 363 0
DWIDTH 4 0
BBX 3 7 0 0
BITMAP
20
00
80
00
80
00
20
ENDCHAR
STARTCHAR U+288F
ENCODING 10383
SWIDTH 363 0
DWIDTH 4 0
BBX 3 7 0 0
BITMAP
A0
00
80
00
80
00
20
ENDCHAR
STARTCHAR U+2890
ENCODING 10384
SWIDTH 363 0
DWIDTH 4 0
BBX 1 5 2 0
BITMAP
80
00
00
00
80
ENDCHAR
STARTCHAR U+2891
ENCODING 10385
SWIDTH 363 0
DWIDTH 4 0
BBX 3 7 0 0
BITMAP
80
00
20
00
00
00
20
ENDCHAR
STARTCHAR U+2892
ENCODING 10386
SWIDTH 363 0
DWIDTH 4 0
BBX 3 5 0 0
BITMAP
A0
00
00
00
20
ENDCHAR
STARTCHAR U+2893
ENCODING 10387
SWIDTH 363 0
DWIDTH 4 0
BBX 3 7 0 0
BITMAP
80
00
A0
00
00
00
20
ENDCHAR
STARTCHAR U+2894
ENCODING 10388
SWIDTH 363 0
DWIDTH 4 0
BBX 3 5 0 0
BITMAP
20
00
80
00
20
ENDCHAR
STARTCHAR U+2895
ENCODING 10389
SWIDTH 363 0
DWIDTH 4 0
BBX 3 7 0 0
BITMAP
80
00
20
00
80
00
20
ENDCHAR
STARTCHAR U+2896
ENCODING 10390
SWIDTH 363 0
DWIDTH 4 0
BBX 3 5 0 0
BITMAP
A0
00
80
00
20
ENDCHAR
STARTCHAR U+2897
ENCODING 10391
SWIDTH 363 0
DWIDTH 4 0
BBX 3 7 0 0
BITMAP
80
00
A0
00
80
00
20
ENDCHAR
STARTCHAR U+2898
ENCODING 10392
SWIDTH 363 0
DWIDTH 4 0
BBX 1 7 2 0
BITMAP
80
00
80
00
00
00
80
ENDCHAR
STARTCHAR U+2899
ENCODING 10393
SWIDTH 363 0
DWIDTH 4 0
BBX 3 7 0 0
BITMAP
A0
00
20
00
00
00
20
ENDCHAR
STARTCHAR U+289A
ENCODING 10394
SWIDTH 363 0
DWIDTH 4 0
BBX 3 7 0 0
BITMAP
20
00
A0
00
00
00
20
ENDCHAR
STARTCHAR U+289B
ENCODING 10395
SWIDTH 363 0
DWIDTH 4 0
BBX 3 7 0 0
BITMAP
A0
00
A0
00
00
00
20
ENDCHAR
STARTCHAR U+289C
ENCODING 10396
SWIDTH 363 0
DWIDTH 4 0
BBX 3 7 0 0
BITMAP
20
00
20
00
80
00
20
ENDCHAR
STARTCHAR U+289D
ENCODING 10397
SWIDTH 363 0
DWIDTH 4 0
BBX 3 7 0 0
BITMAP
A0
00
20
00
80
00
20
ENDCHAR
STARTCHAR U+289E
ENCODING 10398
SWIDTH 363 0
DWIDTH 4 0
BBX 3 7 0 0
BITMAP
20
00
A0
00
80
00
20
ENDCHAR
STARTCHAR U+289F
ENCODING 10399
SWIDTH 363 0
DWIDTH 4 0
BBX 3 7 0 0
BITMAP
A0
00
A0
00
80
00
20
ENDCHAR
STARTCHAR U+28A0
ENCODING 10400
SWIDTH 363 0
DWIDTH 4 0
BBX 1 3 2 0
BITMAP
80
00
80
ENDCHAR
STARTCHAR U+28A1
ENCODING 10401
SWIDTH 363 0
DWIDTH 4 0
BBX 3 7 0 0
BITMAP
80
00
00
00
20
00
20
ENDCHAR
STARTCHAR U+28A2
ENCODING 10402
SWIDTH 363 0
DWIDTH 4 0
BBX 3 5 0 0
BITMAP
80
00
20
00
20
ENDCHAR
STARTCHAR U+28A3
ENCODING 10403
SWIDTH 363 0
DWIDTH 4 0
BBX 3 7 0 0
BITMAP
80
00
80
00
20
00
20
ENDCHAR
STARTCHAR U+28A4
ENCODING 10404
SWIDTH 363 0
DWIDTH 4 0
BBX 3 3 0 0
BITMAP
A0
00
20
ENDCHAR
STARTCHAR U+28A5
ENCODING 10405
SWIDTH 363 0
DWIDTH 4 0
BBX 3 7 0 0
BITMAP
80
00
00
00
A0
00
20
ENDCHAR
STARTCHAR U+28A6
ENCODING 10406
SWIDTH 363 0
DWIDTH 4 0
BBX 3 5 0 0
BITMAP
80
00
A0
00
20
ENDCHAR
STARTCHAR U+28A7
ENCODING 10407
SWIDTH 363 0
DWIDTH 4 0
BBX 3 7 0 0
BITMAP
80
00
80
00
A0
00
20
ENDCHAR
STARTCHAR U+28A8
ENCODING 10408
SWIDTH 363 0
DWIDTH 4 0
BBX 1 7 2 0
BITMAP
80
00
00
00
80
00
80
ENDCHAR
STARTCHAR U+28A9
ENCODING 10409
SWIDTH 363 0
DWIDTH 4 0
BBX 3 7 0 0
BITMAP
A0
00
00
00
20
00
20
ENDCHAR
STARTCHAR U+28AA
ENCODING 10410
SWIDTH 363 0
DWIDTH 4 0
BBX 3 7 0 0
BITMAP
20
00
80
00
20
00
20
ENDCHAR
STARTCHAR U+28AB
ENCODING 10411
SWIDTH 363 0
DWIDTH 4 0
BBX 3 7 0 0
BITMAP
A0
00
80
00
20
00
20
ENDCHAR
STARTCHAR U+28AC
ENCODING 10412
SWIDTH 363 0
DWIDTH 4 0
BBX 3 7 0 0
BITMAP
20
00
00
00
A0
00
20
ENDCHAR
STARTCHAR U+28AD
ENCODING 10413
SWIDTH 363 0
DWIDTH 4 0
BBX 3 7 0 0
BITMAP
A0
00
00
00
A0
00
20
ENDCHAR
STARTCHAR U+28AE
ENCODING 10414
SWIDTH 363 0
DWIDTH 4 0
BBX 3 7 0 0
BITMAP
20
00
80
00
A0
00
20
ENDCHAR
STARTCHAR U+28AF
ENCODING 10415
SWIDTH 363 0
DWIDTH 4 0
BBX 3 7 0 0
BITMAP
A0
00
80
00
A0
00
20
ENDCHAR
STARTCHAR U+28B0
ENCODING 10416
SWIDTH 363 0
DWIDTH 4 0
BBX 1 5 2 0
BITMAP
80
00
80
00
80
ENDCHAR
STARTCHAR U+28B1
ENCODING 10417
SWIDTH 363 0
DWIDTH 4 0
BBX 3 7 0 0
BITMAP
80
00
20
00
20
00
20
ENDCHAR
STARTCHAR U+28B2
ENCODING 10418
SWIDTH 363 0
DWIDTH 4 0
BBX 3 5 0 0
BITMAP
A0
00
20
00
20
ENDCHAR
STARTCHAR U+28B3
ENCODING 10419
SWIDTH 363 0
DWIDTH 4 0
BBX 3 7 0 0
BITMAP
80
00
A0
00
20
00
20
ENDCHAR
STARTCHAR U+28B4
ENCODING 10420
SWIDTH 363 0
DWIDTH 4 0
BBX 3 5 0 0
BITMAP
20
00
A0
00
20
ENDCHAR
STARTCHAR U+28B5
ENCODING 10421
SWIDTH 363 0
DWIDTH 4 0
BBX 3 7 0 0
BITMAP
80
00
20
00
A0
00
20
ENDCHAR
STARTCHAR U+28B6
ENCODING 10422
SWIDTH 363 0
DWIDTH 4 0
BBX 3 5 0 0
BITMAP
A0
00
A0
00
20
ENDCHAR
STARTCHAR U+28B7
ENCODING 10423
SWIDTH 363 0
DWIDTH 4 0
BBX 3 7 0 0
BITMAP
80
00
A0
00
A0
00
20
ENDCHAR
STARTCHAR U+28B8
ENCODING 10424
SWIDTH 363 0
DWIDTH 4 0
BBX 1 7 2 0
BITMAP
80
00
80
00
80
00
80
ENDCHAR
STARTCHAR U+28B9
ENCODING 10425
SWIDTH 363 0
DWIDTH 4 0
BBX 3 7 0 0
BITMAP
A0
00
20
00
20
00
20
ENDCHAR
STARTCHAR U+28BA
ENCODING 10426
SWIDTH 363 0
DWIDTH 4 0
BBX 3 7 0 0
BITMAP
20
00
A0
00
20
00
20
ENDCHAR
STARTCHAR U+28BB
ENCODING 10427
SWIDTH 363 0
DWIDTH 4 0
BBX 3 7 0 0
BITMAP
A0
00
A0
00
20
00
20
ENDCHAR
STARTCHAR U+28BC
ENCODING 10428
SWIDTH 363 0
DWIDTH 4 0
BBX 3 7 0 0
BITMAP
20
00
20
00
A0
00
20
ENDCHAR
STARTCHAR U+28BD
ENCODING 10429
SWIDTH 363 0
DWIDTH 4 0
BBX 3 7 0 0
BITMAP
A0
00
20
00
A0
00
20
ENDCHAR
STARTCHAR U+28BE
ENCODING 10430
SWIDTH 363 0
DWIDTH 4 0
BBX 3 7 0 0
BITMAP
20
00
A0
00
A0
00
20
ENDCHAR
STARTCHAR U+28BF
ENCODING 10431
SWIDTH 363 0
DWIDTH 4 0
BBX 3 7 0 0
BITMAP
A0
00
A0
00
A0
00
20
ENDCHAR
STARTCHAR U+28C0
ENCODING 10432
SWIDTH 363 0
DWIDTH 4 0
BBX 3 1 0 0
BITMAP
A0
ENDCHAR
STARTCHAR U+28C1
ENCODING 10433
SWIDTH 363 0
DWIDTH 4 0
BBX 3 7 0 0
BITMAP
80
00
00
00
00
00
A0
ENDCHAR
STARTCHAR U+28C2
ENCODING 10434
SWIDTH 363 0
DWIDTH 4 0
BBX 3 5 0 0
BITMAP
80
00
00
00
A0
ENDCHAR
STARTCHAR U+28C3
ENCODING 10435
SWIDTH 363 0
DWIDTH 4 0
BBX 3 7 0 0
BITMAP
80
00
80
00
00
00
A0
ENDCHAR
STARTCHAR U+28C4
ENCODING 10436
SWIDTH 363 0
DWIDTH 4 0
BBX 3 3 0 0
BITMAP
80
00
A0
ENDCHAR
STARTCHAR U+28C5
ENCODING 10437
SWIDTH 363 0
DWIDTH 4 0
BBX 3 7 0 0
BITMAP
80
00
00
00
80
00
A0
ENDCHAR
STARTCHAR U+28C6
ENCODING 10438
SWIDTH 363 0
DWIDTH 4 0
BBX 3 5 0 0
BITMAP
80
00
80
00
A0
ENDCHAR
STARTCHAR U+28C7
ENCODING 10439
SWIDTH 363 0
DWIDTH 4 0
BBX 3 7 0 0
BITMAP
80
00
80
00
80
00
A0
ENDCHAR
STARTCHAR U+28C8
ENCODING 10440
SWIDTH 363 0
DWIDTH 4 0
BBX 3 7 0 0
BITMAP
20
00
00
00
00
00
A0
ENDCHAR
STARTCHAR U+28C9
ENCODING 10441
SWIDTH 363 0
DWIDTH 4 0
BBX 3 7 0 0
BITMAP
A0
00
00
00
00
00
A0
ENDCHAR
STARTCHAR U+28CA
ENCODING 10442
SWIDTH 363 0
DWIDTH 4 0
BBX 3 7 0 0
BITMAP
20
00
80
00
00
00
A0
ENDCHAR
STARTCHAR U+28CB
ENCODING 10443
SWIDTH 363 0
DWIDTH 4 0
BBX 3 7 0 0
BITMAP
A0
00
80
00
00
00
A0
ENDCHAR
STARTCHAR U+28CC
ENCODING 10444
SWIDTH 363 0
DWIDTH 4 0
BBX 3 7 0 0
BITMAP
20
00
00
00
80
00
A0
ENDCHAR
STARTCHAR U+28CD
ENCODING 10445
SWIDTH 363 0
DWIDTH 4 0
BBX 3 7 0 0
BITMAP
A0
00
00
00
80
00
A0
ENDCHAR
STARTCHAR U+28CE
ENCODING 10446
SWIDTH 363 0
DWIDTH 4 0
BBX 3 7 0 0
BITMAP
20
00
80
00
80
00
A0
ENDCHAR
STARTCHAR U+28CF
ENCODING 10447
SWIDTH 363 0
DWIDTH 4 0
BBX 3 7 0 0
BITMAP
A0
00
80
00
80
00
A0
ENDCHAR
STARTCHAR U+28D0
ENCODING 10448
SWIDTH 363 0
DWIDTH 4 0
BBX 3 5 0 0
BITMAP
20
00
00
00
A0
ENDCHAR
STARTCHAR U+28D1
ENCODING 10449
SWIDTH 363 0
DWIDTH 4 0
BBX 3 7 0 0
BITMAP
80
00
20
00
00
00
A0
ENDCHAR
STARTCHAR U+28D2
ENCODING 10450
SWIDTH 363 0
DWIDTH 4 0
BBX 3 5 0 0
BITMAP
A0
00
00
00
A0
ENDCHAR
STARTCHAR U+28D3
ENCODING 10451
SWIDTH 363 0
DWIDTH 4 0
BBX 3 7 0 0
BITMAP
80
00
A0
00
00
00
A0
ENDCHAR
STARTCHAR U+28D4
ENCODING 10452
SWIDTH 363 0
DWIDTH 4 0
BBX 3 5 0 0
BITMAP
20
00
80
00
A0
ENDCHAR
STARTCHAR U+28D5
ENCODING 10453
SWIDTH 363 0
DWIDTH 4 0
BBX 3 7 0 0
BITMAP
80
00
20
00
80
00
A0
ENDCHAR
STARTCHAR U+28D6
ENCODING 10454
SWIDTH 363 0
DWIDTH 4 0
BBX 3 5 0 0
BITMAP
A0
00
80
00
A0
ENDCHAR
STARTCHAR U+28D7
ENCODING 10455
SWIDTH 363 0
DWIDTH 4 0
BBX 3 7 0 0
BITMAP
80
00
A0
00
80
00
A0
ENDCHAR
STARTCHAR U+28D8
ENCODING 10456
SWIDTH 363 0
DWIDTH 4 0
BBX 3 7 0 0
BITMAP
20
00
20
00
00
00
A0
ENDCHAR
STARTCHAR U+28D9
ENCODING 10457
SWIDTH 363 0
DWIDTH 4 0
BBX 3 7 0 0
BITMAP
A0
00
20
00
00
00
A0
ENDCHAR
STARTCHAR U+28DA
ENCODING 10458
SWIDTH 363 0
DWIDTH 4 0
BBX 3 7 0 0
BITMAP
20
00
A0
00
00
00
A0
ENDCHAR
STARTCHAR U+28DB
ENCODING 10459
SWIDTH 363 0
DWIDTH 4 0
BBX 3 7 0 0
BITMAP
A0
00
A0
00
00
00
A0
ENDCHAR
STARTCHAR U+28DC
ENCODING 10460
SWIDTH 363 0
DWIDTH 4 0
BBX 3 7 0 0
BITMAP
20
00
20
00
80
00
A0
ENDCHAR
STARTCHAR U+28DD
ENCODING 10461
SWIDTH 363 0
DWIDTH 4 0
BBX 3 7 0 0
BITMAP
A0
00
20
00
80
00
A0
ENDCHAR
STARTCHAR U+28DE
ENCODING 10462
SWIDTH 363 0
DWIDTH 4 0
BBX 3 7 0 0
BITMAP
20
00
A0
00
80
00
A0
ENDCHAR
STARTCHAR U+28DF
ENCODING 10463
SWIDTH 363 0
DWIDTH 4 0
BBX 3 7 0 0
BITMAP
A0
00
A0
00
80
00
A0
ENDCHAR
STARTCHAR U+28E0
ENCODING 10464
SWIDTH 363 0
DWIDTH 4 0
BBX 3 3 0 0
BITMAP
20
00
A0
ENDCHAR
STARTCHAR U+28E1
ENCODING 10465
SWIDTH 363 0
DWIDTH 4 0
BBX 3 7 0 0
BITMAP
80
00
20
00
20
00
A0
ENDCHAR
STARTCHAR U+28E2
ENCODING 10466
SWIDTH 363 0
DWIDTH 4 0
BBX 3 5 0 0
BITMAP
80
00
20
00
A0
ENDCHAR
STARTCHAR U+28E3
ENCODING 10467
SWIDTH 363 0
DWIDTH 4 0
BBX 3 7 0 0
BITMAP
80
00
80
00
20
00
A0
ENDCHAR
STARTCHAR U+28E4
ENCODING 10468
SWIDTH 363 0
DWIDTH 4 0
BBX 3 3 0 0
BITMAP
A0
00
A0
ENDCHAR
STARTCHAR U+28E5
ENCODING 10469
SWIDTH 363 0
DWIDTH 4 0
BBX 3 7 0 0
BITMAP
80
00
00
00
A0
00
A0
ENDCHAR
STARTCHAR U+28E6
ENCODING 10470
SWIDTH 363 0
DWIDTH 4 0
BBX 3 5 0 0
BITMAP
80
00
A0
00
A0
ENDCHAR
STARTCHAR U+28E7
ENCODING 10471
SWIDTH 363 0
DWIDTH 4 0
BBX 3 7 0 0
BITMAP
80
00
80
00
A0
00
A0
ENDCHAR
STARTCHAR U+28E8
ENCODING 10472
SWIDTH 363 0
DWIDTH 4 0
BBX 3 7 0 0
BITMAP
20
00
00
00
20
00
A0
ENDCHAR
STARTCHAR U+28E9
ENCODING 10473
SWIDTH 363 0
DWIDTH 4 0
BBX 3 7 0 0
BITMAP
A0
00
00
00
20
00
A0
ENDCHAR
STARTCHAR U+28EA
ENCODING 10474
SWIDTH 363 0
DWIDTH 4 0
BBX 3 7 0 0
BITMAP
20
00
80
00
20
00
A0
ENDCHAR
STARTCHAR U+28EB
ENCODING 10475
SWIDTH 363 0
DWIDTH 4 0
BBX 3 7 0 0
BITMAP
A0
00
80
00
20
00
A0
ENDCHAR
STARTCHAR U+28EC
ENCODING 10476
SWIDTH 363 0
DWIDTH 4 0
BBX 3 7 0 0
BITMAP
20
00
00
00
A0
00
A0
ENDCHAR
STARTCHAR U+28ED
ENCODING 10477
SWIDTH 363 0
DWIDTH 4 0
BBX 3 7 0 0
BITMAP
A0
00
00
00
A0
00
A0
ENDCHAR
STARTCHAR U+28EE
ENCODING 10478
SWIDTH 363 0
DWIDTH 4 0
BBX 3 7 0 0
BITMAP
20
00
80
00
A0
00
A0
ENDCHAR
STARTCHAR U+28EF
ENCODING 10479
SWIDTH 363 0
DWIDTH 4 0
BBX 3 7 0 0
BITMAP
A0
00
80
00
A0
00
A0
ENDCHAR
STARTCHAR U+28F0
ENCODING 10480
SWIDTH 363 0
DWIDTH 4 0
BBX 3 5 0 0
BITMAP
20
00
20
00
A0
ENDCHAR
STARTCHAR U+28F1
ENCODING 10481
SWIDTH 363 0
DWIDTH 4 0
BBX 3 7 0 0
BITMAP
80
00
20
00
20
00
A0
ENDCHAR
STARTCHAR U+28F2
ENCODING 10482
SWIDTH 363 0
DWIDTH 4 0
BBX 3 5 0 0
BITMAP
A0
00
20
00
A0
ENDCHAR
STARTCHAR U+28F3
ENCODING 10483
SWIDTH 363 0
DWIDTH 4 0
BBX 3 7 0 0
BITMAP
80
00
A0
00
20
00
A0
ENDCHAR
STARTCHAR U+28F4
ENCODING 10484
SWIDTH 363 0
DWIDTH 4 0
BBX 3 5 0 0
BITMAP
20
00
A0
00
A0
ENDCHAR
STARTCHAR U+28F5
ENCODING 10485
SWIDTH 363 0
DWIDTH 4 0
BBX 3 7 0 0
BITMAP
80
00
20
00
A0
00
A0
ENDCHAR
STARTCHAR U+28F6
ENCODING 10486
SWIDTH 363 0
DWIDTH 4 0
BBX 3 5 0 0
BITMAP
A0
00
A0
00
A0
ENDCHAR
STARTCHAR U+28F7
ENCODING 10487
SWIDTH 363 0
DWIDTH 4 0
BBX 3 7 0 0
BITMAP
80
00
A0
00
A0
00
A0
ENDCHAR
STARTCHAR U+28F8
ENCODING 10488
SWIDTH 363 0
DWIDTH 4 0
BBX 3 7 0 0
BITMAP
20
00
20
00
20
00
A0
ENDCHAR
STARTCHAR U+28F9
ENCODING 10489
SWIDTH 363 0
DWIDTH 4 0
BBX 3 7 0 0
BITMAP
A0
00
20
00
20
00
A0
ENDCHAR
STARTCHAR U+28FA
ENCODING 10490
SWIDTH 363 0
DWIDTH 4 0
BBX 3 7 0 0
BITMAP
20
00
A0
00
20
00
A0
ENDCHAR
STARTCHAR U+28FB
ENCODING 10491
SWIDTH 363 0
DWIDTH 4 0
BBX 3 7 0 0
BITMAP
A0
00
A0
00
20
00
A0
ENDCHAR
STARTCHAR U+28FC
ENCODING 10492
SWIDTH 363 0
DWIDTH 4 0
BBX 3 7 0 0
BITMAP
20
00
20
00
A0
00
A0
ENDCHAR
STARTCHAR U+28FD
ENCODING 10493
SWIDTH 363 0
DWIDTH 4 0
BBX 3 7 0 0
BITMAP
A0
00
20
00
A0
00
A0
ENDCHAR
STARTCHAR U+28FE
ENCODING 10494
SWIDTH 363 0
DWIDTH 4 0
BBX 3 7 0 0
BITMAP
20
00
A0
00
A0
00
A0
ENDCHAR
STARTCHAR U+28FF
ENCODING 10495
SWIDTH 363 0
DWIDTH 4 0
BBX 3 7 0 0
BITMAP
A0
00
A0
00
A0
00
A0
ENDCHAR
STARTCHAR U+3000
ENCODING 12288
SWIDTH 727 0
DWIDTH 8 0
BBX 0 0 0 0
BITMAP
ENDCHAR
STARTCHAR U+3001
ENCODING 12289
SWIDTH 727 0
DWIDTH 8 0
BBX 2 3 0 0
BITMAP
80
40
40
ENDCHAR
STARTCHAR U+3002
ENCODING 12290
SWIDTH 727 0
DWIDTH 8 0
BBX 3 3 0 0
BITMAP
40
A0
40
ENDCHAR
STARTCHAR U+3003
ENCODING 12291
SWIDTH 727 0
DWIDTH 8 0
BBX 4 4 1 2
BITMAP
50
50
A0
A0
ENDCHAR
STARTCHAR U+3004
ENCODING 12292
SWIDTH 727 0
DWIDTH 8 0
BBX 7 7 0 0
BITMAP
38
44
BA
B6
BA
44
18
ENDCHAR
STARTCHAR U+3005
ENCODING 12293
SWIDTH 727 0
DWIDTH 8 0
BBX 7 7 0 0
BITMAP
20
3E
42
84
28
18
04
ENDCHAR
STARTCHAR U+3006
ENCODING 12294
SWIDTH 727 0
DWIDTH 8 0
BBX 7 7 0 0
BITMAP
02
04
28
50
A8
C0
80
ENDCHAR
STARTCHAR U+3007
ENCODING 12295
SWIDTH 727 0
DWIDTH 8 0
BBX 7 7 0 0
BITMAP
38
44
82
82
82
44
38
ENDCHAR
STARTCHAR U+3008
ENCODING 12296
SWIDTH 454 0
DWIDTH 5 0
BBX 4 7 0 0
BITMAP
10
20
40
80
40
20
10
ENDCHAR
STARTCHAR U+3009
ENCODING 12297
SWIDTH 454 0
DWIDTH 5 0
BBX 4 7 0 0
BITMAP
80
40
20
10
20
40
80
ENDCHAR
STARTCHAR U+300A
ENCODING 12298
SWIDTH 636 0
DWIDTH 7 0
BBX 6 7 0 0
BITMAP
14
28
50
A0
50
28
14
ENDCHAR
STARTCHAR U+300B
ENCODING 12299
SWIDTH 636 0
DWIDTH 7 0
BBX 6 7 0 0
BITMAP
A0
50
28
14
28
50
A0
ENDCHAR
STARTCHAR U+300C
ENCODING 12300
SWIDTH 363 0
DWIDTH 4 0
BBX 3 4 0 3
BITMAP
E0
80
80
80
ENDCHAR
STARTCHAR U+300D
ENCODING 12301
SWIDTH 363 0
DWIDTH 4 0
BBX 3 4 0 0
BITMAP
20
20
20
E0
ENDCHAR
STARTCHAR U+300E
ENCODING 12302
SWIDTH 454 0
DWIDTH 5 0
BBX 4 5 0 2
BITMAP
F0
90
B0
A0
E0
ENDCHAR
STARTCHAR U+300F
ENCODING 12303
SWIDTH 454 0
DWIDTH 5 0
BBX 4 5 0 0
BITMAP
70
50
D0
90
F0
ENDCHAR
STARTCHAR U+3010
ENCODING 12304
SWIDTH 363 0
DWIDTH 4 0
BBX 3 7 0 0
BITMAP
E0
C0
80
80
80
C0
E0
ENDCHAR
STARTCHAR U+3011
ENCODING 12305
SWIDTH 363 0
DWIDTH 4 0
BBX 3 7 0 0
BITMAP
E0
60
20
20
20
60
E0
ENDCHAR
STARTCHAR U+3012
ENCODING 12306
SWIDTH 727 0
DWIDTH 8 0
BBX 7 7 0 0
BITMAP
FE
00
FE
10
10
10
10
ENDCHAR
STARTCHAR U+3013
ENCODING 12307
SWIDTH 727 0
DWIDTH 8 0
BBX 7 5 0 1
BITMAP
FE
FE
00
FE
FE
ENDCHAR
STARTCHAR U+3014
ENCODING 12308
SWIDTH 363 0
DWIDTH 4 0
BBX 3 9 0 -1
BITMAP
20
C0
80
80
80
80
80
C0
20
ENDCHAR
STARTCHAR U+3015
ENCODING 12309
SWIDTH 363 0
DWIDTH 4 0
BBX 3 9 0 -1
BITMAP
80
60
20
20
20
20
20
60
80
ENDCHAR
STARTCHAR U+3016
ENCODING 12310
SWIDTH 454 0
DWIDTH 5 0
BBX 4 7 0 0
BITMAP
F0
90
A0
A0
A0
90
F0
ENDCHAR
STARTCHAR U+3017
ENCODING 12311
SWIDTH 454 0
DWIDTH 5 0
BBX 4 7 0 0
BITMAP
F0
90
50
50
50
90
F0
ENDCHAR
STARTCHAR U+301C
ENCODING 12316
SWIDTH 727 0
DWIDTH 8 0
BBX 7 3 0 2
BITMAP
60
92
0C
ENDCHAR
STARTCHAR U+3036
ENCODING 12342
SWIDTH 727 0
DWIDTH 8 0
BBX 7 7 0 0
BITMAP
38
44
FE
82
FE
54
38
ENDCHAR
STARTCHAR U+303C
ENCODING 12348
SWIDTH 727 0
DWIDTH 8 0
BBX 7 7 0 0
BITMAP
FE
86
8A
92
A2
C2
FE
ENDCHAR
STARTCHAR U+3041
ENCODING 12353
SWIDTH 727 0
DWIDTH 8 0
BBX 6 6 0 0
BITMAP
78
20
78
AC
B4
68
ENDCHAR
STARTCHAR U+3042
ENCODING 12354
SWIDTH 727 0
DWIDTH 8 0
BBX 7 7 0 0
BITMAP
20
FC
20
7C
AA
B2
64
ENDCHAR
STARTCHAR U+3043
ENCODING 12355
SWIDTH 727 0
DWIDTH 8 0
BBX 5 5 1 0
BITMAP
90
88
88
A8
40
ENDCHAR
STARTCHAR U+3044
ENCODING 12356
SWIDTH 727 0
DWIDTH 8 0
BBX 7 6 0 0
BITMAP
84
84
82
82
A2
40
ENDCHAR
STARTCHAR U+3045
ENCODING 12357
SWIDTH 727 0
DWIDTH 8 0
BBX 5 6 1 0
BITMAP
70
00
F0
08
08
70
ENDCHAR
STARTCHAR U+3046
ENCODING 12358
SWIDTH 727 0
DWIDTH 8 0
BBX 6 7 0 0
BITMAP
78
00
F8
04
04
08
70
ENDCHAR
STARTCHAR U+3047
ENCODING 12359
SWIDTH 727 0
DWIDTH 8 0
BBX 6 6 0 0
BITMAP
30
00
78
30
50
8C
ENDCHAR
STARTCHAR U+3048
ENCODING 12360
SWIDTH 727 0
DWIDTH 8 0
BBX 7 7 0 0
BITMAP
78
00
FC
08
30
50
8E
ENDCHAR
STARTCHAR U+3049
ENCODING 12361
SWIDTH 727 0
DWIDTH 8 0
BBX 7 6 0 0
BITMAP
20
F4
22
78
A4
68
ENDCHAR
STARTCHAR U+304A
ENCODING 12362
SWIDTH 727 0
DWIDTH 8 0
BBX 7 7 0 0
BITMAP
24
FA
20
7C
A2
A2
6C
ENDCHAR
STARTCHAR U+304B
ENCODING 12363
SWIDTH 727 0
DWIDTH 8 0
BBX 7 7 0 0
BITMAP
44
F2
4A
48
48
88
B0
ENDCHAR
STARTCHAR U+304C
ENCODING 12364
SWIDTH 727 0
DWIDTH 8 0
BBX 7 7 0 0
BITMAP
46
F4
4A
48
48
88
B0
ENDCHAR
STARTCHAR U+304D
ENCODING 12365
SWIDTH 727 0
DWIDTH 8 0
BBX 7 7 0 0
BITMAP
7C
10
FE
08
74
80
78
ENDCHAR
STARTCHAR U+304E
ENCODING 12366
SWIDTH 727 0
DWIDTH 8 0
BBX 7 7 0 0
BITMAP
7A
14
FC
08
74
80
78
ENDCHAR
STARTCHAR U+304F
ENCODING 12367
SWIDTH 727 0
DWIDTH 8 0
BBX 5 7 1 0
BITMAP
08
10
60
80
60
10
08
ENDCHAR
STARTCHAR U+3050
ENCODING 12368
SWIDTH 727 0
DWIDTH 8 0
BBX 7 7 0 0
BITMAP
08
10
62
84
60
10
08
ENDCHAR
STARTCHAR U+3051
ENCODING 12369
SWIDTH 727 0
DWIDTH 8 0
BBX 7 7 0 0
BITMAP
84
BE
84
84
84
84
98
ENDCHAR
STARTCHAR U+3052
ENCODING 12370
SWIDTH 727 0
DWIDTH 8 0
BBX 7 7 0 0
BITMAP
8A
BE
88
88
88
88
B0
ENDCHAR
STARTCHAR U+3053
ENCODING 12371
SWIDTH 727 0
DWIDTH 8 0
BBX 6 7 0 0
BITMAP
78
00
00
00
80
80
7C
ENDCHAR
STARTCHAR U+3054
ENCODING 12372
SWIDTH 727 0
DWIDTH 8 0
BBX 7 7 0 0
BITMAP
78
02
04
00
80
80
7C
ENDCHAR
STARTCHAR U+3055
ENCODING 12373
SWIDTH 727 0
DWIDTH 8 0
BBX 7 7 0 0
BITMAP
10
FE
08
78
84
80
78
ENDCHAR
STARTCHAR U+3056
ENCODING 12374
SWIDTH 727 0
DWIDTH 8 0
BBX 7 7 0 0
BITMAP
12
FE
08
78
84
80
78
ENDCHAR
STARTCHAR U+3057
ENCODING 12375
SWIDTH 727 0
DWIDTH 8 0
BBX 6 7 0 0
BITMAP
80
80
80
84
84
88
70
ENDCHAR
STARTCHAR U+3058
ENCODING 12376
SWIDTH 727 0
DWIDTH 8 0
BBX 6 7 0 0
BITMAP
94
94
80
80
84
88
70
ENDCHAR
STARTCHAR U+3059
ENCODING 12377
SWIDTH 727 0
DWIDTH 8 0
BBX 7 7 0 0
BITMAP
08
FE
18
28
28
18
30
ENDCHAR
STARTCHAR U+305A
ENCODING 12378
SWIDTH 727 0
DWIDTH 8 0
BBX 7 7 0 0
BITMAP
0A
FE
18
28
28
18
30
ENDCHAR
STARTCHAR U+305B
ENCODING 12379
SWIDTH 727 0
DWIDTH 8 0
BBX 7 7 0 0
BITMAP
48
FE
48
48
58
40
3C
ENDCHAR
STARTCHAR U+305C
ENCODING 12380
SWIDTH 727 0
DWIDTH 8 0
BBX 7 7 0 0
BITMAP
4A
FE
48
58
40
40
3C
ENDCHAR
STARTCHAR U+305D
ENCODING 12381
SWIDTH 727 0
DWIDTH 8 0
BBX 6 7 0 0
BITMAP
78
10
20
FC
20
40
38
ENDCHAR
STARTCHAR U+305E
ENCODING 12382
SWIDTH 727 0
DWIDTH 8 0
BBX 7 7 0 0
BITMAP
78
16
20
FC
20
40
38
ENDCHAR
STARTCHAR U+305F
ENCODING 12383
SWIDTH 727 0
DWIDTH 8 0
BBX 6 7 0 0
BITMAP
40
FC
40
5C
80
A0
9C
ENDCHAR
STARTCHAR U+3060
ENCODING 12384
SWIDTH 727 0
DWIDTH 8 0
BBX 7 7 0 0
BITMAP
4A
FA
40
5C
80
A0
9C
ENDCHAR
STARTCHAR U+3061
ENCODING 12385
SWIDTH 727 0
DWIDTH 8 0
BBX 7 7 0 0
BITMAP
20
FC
20
3C
42
02
3C
ENDCHAR
STARTCHAR U+3062
ENCODING 12386
SWIDTH 727 0
DWIDTH 8 0
BBX 7 7 0 0
BITMAP
24
FA
20
3C
42
02
3C
ENDCHAR
STARTCHAR U+3063
ENCODING 12387
SWIDTH 727 0
DWIDTH 8 0
BBX 6 5 0 0
BITMAP
78
84
04
04
38
ENDCHAR
STARTCHAR U+3064
ENCODING 12388
SWIDTH 727 0
DWIDTH 8 0
BBX 7 6 0 0
BITMAP
38
C4
02
02
04
38
ENDCHAR
STARTCHAR U+3065
ENCODING 12389
SWIDTH 727 0
DWIDTH 8 0
BBX 7 6 0 0
BITMAP
3A
C4
02
02
04
38
ENDCHAR
STARTCHAR U+3066
ENCODING 12390
SWIDTH 727 0
DWIDTH 8 0
BBX 7 7 0 0
BITMAP
FE
08
10
20
20
20
1C
ENDCHAR
STARTCHAR U+3067
ENCODING 12391
SWIDTH 727 0
DWIDTH 8 0
BBX 7 7 0 0
BITMAP
FE
10
24
4A
40
20
1C
ENDCHAR
STARTCHAR U+3068
ENCODING 12392
SWIDTH 727 0
DWIDTH 8 0
BBX 6 7 0 0
BITMAP
40
4C
30
40
80
80
7C
ENDCHAR
STARTCHAR U+3069
ENCODING 12393
SWIDTH 727 0
DWIDTH 8 0
BBX 7 7 0 0
BITMAP
8A
4A
30
40
80
80
7C
ENDCHAR
STARTCHAR U+306A
ENCODING 12394
SWIDTH 727 0
DWIDTH 8 0
BBX 7 7 0 0
BITMAP
44
F2
44
44
9C
A6
18
ENDCHAR
STARTCHAR U+306B
ENCODING 12395
SWIDTH 727 0
DWIDTH 8 0
BBX 7 6 0 0
BITMAP
9E
80
80
90
90
8E
ENDCHAR
STARTCHAR U+306C
ENCODING 12396
SWIDTH 727 0
DWIDTH 8 0
BBX 7 7 0 0
BITMAP
48
7C
CA
B2
96
AA
4C
ENDCHAR
STARTCHAR U+306D
ENCODING 12397
SWIDTH 727 0
DWIDTH 8 0
BBX 7 7 0 0
BITMAP
40
5C
E2
42
CE
52
4C
ENDCHAR
STARTCHAR U+306E
ENCODING 12398
SWIDTH 727 0
DWIDTH 8 0
BBX 7 7 0 0
BITMAP
38
54
92
92
92
A2
4C
ENDCHAR
STARTCHAR U+306F
ENCODING 12399
SWIDTH 727 0
DWIDTH 8 0
BBX 7 7 0 0
BITMAP
84
BE
84
84
9C
A6
98
ENDCHAR
STARTCHAR U+3070
ENCODING 12400
SWIDTH 727 0
DWIDTH 8 0
BBX 7 7 0 0
BITMAP
8A
BE
88
88
9C
AA
98
ENDCHAR
STARTCHAR U+3071
ENCODING 12401
SWIDTH 727 0
DWIDTH 8 0
BBX 7 7 0 0
BITMAP
8E
BA
8C
88
9C
AA
98
ENDCHAR
STARTCHAR U+3072
ENCODING 12402
SWIDTH 727 0
DWIDTH 8 0
BBX 7 7 0 0
BITMAP
E8
48
86
84
84
88
70
ENDCHAR
STARTCHAR U+3073
ENCODING 12403
SWIDTH 727 0
DWIDTH 8 0
BBX 7 7 0 0
BITMAP
E6
48
84
86
84
88
70
ENDCHAR
STARTCHAR U+3074
ENCODING 12404
SWIDTH 727 0
DWIDTH 8 0
BBX 7 7 0 0
BITMAP
E4
4A
84
86
84
88
70
ENDCHAR
STARTCHAR U+3075
ENCODING 12405
SWIDTH 727 0
DWIDTH 8 0
BBX 7 7 0 0
BITMAP
78
10
20
94
8A
8A
30
ENDCHAR
STARTCHAR U+3076
ENCODING 12406
SWIDTH 727 0
DWIDTH 8 0
BBX 7 7 0 0
BITMAP
7A
14
20
94
8A
8A
30
ENDCHAR
STARTCHAR U+3077
ENCODING 12407
SWIDTH 727 0
DWIDTH 8 0
BBX 7 7 0 0
BITMAP
74
2A
24
92
8A
8A
30
ENDCHAR
STARTCHAR U+3078
ENCODING 12408
SWIDTH 727 0
DWIDTH 8 0
BBX 7 6 0 0
BITMAP
20
50
88
88
04
02
ENDCHAR
STARTCHAR U+3079
ENCODING 12409
SWIDTH 727 0
DWIDTH 8 0
BBX 7 7 0 0
BITMAP
0A
20
50
88
88
04
02
ENDCHAR
STARTCHAR U+307A
ENCODING 12410
SWIDTH 727 0
DWIDTH 8 0
BBX 7 7 0 0
BITMAP
04
2A
54
88
88
04
02
ENDCHAR
STARTCHAR U+307B
ENCODING 12411
SWIDTH 727 0
DWIDTH 8 0
BBX 7 7 0 0
BITMAP
BE
84
BE
84
9C
A6
98
ENDCHAR
STARTCHAR U+307C
ENCODING 12412
SWIDTH 727 0
DWIDTH 8 0
BBX 7 7 0 0
BITMAP
BC
8A
BC
88
9C
AA
98
ENDCHAR
STARTCHAR U+307D
ENCODING 12413
SWIDTH 727 0
DWIDTH 8 0
BBX 7 7 0 0
BITMAP
BE
8A
BC
88
9C
AA
98
ENDCHAR
STARTCHAR U+307E
ENCODING 12414
SWIDTH 727 0
DWIDTH 8 0
BBX 6 7 0 0
BITMAP
FC
10
FC
10
78
94
70
ENDCHAR
STARTCHAR U+307F
ENCODING 12415
SWIDTH 727 0
DWIDTH 8 0
BBX 7 7 0 0
BITMAP
70
14
74
AC
A6
C8
10
ENDCHAR
STARTCHAR U+3080
ENCODING 12416
SWIDTH 727 0
DWIDTH 8 0
BBX 7 7 0 0
BITMAP
20
F4
22
60
A2
A2
7C
ENDCHAR
STARTCHAR U+3081
ENCODING 12417
SWIDTH 727 0
DWIDTH 8 0
BBX 7 7 0 0
BITMAP
48
7C
4A
AA
AA
B2
64
ENDCHAR
STARTCHAR U+3082
ENCODING 12418
SWIDTH 727 0
DWIDTH 8 0
BBX 6 7 0 0
BITMAP
40
F0
40
F4
44
44
38
ENDCHAR
STARTCHAR U+3083
ENCODING 12419
SWIDTH 727 0
DWIDTH 8 0
BBX 6 6 0 0
BITMAP
48
7C
C4
28
20
20
ENDCHAR
STARTCHAR U+3084
ENCODING 12420
SWIDTH 727 0
DWIDTH 8 0
BBX 7 7 0 0
BITMAP
90
5C
E2
42
4C
20
20
ENDCHAR
STARTCHAR U+3085
ENCODING 12421
SWIDTH 727 0
DWIDTH 8 0
BBX 6 6 0 0
BITMAP
10
B8
D4
94
98
20
ENDCHAR
STARTCHAR U+3086
ENCODING 12422
SWIDTH 727 0
DWIDTH 8 0
BBX 7 7 0 0
BITMAP
10
BC
D2
92
B2
9C
20
ENDCHAR
STARTCHAR U+3087
ENCODING 12423
SWIDTH 727 0
DWIDTH 8 0
BBX 6 6 0 0
BITMAP
10
1C
10
78
94
70
ENDCHAR
STARTCHAR U+3088
ENCODING 12424
SWIDTH 727 0
DWIDTH 8 0
BBX 6 7 0 0
BITMAP
10
1C
10
10
78
94
70
ENDCHAR
STARTCHAR U+3089
ENCODING 12425
SWIDTH 727 0
DWIDTH 8 0
BBX 7 7 0 0
BITMAP
38
80
BC
C2
82
02
3C
ENDCHAR
STARTCHAR U+308A
ENCODING 12426
SWIDTH 727 0
DWIDTH 8 0
BBX 6 7 0 0
BITMAP
98
A4
C4
84
84
08
30
ENDCHAR
STARTCHAR U+308B
ENCODING 12427
SWIDTH 727 0
DWIDTH 8 0
BBX 7 7 0 0
BITMAP
7C
10
7C
82
32
4A
3C
ENDCHAR
STARTCHAR U+308C
ENCODING 12428
SWIDTH 727 0
DWIDTH 8 0
BBX 7 7 0 0
BITMAP
58
E4
44
44
C4
46
44
ENDCHAR
STARTCHAR U+308D
ENCODING 12429
SWIDTH 727 0
DWIDTH 8 0
BBX 7 7 0 0
BITMAP
7C
10
3C
42
82
02
3C
ENDCHAR
STARTCHAR U+308E
ENCODING 12430
SWIDTH 727 0
DWIDTH 8 0
BBX 6 6 0 0
BITMAP
40
D8
64
C4
44
58
ENDCHAR
STARTCHAR U+308F
ENCODING 12431
SWIDTH 727 0
DWIDTH 8 0
BBX 7 7 0 0
BITMAP
40
5C
E2
42
C2
42
4C
ENDCHAR
STARTCHAR U+3090
ENCODING 12432
SWIDTH 727 0
DWIDTH 8 0
BBX 7 7 0 0
BITMAP
70
10
7C
A2
AA
D4
0A
ENDCHAR
STARTCHAR U+3091
ENCODING 12433
SWIDTH 727 0
DWIDTH 8 0
BBX 7 7 0 0
BITMAP
7C
08
3C
52
3C
6C
92
ENDCHAR
STARTCHAR U+3092
ENCODING 12434
SWIDTH 727 0
DWIDTH 8 0
BBX 7 7 0 0
BITMAP
10
FE
28
5E
94
20
1E
ENDCHAR
STARTCHAR U+3093
ENCODING 12435
SWIDTH 727 0
DWIDTH 8 0
BBX 7 7 0 0
BITMAP
20
20
40
62
52
92
8C
ENDCHAR
STARTCHAR U+3094
ENCODING 12436
SWIDTH 727 0
DWIDTH 8 0
BBX 7 7 0 0
BITMAP
7A
02
F8
04
04
08
70
ENDCHAR
STARTCHAR U+3095
ENCODING 12437
SWIDTH 727 0
DWIDTH 8 0
BBX 6 6 0 0
BITMAP
48
F4
48
48
88
90
ENDCHAR
STARTCHAR U+3096
ENCODING 12438
SWIDTH 727 0
DWIDTH 8 0
BBX 6 6 0 0
BITMAP
88
BC
88
88
88
B0
ENDCHAR
STARTCHAR U+3099
ENCODING 12441
SWIDTH 727 0
DWIDTH 8 0
BBX 3 2 4 5
BITMAP
A0
A0
ENDCHAR
STARTCHAR U+309A
ENCODING 12442
SWIDTH 727 0
DWIDTH 8 0
BBX 3 3 4 4
BITMAP
40
A0
40
ENDCHAR
STARTCHAR U+309B
ENCODING 12443
SWIDTH 727 0
DWIDTH 8 0
BBX 4 3 0 4
BITMAP
20
90
40
ENDCHAR
STARTCHAR U+309C
ENCODING 12444
SWIDTH 727 0
DWIDTH 8 0
BBX 3 3 0 4
BITMAP
40
A0
40
ENDCHAR
STARTCHAR U+309D
ENCODING 12445
SWIDTH 727 0
DWIDTH 8 0
BBX 4 5 1 1
BITMAP
80
40
20
70
10
ENDCHAR
STARTCHAR U+309E
ENCODING 12446
SWIDTH 727 0
DWIDTH 8 0
BBX 5 6 1 1
BITMAP
08
90
40
20
70
10
ENDCHAR
STARTCHAR U+30A0
ENCODING 12448
SWIDTH 727 0
DWIDTH 8 0
BBX 5 3 1 2
BITMAP
F8
00
F8
ENDCHAR
STARTCHAR U+30A1
ENCODING 12449
SWIDTH 727 0
DWIDTH 8 0
BBX 6 6 0 0
BITMAP
FC
04
24
28
20
40
ENDCHAR
STARTCHAR U+30A2
ENCODING 12450
SWIDTH 727 0
DWIDTH 8 0
BBX 7 7 0 0
BITMAP
FE
02
12
14
10
10
60
ENDCHAR
STARTCHAR U+30A3
ENCODING 12451
SWIDTH 727 0
DWIDTH 8 0
BBX 5 6 1 0
BITMAP
08
30
E0
20
20
20
ENDCHAR
STARTCHAR U+30A4
ENCODING 12452
SWIDTH 727 0
DWIDTH 8 0
BBX 6 7 0 0
BITMAP
04
08
30
D0
10
10
10
ENDCHAR
STARTCHAR U+30A5
ENCODING 12453
SWIDTH 727 0
DWIDTH 8 0
BBX 5 6 1 0
BITMAP
20
F8
88
08
10
60
ENDCHAR
STARTCHAR U+30A6
ENCODING 12454
SWIDTH 727 0
DWIDTH 8 0
BBX 6 7 0 0
BITMAP
20
FC
84
84
04
08
30
ENDCHAR
STARTCHAR U+30A7
ENCODING 12455
SWIDTH 727 0
DWIDTH 8 0
BBX 5 5 1 0
BITMAP
F8
20
20
20
F8
ENDCHAR
STARTCHAR U+30A8
ENCODING 12456
SWIDTH 727 0
DWIDTH 8 0
BBX 7 6 0 0
BITMAP
7C
10
10
10
10
FE
ENDCHAR
STARTCHAR U+30A9
ENCODING 12457
SWIDTH 727 0
DWIDTH 8 0
BBX 5 6 1 0
BITMAP
10
F8
30
50
90
30
ENDCHAR
STARTCHAR U+30AA
ENCODING 12458
SWIDTH 727 0
DWIDTH 8 0
BBX 7 7 0 0
BITMAP
08
FE
18
28
48
88
18
ENDCHAR
STARTCHAR U+30AB
ENCODING 12459
SWIDTH 727 0
DWIDTH 8 0
BBX 6 7 0 0
BITMAP
20
FC
24
24
24
44
98
ENDCHAR
STARTCHAR U+30AC
ENCODING 12460
SWIDTH 727 0
DWIDTH 8 0
BBX 7 7 0 0
BITMAP
2A
FC
24
24
24
44
98
ENDCHAR
STARTCHAR U+30AD
ENCODING 12461
SWIDTH 727 0
DWIDTH 8 0
BBX 7 7 0 0
BITMAP
20
2C
F0
1E
F0
08
08
ENDCHAR
STARTCHAR U+30AE
ENCODING 12462
SWIDTH 727 0
DWIDTH 8 0
BBX 7 7 0 0
BITMAP
2A
2C
F0
1E
F0
08
08
ENDCHAR
STARTCHAR U+30AF
ENCODING 12463
SWIDTH 727 0
DWIDTH 8 0
BBX 6 7 0 0
BITMAP
20
3C
44
84
08
10
60
ENDCHAR
STARTCHAR U+30B0
ENCODING 12464
SWIDTH 727 0
DWIDTH 8 0
BBX 7 7 0 0
BITMAP
22
3E
44
84
08
10
60
ENDCHAR
STARTCHAR U+30B1
ENCODING 12465
SWIDTH 727 0
DWIDTH 8 0
BBX 7 7 0 0
BITMAP
40
7E
48
88
08
10
60
ENDCHAR
STARTCHAR U+30B2
ENCODING 12466
SWIDTH 727 0
DWIDTH 8 0
BBX 7 7 0 0
BITMAP
42
7E
48
88
08
10
60
ENDCHAR
STARTCHAR U+30B3
ENCODING 12467
SWIDTH 727 0
DWIDTH 8 0
BBX 6 6 0 0
BITMAP
FC
04
04
04
04
FC
ENDCHAR
STARTCHAR U+30B4
ENCODING 12468
SWIDTH 727 0
DWIDTH 8 0
BBX 7 7 0 0
BITMAP
02
FE
04
04
04
04
FC
ENDCHAR
STARTCHAR U+30B5
ENCODING 12469
SWIDTH 727 0
DWIDTH 8 0
BBX 7 7 0 0
BITMAP
48
FE
48
48
08
08
30
ENDCHAR
STARTCHAR U+30B6
ENCODING 12470
SWIDTH 727 0
DWIDTH 8 0
BBX 7 7 0 0
BITMAP
4A
FE
48
48
08
08
30
ENDCHAR
STARTCHAR U+30B7
ENCODING 12471
SWIDTH 727 0
DWIDTH 8 0
BBX 7 7 0 0
BITMAP
40
20
82
42
04
18
E0
ENDCHAR
STARTCHAR U+30B8
ENCODING 12472
SWIDTH 727 0
DWIDTH 8 0
BBX 7 7 0 0
BITMAP
4A
20
82
42
04
18
E0
ENDCHAR
STARTCHAR U+30B9
ENCODING 12473
SWIDTH 727 0
DWIDTH 8 0
BBX 7 7 0 0
BITMAP
FC
04
08
10
28
44
82
ENDCHAR
STARTCHAR U+30BA
ENCODING 12474
SWIDTH 727 0
DWIDTH 8 0
BBX 7 7 0 0
BITMAP
FA
0A
08
10
28
44
82
ENDCHAR
STARTCHAR U+30BB
ENCODING 12475
SWIDTH 727 0
DWIDTH 8 0
BBX 7 7 0 0
BITMAP
40
5E
E2
44
40
40
3E
ENDCHAR
STARTCHAR U+30BC
ENCODING 12476
SWIDTH 727 0
DWIDTH 8 0
BBX 7 7 0 0
BITMAP
4A
40
FE
44
48
40
3E
ENDCHAR
STARTCHAR U+30BD
ENCODING 12477
SWIDTH 727 0
DWIDTH 8 0
BBX 6 7 0 0
BITMAP
84
44
44
04
08
10
60
ENDCHAR
STARTCHAR U+30BE
ENCODING 12478
SWIDTH 727 0
DWIDTH 8 0
BBX 7 7 0 0
BITMAP
8A
44
44
04
08
10
60
ENDCHAR
STARTCHAR U+30BF
ENCODING 12479
SWIDTH 727 0
DWIDTH 8 0
BBX 6 7 0 0
BITMAP
20
3C
44
A4
14
08
F0
ENDCHAR
STARTCHAR U+30C0
ENCODING 12480
SWIDTH 727 0
DWIDTH 8 0
BBX 7 7 0 0
BITMAP
22
3E
44
A4
14
08
F0
ENDCHAR
STARTCHAR U+30C1
ENCODING 12481
SWIDTH 727 0
DWIDTH 8 0
BBX 7 7 0 0
BITMAP
04
78
10
FE
10
10
60
ENDCHAR
STARTCHAR U+30C2
ENCODING 12482
SWIDTH 727 0
DWIDTH 8 0
BBX 7 7 0 0
BITMAP
04
7A
10
FE
10
10
60
ENDCHAR
STARTCHAR U+30C3
ENCODING 12483
SWIDTH 727 0
DWIDTH 8 0
BBX 6 6 0 0
BITMAP
A4
54
54
04
08
70
ENDCHAR
STARTCHAR U+30C4
ENCODING 12484
SWIDTH 727 0
DWIDTH 8 0
BBX 6 7 0 0
BITMAP
A4
54
54
04
08
10
60
ENDCHAR
STARTCHAR U+30C5
ENCODING 12485
SWIDTH 727 0
DWIDTH 8 0
BBX 7 7 0 0
BITMAP
A4
52
54
04
08
10
60
ENDCHAR
STARTCHAR U+30C6
ENCODING 12486
SWIDTH 727 0
DWIDTH 8 0
BBX 7 7 0 0
BITMAP
7C
00
FE
10
10
10
60
ENDCHAR
STARTCHAR U+30C7
ENCODING 12487
SWIDTH 727 0
DWIDTH 8 0
BBX 7 7 0 0
BITMAP
7A
02
FC
10
10
10
60
ENDCHAR
STARTCHAR U+30C8
ENCODING 12488
SWIDTH 727 0
DWIDTH 8 0
BBX 4 7 2 0
BITMAP
80
80
C0
A0
90
80
80
ENDCHAR
STARTCHAR U+30C9
ENCODING 12489
SWIDTH 727 0
DWIDTH 8 0
BBX 6 7 1 0
BITMAP
94
80
C0
A0
90
80
80
ENDCHAR
STARTCHAR U+30CA
ENCODING 12490
SWIDTH 727 0
DWIDTH 8 0
BBX 7 7 0 0
BITMAP
10
10
FE
10
10
10
60
ENDCHAR
STARTCHAR U+30CB
ENCODING 12491
SWIDTH 727 0
DWIDTH 8 0
BBX 7 5 0 1
BITMAP
7C
00
00
00
FE
ENDCHAR
STARTCHAR U+30CC
ENCODING 12492
SWIDTH 727 0
DWIDTH 8 0
BBX 6 7 0 0
BITMAP
FC
04
04
68
10
28
C4
ENDCHAR
STARTCHAR U+30CD
ENCODING 12493
SWIDTH 727 0
DWIDTH 8 0
BBX 7 7 0 0
BITMAP
10
7C
08
38
D6
10
10
ENDCHAR
STARTCHAR U+30CE
ENCODING 12494
SWIDTH 727 0
DWIDTH 8 0
BBX 5 7 0 0
BITMAP
08
08
10
10
20
40
80
ENDCHAR
STARTCHAR U+30CF
ENCODING 12495
SWIDTH 727 0
DWIDTH 8 0
BBX 7 7 0 0
BITMAP
28
28
28
28
44
44
82
ENDCHAR
STARTCHAR U+30D0
ENCODING 12496
SWIDTH 727 0
DWIDTH 8 0
BBX 7 7 0 0
BITMAP
2A
2A
28
28
44
44
82
ENDCHAR
STARTCHAR U+30D1
ENCODING 12497
SWIDTH 727 0
DWIDTH 8 0
BBX 7 7 0 0
BITMAP
2C
2A
2C
28
44
44
82
ENDCHAR
STARTCHAR U+30D2
ENCODING 12498
SWIDTH 727 0
DWIDTH 8 0
BBX 6 7 0 0
BITMAP
80
8C
F0
80
80
80
7C
ENDCHAR
STARTCHAR U+30D3
ENCODING 12499
SWIDTH 727 0
DWIDTH 8 0
BBX 7 7 0 0
BITMAP
8A
80
F8
80
80
80
7C
ENDCHAR
STARTCHAR U+30D4
ENCODING 12500
SWIDTH 727 0
DWIDTH 8 0
BBX 7 7 0 0
BITMAP
84
8A
F4
80
80
80
7C
ENDCHAR
STARTCHAR U+30D5
ENCODING 12501
SWIDTH 727 0
DWIDTH 8 0
BBX 6 6 0 0
BITMAP
FC
04
04
08
10
60
ENDCHAR
STARTCHAR U+30D6
ENCODING 12502
SWIDTH 727 0
DWIDTH 8 0
BBX 7 7 0 0
BITMAP
02
FE
04
04
08
10
60
ENDCHAR
STARTCHAR U+30D7
ENCODING 12503
SWIDTH 727 0
DWIDTH 8 0
BBX 7 7 0 0
BITMAP
06
FA
0C
08
08
10
60
ENDCHAR
STARTCHAR U+30D8
ENCODING 12504
SWIDTH 727 0
DWIDTH 8 0
BBX 7 5 0 1
BITMAP
20
50
88
84
02
ENDCHAR
STARTCHAR U+30D9
ENCODING 12505
SWIDTH 727 0
DWIDTH 8 0
BBX 7 6 0 1
BITMAP
0A
20
50
88
84
02
ENDCHAR
STARTCHAR U+30DA
ENCODING 12506
SWIDTH 727 0
DWIDTH 8 0
BBX 7 6 0 1
BITMAP
04
2A
54
88
84
02
ENDCHAR
STARTCHAR U+30DB
ENCODING 12507
SWIDTH 727 0
DWIDTH 8 0
BBX 7 7 0 0
BITMAP
10
FE
10
54
54
92
10
ENDCHAR
STARTCHAR U+30DC
ENCODING 12508
SWIDTH 727 0
DWIDTH 8 0
BBX 7 7 0 0
BITMAP
12
FE
10
54
54
92
10
ENDCHAR
STARTCHAR U+30DD
ENCODING 12509
SWIDTH 727 0
DWIDTH 8 0
BBX 7 7 0 0
BITMAP
16
FA
10
54
54
92
10
ENDCHAR
STARTCHAR U+30DE
ENCODING 12510
SWIDTH 727 0
DWIDTH 8 0
BBX 7 7 0 0
BITMAP
FE
02
02
04
68
10
08
ENDCHAR
STARTCHAR U+30DF
ENCODING 12511
SWIDTH 727 0
DWIDTH 8 0
BBX 6 7 0 0
BITMAP
F0
0C
E0
1C
00
F0
0C
ENDCHAR
STARTCHAR U+30E0
ENCODING 12512
SWIDTH 727 0
DWIDTH 8 0
BBX 7 7 0 0
BITMAP
10
10
20
24
44
42
FE
ENDCHAR
STARTCHAR U+30E1
ENCODING 12513
SWIDTH 727 0
DWIDTH 8 0
BBX 6 7 0 0
BITMAP
04
04
64
18
18
24
C0
ENDCHAR
STARTCHAR U+30E2
ENCODING 12514
SWIDTH 727 0
DWIDTH 8 0
BBX 7 7 0 0
BITMAP
FC
20
20
FE
20
20
1C
ENDCHAR
STARTCHAR U+30E3
ENCODING 12515
SWIDTH 727 0
DWIDTH 8 0
BBX 6 6 0 0
BITMAP
40
FC
44
28
20
20
ENDCHAR
STARTCHAR U+30E4
ENCODING 12516
SWIDTH 727 0
DWIDTH 8 0
BBX 7 7 0 0
BITMAP
40
FE
22
22
24
10
10
ENDCHAR
STARTCHAR U+30E5
ENCODING 12517
SWIDTH 727 0
DWIDTH 8 0
BBX 6 5 0 0
BITMAP
78
08
08
10
FC
ENDCHAR
STARTCHAR U+30E6
ENCODING 12518
SWIDTH 727 0
DWIDTH 8 0
BBX 7 7 0 0
BITMAP
7C
04
04
04
08
08
FE
ENDCHAR
STARTCHAR U+30E7
ENCODING 12519
SWIDTH 727 0
DWIDTH 8 0
BBX 5 5 1 0
BITMAP
F8
08
F8
08
F8
ENDCHAR
STARTCHAR U+30E8
ENCODING 12520
SWIDTH 727 0
DWIDTH 8 0
BBX 6 7 0 0
BITMAP
FC
04
04
FC
04
04
FC
ENDCHAR
STARTCHAR U+30E9
ENCODING 12521
SWIDTH 727 0
DWIDTH 8 0
BBX 7 7 0 0
BITMAP
7C
00
FE
02
02
0C
70
ENDCHAR
STARTCHAR U+30EA
ENCODING 12522
SWIDTH 727 0
DWIDTH 8 0
BBX 6 7 0 0
BITMAP
84
84
84
84
04
08
30
ENDCHAR
STARTCHAR U+30EB
ENCODING 12523
SWIDTH 727 0
DWIDTH 8 0
BBX 7 7 0 0
BITMAP
50
50
50
52
52
54
98
ENDCHAR
STARTCHAR U+30EC
ENCODING 12524
SWIDTH 727 0
DWIDTH 8 0
BBX 6 7 0 0
BITMAP
80
80
84
84
88
90
E0
ENDCHAR
STARTCHAR U+30ED
ENCODING 12525
SWIDTH 727 0
DWIDTH 8 0
BBX 6 7 0 0
BITMAP
FC
84
84
84
84
84
FC
ENDCHAR
STARTCHAR U+30EE
ENCODING 12526
SWIDTH 727 0
DWIDTH 8 0
BBX 5 5 1 0
BITMAP
F8
88
88
10
60
ENDCHAR
STARTCHAR U+30EF
ENCODING 12527
SWIDTH 727 0
DWIDTH 8 0
BBX 6 7 0 0
BITMAP
FC
84
84
04
04
08
70
ENDCHAR
STARTCHAR U+30F0
ENCODING 12528
SWIDTH 727 0
DWIDTH 8 0
BBX 7 7 0 0
BITMAP
08
FE
48
48
FE
08
08
ENDCHAR
STARTCHAR U+30F1
ENCODING 12529
SWIDTH 727 0
DWIDTH 8 0
BBX 7 7 0 0
BITMAP
7C
04
18
10
10
10
FE
ENDCHAR
STARTCHAR U+30F2
ENCODING 12530
SWIDTH 727 0
DWIDTH 8 0
BBX 6 7 0 0
BITMAP
FC
04
FC
04
04
08
70
ENDCHAR
STARTCHAR U+30F3
ENCODING 12531
SWIDTH 727 0
DWIDTH 8 0
BBX 7 7 0 0
BITMAP
C0
22
02
02
04
08
F0
ENDCHAR
STARTCHAR U+30F4
ENCODING 12532
SWIDTH 727 0
DWIDTH 8 0
BBX 7 7 0 0
BITMAP
22
FE
84
84
04
08
70
ENDCHAR
STARTCHAR U+30F5
ENCODING 12533
SWIDTH 727 0
DWIDTH 8 0
BBX 6 6 0 0
BITMAP
20
FC
24
24
44
98
ENDCHAR
STARTCHAR U+30F6
ENCODING 12534
SWIDTH 727 0
DWIDTH 8 0
BBX 7 6 0 0
BITMAP
40
7E
48
88
08
30
ENDCHAR
STARTCHAR U+30F7
ENCODING 12535
SWIDTH 727 0
DWIDTH 8 0
BBX 7 7 0 0
BITMAP
0A
FC
84
84
04
08
70
ENDCHAR
STARTCHAR U+30F8
ENCODING 12536
SWIDTH 727 0
DWIDTH 8 0
BBX 7 7 0 0
BITMAP
0A
FE
48
48
FE
08
08
ENDCHAR
STARTCHAR U+30F9
ENCODING 12537
SWIDTH 727 0
DWIDTH 8 0
BBX 7 7 0 0
BITMAP
0A
7C
04
18
10
10
FE
ENDCHAR
STARTCHAR U+30FA
ENCODING 12538
SWIDTH 727 0
DWIDTH 8 0
BBX 7 7 0 0
BITMAP
0A
FC
04
FC
04
08
70
ENDCHAR
STARTCHAR U+30FB
ENCODING 12539
SWIDTH 727 0
DWIDTH 8 0
BBX 2 2 2 3
BITMAP
C0
C0
ENDCHAR
STARTCHAR U+30FC
ENCODING 12540
SWIDTH 727 0
DWIDTH 8 0
BBX 6 1 0 3
BITMAP
FC
ENDCHAR
STARTCHAR U+30FD
ENCODING 12541
SWIDTH 727 0
DWIDTH 8 0
BBX 4 4 1 2
BITMAP
80
40
20
10
ENDCHAR
STARTCHAR U+30FE
ENCODING 12542
SWIDTH 727 0
DWIDTH 8 0
BBX 5 5 1 2
BITMAP
08
90
40
20
10
ENDCHAR
STARTCHAR U+3131
ENCODING 12593
SWIDTH 727 0
DWIDTH 8 0
BBX 5 5 1 1
BITMAP
F8
08
08
08
08
ENDCHAR
STARTCHAR U+3132
ENCODING 12594
SWIDTH 727 0
DWIDTH 8 0
BBX 5 5 1 1
BITMAP
F8
28
28
28
28
ENDCHAR
STARTCHAR U+3133
ENCODING 12595
SWIDTH 727 0
DWIDTH 8 0
BBX 5 5 1 1
BITMAP
F8
08
08
08
08
ENDCHAR
STARTCHAR U+3134
ENCODING 12596
SWIDTH 727 0
DWIDTH 8 0
BBX 5 5 1 1
BITMAP
80
80
80
80
F8
ENDCHAR
STARTCHAR U+3135
ENCODING 12597
SWIDTH 727 0
DWIDTH 8 0
BBX 7 5 0 1
BITMAP
8E
84
84
8A
EA
ENDCHAR
STARTCHAR U+3136
ENCODING 12598
SWIDTH 727 0
DWIDTH 8 0
BBX 7 6 0 1
BITMAP
04
8E
84
8A
8A
E4
ENDCHAR
STARTCHAR U+3137
ENCODING 12599
SWIDTH 727 0
DWIDTH 8 0
BBX 5 5 1 1
BITMAP
F8
80
80
80
F8
ENDCHAR
STARTCHAR U+3138
ENCODING 12600
SWIDTH 727 0
DWIDTH 8 0
BBX 5 5 1 1
BITMAP
F8
A0
A0
A0
F8
ENDCHAR
STARTCHAR U+3139
ENCODING 12601
SWIDTH 727 0
DWIDTH 8 0
BBX 5 5 1 1
BITMAP
F8
08
F8
80
F8
ENDCHAR
STARTCHAR U+313A
ENCODING 12602
SWIDTH 727 0
DWIDTH 8 0
BBX 7 5 0 1
BITMAP
EE
22
E2
82
E2
ENDCHAR
STARTCHAR U+313B
ENCODING 12603
SWIDTH 727 0
DWIDTH 8 0
BBX 7 5 0 1
BITMAP
EE
2A
EA
8A
EE
ENDCHAR
STARTCHAR U+313C
ENCODING 12604
SWIDTH 727 0
DWIDTH 8 0
BBX 7 5 0 1
BITMAP
EA
2A
EE
8A
EE
ENDCHAR
STARTCHAR U+313D
ENCODING 12605
SWIDTH 727 0
DWIDTH 8 0
BBX 7 5 0 1
BITMAP
E4
24
EA
8A
EA
ENDCHAR
STARTCHAR U+313E
ENCODING 12606
SWIDTH 727 0
DWIDTH 8 0
BBX 7 5 0 1
BITMAP
EE
28
EE
88
EE
ENDCHAR
STARTCHAR U+313F
ENCODING 12607
SWIDTH 727 0
DWIDTH 8 0
BBX 7 5 0 1
BITMAP
FE
20
EC
8C
FE
ENDCHAR
STARTCHAR U+3140
ENCODING 12608
SWIDTH 727 0
DWIDTH 8 0
BBX 7 6 0 1
BITMAP
04
EE
24
EA
8A
E4
ENDCHAR
STARTCHAR U+3141
ENCODING 12609
SWIDTH 727 0
DWIDTH 8 0
BBX 5 5 1 1
BITMAP
F8
88
88
88
F8
ENDCHAR
STARTCHAR U+3142
ENCODING 12610
SWIDTH 727 0
DWIDTH 8 0
BBX 5 5 1 1
BITMAP
88
88
F8
88
F8
ENDCHAR
STARTCHAR U+3143
ENCODING 12611
SWIDTH 727 0
DWIDTH 8 0
BBX 7 5 0 1
BITMAP
AA
AA
EE
AA
EE
ENDCHAR
STARTCHAR U+3144
ENCODING 12612
SWIDTH 727 0
DWIDTH 8 0
BBX 7 5 0 1
BITMAP
A4
A4
EA
AA
EA
ENDCHAR
STARTCHAR U+3145
ENCODING 12613
SWIDTH 727 0
DWIDTH 8 0
BBX 5 5 1 1
BITMAP
20
20
50
50
88
ENDCHAR
STARTCHAR U+3146
ENCODING 12614
SWIDTH 727 0
DWIDTH 8 0
BBX 7 5 0 1
BITMAP
28
28
54
54
92
ENDCHAR
STARTCHAR U+3147
ENCODING 12615
SWIDTH 727 0
DWIDTH 8 0
BBX 5 5 1 1
BITMAP
70
88
88
88
70
ENDCHAR
STARTCHAR U+3148
ENCODING 12616
SWIDTH 727 0
DWIDTH 8 0
BBX 5 5 1 1
BITMAP
F8
20
50
50
88
ENDCHAR
STARTCHAR U+3149
ENCODING 12617
SWIDTH 727 0
DWIDTH 8 0
BBX 7 5 0 1
BITMAP
FE
28
54
54
92
ENDCHAR
STARTCHAR U+314A
ENCODING 12618
SWIDTH 727 0
DWIDTH 8 0
BBX 5 6 1 1
BITMAP
20
F8
20
50
50
88
ENDCHAR
STARTCHAR U+314B
ENCODING 12619
SWIDTH 727 0
DWIDTH 8 0
BBX 5 5 1 1
BITMAP
F8
08
F8
08
08
ENDCHAR
STARTCHAR U+314C
ENCODING 12620
SWIDTH 727 0
DWIDTH 8 0
BBX 5 5 1 1
BITMAP
F8
80
F8
80
F8
ENDCHAR
STARTCHAR U+314D
ENCODING 12621
SWIDTH 727 0
DWIDTH 8 0
BBX 5 5 1 1
BITMAP
F8
50
50
50
F8
ENDCHAR
STARTCHAR U+314E
ENCODING 12622
SWIDTH 727 0
DWIDTH 8 0
BBX 5 6 1 1
BITMAP
20
F8
70
88
88
70
ENDCHAR
STARTCHAR U+314F
ENCODING 12623
SWIDTH 727 0
DWIDTH 8 0
BBX 3 7 2 0
BITMAP
80
80
80
E0
80
80
80
ENDCHAR
STARTCHAR U+3150
ENCODING 12624
SWIDTH 727 0
DWIDTH 8 0
BBX 3 7 2 0
BITMAP
A0
A0
A0
E0
A0
A0
A0
ENDCHAR
STARTCHAR U+3151
ENCODING 12625
SWIDTH 727 0
DWIDTH 8 0
BBX 3 7 2 0
BITMAP
80
80
E0
80
E0
80
80
ENDCHAR
STARTCHAR U+3152
ENCODING 12626
SWIDTH 727 0
DWIDTH 8 0
BBX 3 7 2 0
BITMAP
A0
A0
E0
A0
E0
A0
A0
ENDCHAR
STARTCHAR U+3153
ENCODING 12627
SWIDTH 727 0
DWIDTH 8 0
BBX 3 7 2 0
BITMAP
20
20
20
E0
20
20
20
ENDCHAR
STARTCHAR U+3154
ENCODING 12628
SWIDTH 727 0
DWIDTH 8 0
BBX 5 7 1 0
BITMAP
28
28
28
E8
28
28
28
ENDCHAR
STARTCHAR U+3155
ENCODING 12629
SWIDTH 727 0
DWIDTH 8 0
BBX 3 7 2 0
BITMAP
20
20
E0
20
E0
20
20
ENDCHAR
STARTCHAR U+3156
ENCODING 12630
SWIDTH 727 0
DWIDTH 8 0
BBX 5 7 1 0
BITMAP
28
28
E8
28
E8
28
28
ENDCHAR
STARTCHAR U+3157
ENCODING 12631
SWIDTH 727 0
DWIDTH 8 0
BBX 7 3 0 2
BITMAP
10
10
FE
ENDCHAR
STARTCHAR U+3158
ENCODING 12632
SWIDTH 727 0
DWIDTH 8 0
BBX 7 7 0 0
BITMAP
04
04
04
46
44
F4
04
ENDCHAR
STARTCHAR U+3159
ENCODING 12633
SWIDTH 727 0
DWIDTH 8 0
BBX 7 7 0 0
BITMAP
0A
0A
0A
4E
4A
FA
0A
ENDCHAR
STARTCHAR U+315A
ENCODING 12634
SWIDTH 727 0
DWIDTH 8 0
BBX 6 7 0 0
BITMAP
04
04
04
44
44
F4
04
ENDCHAR
STARTCHAR U+315B
ENCODING 12635
SWIDTH 727 0
DWIDTH 8 0
BBX 7 3 0 2
BITMAP
28
28
FE
ENDCHAR
STARTCHAR U+315C
ENCODING 12636
SWIDTH 727 0
DWIDTH 8 0
BBX 7 3 0 2
BITMAP
FE
10
10
ENDCHAR
STARTCHAR U+315D
ENCODING 12637
SWIDTH 727 0
DWIDTH 8 0
BBX 6 7 0 0
BITMAP
04
04
04
F4
4C
44
44
ENDCHAR
STARTCHAR U+315E
ENCODING 12638
SWIDTH 727 0
DWIDTH 8 0
BBX 7 7 0 0
BITMAP
0A
0A
0A
EA
5A
4A
4A
ENDCHAR
STARTCHAR U+315F
ENCODING 12639
SWIDTH 727 0
DWIDTH 8 0
BBX 6 7 0 0
BITMAP
04
04
04
F4
44
44
44
ENDCHAR
STARTCHAR U+3160
ENCODING 12640
SWIDTH 727 0
DWIDTH 8 0
BBX 7 3 0 2
BITMAP
FE
28
28
ENDCHAR
STARTCHAR U+3161
ENCODING 12641
SWIDTH 727 0
DWIDTH 8 0
BBX 7 1 0 3
BITMAP
FE
ENDCHAR
STARTCHAR U+3162
ENCODING 12642
SWIDTH 727 0
DWIDTH 8 0
BBX 6 7 0 0
BITMAP
04
04
04
04
04
F4
04
ENDCHAR
STARTCHAR U+3163
ENCODING 12643
SWIDTH 727 0
DWIDTH 8 0
BBX 1 7 3 0
BITMAP
80
80
80
80
80
80
80
ENDCHAR
STARTCHAR U+321C
ENCODING 12828
SWIDTH 727 0
DWIDTH 8 0
BBX 7 7 0 0
BITMAP
44
BA
92
AA
FE
92
54
ENDCHAR
STARTCHAR U+3231
ENCODING 12849
SWIDTH 727 0
DWIDTH 8 0
BBX 7 7 0 0
BITMAP
44
AA
FE
AA
BE
AA
44
ENDCHAR
STARTCHAR U+3232
ENCODING 12850
SWIDTH 727 0
DWIDTH 8 0
BBX 7 7 0 0
BITMAP
64
FA
A2
FA
AA
BA
6C
ENDCHAR
STARTCHAR U+3239
ENCODING 12857
SWIDTH 727 0
DWIDTH 8 0
BBX 7 7 0 0
BITMAP
44
AA
FE
AA
AA
AA
44
ENDCHAR
STARTCHAR U+327E
ENCODING 12926
SWIDTH 727 0
DWIDTH 8 0
BBX 7 7 0 0
BITMAP
38
54
AA
FE
92
54
38
ENDCHAR
STARTCHAR U+327F
ENCODING 12927
SWIDTH 727 0
DWIDTH 8 0
BBX 7 7 0 0
BITMAP
38
44
A8
F6
2A
44
38
ENDCHAR
STARTCHAR U+32A4
ENCODING 12964
SWIDTH 727 0
DWIDTH 8 0
BBX 7 7 0 0
BITMAP
38
54
9A
92
BA
44
38
ENDCHAR
STARTCHAR U+32A5
ENCODING 12965
SWIDTH 727 0
DWIDTH 8 0
BBX 7 7 0 0
BITMAP
38
54
BA
AA
BA
54
38
ENDCHAR
STARTCHAR U+32A6
ENCODING 12966
SWIDTH 727 0
DWIDTH 8 0
BBX 7 7 0 0
BITMAP
38
44
BA
92
9A
54
38
ENDCHAR
STARTCHAR U+32A7
ENCODING 12967
SWIDTH 727 0
DWIDTH 8 0
BBX 7 7 0 0
BITMAP
38
54
A2
DE
8A
5C
38
ENDCHAR
STARTCHAR U+32A8
ENCODING 12968
SWIDTH 727 0
DWIDTH 8 0
BBX 7 7 0 0
BITMAP
38
54
BA
A2
DE
54
38
ENDCHAR
STARTCHAR U+3303
ENCODING 13059
SWIDTH 727 0
DWIDTH 8 0
BBX 7 7 0 0
BITMAP
F0
50
46
80
20
A8
B0
ENDCHAR
STARTCHAR U+330D
ENCODING 13069
SWIDTH 727 0
DWIDTH 8 0
BBX 7 7 0 0
BITMAP
EE
AA
0E
A0
AE
20
40
ENDCHAR
STARTCHAR U+3314
ENCODING 13076
SWIDTH 727 0
DWIDTH 8 0
BBX 7 7 0 0
BITMAP
40
E0
40
F0
4E
0A
0E
ENDCHAR
STARTCHAR U+3318
ENCODING 13080
SWIDTH 727 0
DWIDTH 8 0
BBX 7 7 0 0
BITMAP
EE
A0
2E
42
44
90
F0
ENDCHAR
STARTCHAR U+3322
ENCODING 13090
SWIDTH 727 0
DWIDTH 8 0
BBX 7 7 0 0
BITMAP
EA
82
EC
40
E0
40
80
ENDCHAR
STARTCHAR U+3323
ENCODING 13091
SWIDTH 727 0
DWIDTH 8 0
BBX 7 7 0 0
BITMAP
EA
82
6C
80
C0
A0
80
ENDCHAR
STARTCHAR U+3326
ENCODING 13094
SWIDTH 727 0
DWIDTH 8 0
BBX 7 7 0 0
BITMAP
A0
80
C0
B4
14
14
26
ENDCHAR
STARTCHAR U+3327
ENCODING 13095
SWIDTH 727 0
DWIDTH 8 0
BBX 6 7 1 0
BITMAP
80
C0
A0
80
34
04
38
ENDCHAR
STARTCHAR U+332B
ENCODING 13099
SWIDTH 727 0
DWIDTH 8 0
BBX 7 7 0 0
BITMAP
58
56
88
04
EC
96
E4
ENDCHAR
STARTCHAR U+3336
ENCODING 13110
SWIDTH 727 0
DWIDTH 8 0
BBX 7 7 0 0
BITMAP
4E
AA
12
E4
A4
6C
D6
ENDCHAR
STARTCHAR U+333B
ENCODING 13115
SWIDTH 727 0
DWIDTH 8 0
BBX 7 7 0 0
BITMAP
50
A6
10
00
B0
20
C0
ENDCHAR
STARTCHAR U+3349
ENCODING 13129
SWIDTH 727 0
DWIDTH 8 0
BBX 7 7 0 0
BITMAP
C0
20
C0
2A
CA
22
0C
ENDCHAR
STARTCHAR U+334A
ENCODING 13130
SWIDTH 727 0
DWIDTH 8 0
BBX 7 7 0 0
BITMAP
CA
2A
C2
24
AA
BA
AA
ENDCHAR
STARTCHAR U+334D
ENCODING 13133
SWIDTH 727 0
DWIDTH 8 0
BBX 7 7 0 0
BITMAP
A0
4E
A0
00
94
D4
A6
ENDCHAR
STARTCHAR U+3351
ENCODING 13137
SWIDTH 727 0
DWIDTH 8 0
BBX 7 7 0 0
BITMAP
AA
A2
2C
40
94
D4
A6
ENDCHAR
STARTCHAR U+3357
ENCODING 13143
SWIDTH 727 0
DWIDTH 8 0
BBX 7 7 0 0
BITMAP
EA
A2
24
40
80
C0
A0
ENDCHAR
STARTCHAR U+337B
ENCODING 13179
SWIDTH 727 0
DWIDTH 8 0
BBX 7 7 0 0
BITMAP
E4
5E
F4
5C
F6
54
6A
ENDCHAR
STARTCHAR U+337C
ENCODING 13180
SWIDTH 727 0
DWIDTH 8 0
BBX 7 7 0 0
BITMAP
F0
AE
BA
9A
EA
AE
F0
ENDCHAR
STARTCHAR U+337D
ENCODING 13181
SWIDTH 727 0
DWIDTH 8 0
BBX 7 7 0 0
BITMAP
5E
E4
44
56
54
B4
BE
ENDCHAR
STARTCHAR U+337E
ENCODING 13182
SWIDTH 727 0
DWIDTH 8 0
BBX 7 7 0 0
BITMAP
F8
AA
FE
A8
FE
2A
4E
ENDCHAR
STARTCHAR U+338E
ENCODING 13198
SWIDTH 727 0
DWIDTH 8 0
BBX 7 6 0 0
BITMAP
C4
AA
AA
A6
A2
AE
ENDCHAR
STARTCHAR U+338F
ENCODING 13199
SWIDTH 727 0
DWIDTH 8 0
BBX 7 7 0 0
BITMAP
A0
A6
CA
8A
C6
A2
AE
ENDCHAR
STARTCHAR U+339C
ENCODING 13212
SWIDTH 727 0
DWIDTH 8 0
BBX 7 6 0 0
BITMAP
D4
AA
AA
AA
AA
AA
ENDCHAR
STARTCHAR U+339D
ENCODING 13213
SWIDTH 727 0
DWIDTH 8 0
BBX 7 6 0 0
BITMAP
7C
AA
8A
8A
AA
6A
ENDCHAR
STARTCHAR U+339E
ENCODING 13214
SWIDTH 727 0
DWIDTH 8 0
BBX 7 7 0 0
BITMAP
A0
A0
DC
8A
CA
AA
AA
ENDCHAR
STARTCHAR U+33A1
ENCODING 13217
SWIDTH 727 0
DWIDTH 8 0
BBX 7 8 0 0
BITMAP
0C
02
D4
AE
A8
A8
A8
A8
ENDCHAR
STARTCHAR U+33A5
ENCODING 13221
SWIDTH 727 0
DWIDTH 8 0
BBX 7 8 0 0
BITMAP
0E
04
D2
AC
A8
A8
A8
A8
ENDCHAR
STARTCHAR U+33C4
ENCODING 13252
SWIDTH 727 0
DWIDTH 8 0
BBX 7 6 0 0
BITMAP
44
AA
88
88
AA
44
ENDCHAR
STARTCHAR U+33CD
ENCODING 13261
SWIDTH 727 0
DWIDTH 8 0
BBX 7 7 0 0
BITMAP
AA
AA
CC
88
CC
AA
BA
ENDCHAR
STARTCHAR U+4E01
ENCODING 19969
SWIDTH 727 0
DWIDTH 8 0
BBX 7 7 0 0
BITMAP
FE
10
10
10
10
10
30
ENDCHAR
STARTCHAR U+4E03
ENCODING 19971
SWIDTH 727 0
DWIDTH 8 0
BBX 7 7 0 0
BITMAP
20
20
FE
20
20
22
3E
ENDCHAR
STARTCHAR U+4E07
ENCODING 19975
SWIDTH 727 0
DWIDTH 8 0
BBX 7 7 0 0
BITMAP
FE
20
20
3E
22
42
8E
ENDCHAR
STARTCHAR U+4E08
ENCODING 19976
SWIDTH 727 0
DWIDTH 8 0
BBX 7 7 0 0
BITMAP
10
FE
10
50
30
30
CE
ENDCHAR
STARTCHAR U+4E09
ENCODING 19977
SWIDTH 727 0
DWIDTH 8 0
BBX 7 7 0 0
BITMAP
FE
00
00
7C
00
00
FE
ENDCHAR
STARTCHAR U+4E0A
ENCODING 19978
SWIDTH 727 0
DWIDTH 8 0
BBX 7 7 0 0
BITMAP
10
10
1C
10
10
10
FE
ENDCHAR
STARTCHAR U+4E0B
ENCODING 19979
SWIDTH 727 0
DWIDTH 8 0
BBX 7 7 0 0
BITMAP
FE
10
18
14
10
10
10
ENDCHAR
STARTCHAR U+4E0D
ENCODING 19981
SWIDTH 727 0
DWIDTH 8 0
BBX 7 7 0 0
BITMAP
FE
10
38
54
92
10
10
ENDCHAR
STARTCHAR U+4E0E
ENCODING 19982
SWIDTH 727 0
DWIDTH 8 0
BBX 7 7 0 0
BITMAP
7C
40
7C
04
FE
04
1C
ENDCHAR
STARTCHAR U+4E10
ENCODING 19984
SWIDTH 727 0
DWIDTH 8 0
BBX 7 7 0 0
BITMAP
FE
10
9E
90
FE
02
0E
ENDCHAR
STARTCHAR U+4E11
ENCODING 19985
SWIDTH 727 0
DWIDTH 8 0
BBX 7 7 0 0
BITMAP
7C
24
24
FE
24
24
FE
ENDCHAR
STARTCHAR U+4E14
ENCODING 19988
SWIDTH 727 0
DWIDTH 8 0
BBX 7 7 0 0
BITMAP
7C
44
7C
44
7C
44
FE
ENDCHAR
STARTCHAR U+4E15
ENCODING 19989
SWIDTH 727 0
DWIDTH 8 0
BBX 7 7 0 0
BITMAP
FE
10
38
54
92
10
FE
ENDCHAR
STARTCHAR U+4E16
ENCODING 19990
SWIDTH 727 0
DWIDTH 8 0
BBX 7 7 0 0
BITMAP
54
54
FE
54
5C
40
7E
ENDCHAR
STARTCHAR U+4E17
ENCODING 19991
SWIDTH 727 0
DWIDTH 8 0
BBX 7 7 0 0
BITMAP
54
54
FE
54
54
54
7C
ENDCHAR
STARTCHAR U+4E18
ENCODING 19992
SWIDTH 727 0
DWIDTH 8 0
BBX 7 7 0 0
BITMAP
7C
40
7E
48
48
48
FE
ENDCHAR
STARTCHAR U+4E19
ENCODING 19993
SWIDTH 727 0
DWIDTH 8 0
BBX 7 7 0 0
BITMAP
FE
10
FE
92
92
AA
86
ENDCHAR
STARTCHAR U+4E1E
ENCODING 19998
SWIDTH 727 0
DWIDTH 8 0
BBX 7 7 0 0
BITMAP
78
10
DA
54
92
00
FE
ENDCHAR
STARTCHAR U+4E21
ENCODING 20001
SWIDTH 727 0
DWIDTH 8 0
BBX 7 7 0 0
BITMAP
FE
10
FE
92
92
BA
86
ENDCHAR
STARTCHAR U+4E26
ENCODING 20006
SWIDTH 727 0
DWIDTH 8 0
BBX 7 7 0 0
BITMAP
44
FE
28
AA
AA
28
FE
ENDCHAR
STARTCHAR U+4E2A
ENCODING 20010
SWIDTH 727 0
DWIDTH 8 0
BBX 7 7 0 0
BITMAP
10
28
44
92
10
10
10
ENDCHAR
STARTCHAR U+4E2D
ENCODING 20013
SWIDTH 727 0
DWIDTH 8 0
BBX 7 7 0 0
BITMAP
10
FE
92
92
FE
10
10
ENDCHAR
STARTCHAR U+4E31
ENCODING 20017
SWIDTH 727 0
DWIDTH 8 0
BBX 7 7 0 0
BITMAP
28
AA
AA
AA
EE
28
48
ENDCHAR
STARTCHAR U+4E32
ENCODING 20018
SWIDTH 727 0
DWIDTH 8 0
BBX 7 7 0 0
BITMAP
10
7C
54
FE
92
FE
10
ENDCHAR
STARTCHAR U+4E36
ENCODING 20022
SWIDTH 727 0
DWIDTH 8 0
BBX 4 4 1 2
BITMAP
80
40
20
10
ENDCHAR
STARTCHAR U+4E38
ENCODING 20024
SWIDTH 727 0
DWIDTH 8 0
BBX 7 7 0 0
BITMAP
20
FC
24
A4
64
54
86
ENDCHAR
STARTCHAR U+4E39
ENCODING 20025
SWIDTH 727 0
DWIDTH 8 0
BBX 7 7 0 0
BITMAP
7C
44
54
FE
44
44
8C
ENDCHAR
STARTCHAR U+4E3B
ENCODING 20027
SWIDTH 727 0
DWIDTH 8 0
BBX 7 7 0 0
BITMAP
20
10
FE
10
7C
10
FE
ENDCHAR
STARTCHAR U+4E3C
ENCODING 20028
SWIDTH 727 0
DWIDTH 8 0
BBX 7 7 0 0
BITMAP
44
FE
44
54
FE
44
84
ENDCHAR
STARTCHAR U+4E3F
ENCODING 20031
SWIDTH 727 0
DWIDTH 8 0
BBX 3 7 1 0
BITMAP
20
20
20
20
20
40
80
ENDCHAR
STARTCHAR U+4E42
ENCODING 20034
SWIDTH 727 0
DWIDTH 8 0
BBX 7 7 0 0
BITMAP
44
44
44
28
10
28
C6
ENDCHAR
STARTCHAR U+4E43
ENCODING 20035
SWIDTH 727 0
DWIDTH 8 0
BBX 7 7 0 0
BITMAP
F8
48
4E
42
42
42
8E
ENDCHAR
STARTCHAR U+4E45
ENCODING 20037
SWIDTH 727 0
DWIDTH 8 0
BBX 7 7 0 0
BITMAP
78
48
88
10
30
48
86
ENDCHAR
STARTCHAR U+4E4B
ENCODING 20043
SWIDTH 727 0
DWIDTH 8 0
BBX 7 7 0 0
BITMAP
10
FE
04
08
30
60
9E
ENDCHAR
STARTCHAR U+4E4D
ENCODING 20045
SWIDTH 727 0
DWIDTH 8 0
BBX 7 7 0 0
BITMAP
40
7E
90
1E
10
1E
10
ENDCHAR
STARTCHAR U+4E4E
ENCODING 20046
SWIDTH 727 0
DWIDTH 8 0
BBX 7 7 0 0
BITMAP
7C
10
92
54
FE
10
30
ENDCHAR
STARTCHAR U+4E4F
ENCODING 20047
SWIDTH 727 0
DWIDTH 8 0
BBX 7 7 0 0
BITMAP
7C
10
FE
04
18
60
9E
ENDCHAR
STARTCHAR U+4E55
ENCODING 20053
SWIDTH 727 0
DWIDTH 8 0
BBX 7 7 0 0
BITMAP
FE
88
BE
88
BE
AA
AA
ENDCHAR
STARTCHAR U+4E56
ENCODING 20054
SWIDTH 727 0
DWIDTH 8 0
BBX 7 7 0 0
BITMAP
7C
10
FE
54
D6
54
D6
ENDCHAR
STARTCHAR U+4E57
ENCODING 20055
SWIDTH 727 0
DWIDTH 8 0
BBX 7 7 0 0
BITMAP
FE
10
FE
54
FE
38
D6
ENDCHAR
STARTCHAR U+4E58
ENCODING 20056
SWIDTH 727 0
DWIDTH 8 0
BBX 7 7 0 0
BITMAP
7C
10
FE
54
D6
38
D6
ENDCHAR
STARTCHAR U+4E59
ENCODING 20057
SWIDTH 727 0
DWIDTH 8 0
BBX 7 7 0 0
BITMAP
F8
10
20
40
82
82
7C
ENDCHAR
STARTCHAR U+4E5D
ENCODING 20061
SWIDTH 727 0
DWIDTH 8 0
BBX 7 7 0 0
BITMAP
20
F8
28
28
28
4A
8E
ENDCHAR
STARTCHAR U+4E5E
ENCODING 20062
SWIDTH 727 0
DWIDTH 8 0
BBX 7 7 0 0
BITMAP
7E
80
7C
08
30
42
7E
ENDCHAR
STARTCHAR U+4E5F
ENCODING 20063
SWIDTH 727 0
DWIDTH 8 0
BBX 7 7 0 0
BITMAP
50
5E
72
D6
50
42
7E
ENDCHAR
STARTCHAR U+4E62
ENCODING 20066
SWIDTH 727 0
DWIDTH 8 0
BBX 7 7 0 0
BITMAP
28
28
A8
A8
AA
FA
0E
ENDCHAR
STARTCHAR U+4E71
ENCODING 20081
SWIDTH 727 0
DWIDTH 8 0
BBX 7 7 0 0
BITMAP
E8
48
E8
48
EA
AA
EE
ENDCHAR
STARTCHAR U+4E73
ENCODING 20083
SWIDTH 727 0
DWIDTH 8 0
BBX 7 7 0 0
BITMAP
F8
A8
F8
48
FA
4A
CE
ENDCHAR
STARTCHAR U+4E7E
ENCODING 20094
SWIDTH 727 0
DWIDTH 8 0
BBX 7 7 0 0
BITMAP
EE
50
EE
A4
E8
4A
4E
ENDCHAR
STARTCHAR U+4E80
ENCODING 20096
SWIDTH 727 0
DWIDTH 8 0
BBX 7 7 0 0
BITMAP
78
88
FE
92
FE
10
1E
ENDCHAR
STARTCHAR U+4E82
ENCODING 20098
SWIDTH 727 0
DWIDTH 8 0
BBX 7 7 0 0
BITMAP
F4
24
F4
94
F4
94
96
ENDCHAR
STARTCHAR U+4E85
ENCODING 20101
SWIDTH 727 0
DWIDTH 8 0
BBX 2 7 2 0
BITMAP
40
40
40
40
40
40
C0
ENDCHAR
STARTCHAR U+4E86
ENCODING 20102
SWIDTH 727 0
DWIDTH 8 0
BBX 7 7 0 0
BITMAP
FE
04
08
10
10
10
30
ENDCHAR
STARTCHAR U+4E88
ENCODING 20104
SWIDTH 727 0
DWIDTH 8 0
BBX 7 7 0 0
BITMAP
7C
08
FE
12
14
10
70
ENDCHAR
STARTCHAR U+4E89
ENCODING 20105
SWIDTH 727 0
DWIDTH 8 0
BBX 7 7 0 0
BITMAP
38
48
FC
16
FC
10
30
ENDCHAR
STARTCHAR U+4E8A
ENCODING 20106
SWIDTH 727 0
DWIDTH 8 0
BBX 7 7 0 0
BITMAP
10
FE
54
FE
12
FE
10
ENDCHAR
STARTCHAR U+4E8B
ENCODING 20107
SWIDTH 727 0
DWIDTH 8 0
BBX 7 7 0 0
BITMAP
FE
10
FE
12
FE
10
30
ENDCHAR
STARTCHAR U+4E8C
ENCODING 20108
SWIDTH 727 0
DWIDTH 8 0
BBX 7 7 0 0
BITMAP
7C
00
00
00
00
00
FE
ENDCHAR
STARTCHAR U+4E8E
ENCODING 20110
SWIDTH 727 0
DWIDTH 8 0
BBX 7 7 0 0
BITMAP
FE
10
10
FE
10
10
30
ENDCHAR
STARTCHAR U+4E91
ENCODING 20113
SWIDTH 727 0
DWIDTH 8 0
BBX 7 7 0 0
BITMAP
7C
00
FE
20
24
42
FE
ENDCHAR
STARTCHAR U+4E92
ENCODING 20114
SWIDTH 727 0
DWIDTH 8 0
BBX 7 7 0 0
BITMAP
FE
20
3C
44
78
08
FE
ENDCHAR
STARTCHAR U+4E94
ENCODING 20116
SWIDTH 727 0
DWIDTH 8 0
BBX 7 7 0 0
BITMAP
FE
10
10
7C
24
24
FE
ENDCHAR
STARTCHAR U+4E95
ENCODING 20117
SWIDTH 727 0
DWIDTH 8 0
BBX 7 7 0 0
BITMAP
44
FE
44
44
FE
44
84
ENDCHAR
STARTCHAR U+4E98
ENCODING 20120
SWIDTH 727 0
DWIDTH 8 0
BBX 7 7 0 0
BITMAP
FE
00
7C
44
7C
00
FE
ENDCHAR
STARTCHAR U+4E99
ENCODING 20121
SWIDTH 727 0
DWIDTH 8 0
BBX 7 7 0 0
BITMAP
FE
40
7C
44
94
0C
FE
ENDCHAR
STARTCHAR U+4E9B
ENCODING 20123
SWIDTH 727 0
DWIDTH 8 0
BBX 7 7 0 0
BITMAP
28
BE
A8
AA
FE
00
FE
ENDCHAR
STARTCHAR U+4E9C
ENCODING 20124
SWIDTH 727 0
DWIDTH 8 0
BBX 7 7 0 0
BITMAP
FE
28
FE
AA
FE
28
FE
ENDCHAR
STARTCHAR U+4E9E
ENCODING 20126
SWIDTH 727 0
DWIDTH 8 0
BBX 7 7 0 0
BITMAP
FE
28
EE
82
EE
28
FE
ENDCHAR
STARTCHAR U+4E9F
ENCODING 20127
SWIDTH 727 0
DWIDTH 8 0
BBX 7 7 0 0
BITMAP
FE
40
76
92
F4
1A
FE
ENDCHAR
STARTCHAR U+4EA0
ENCODING 20128
SWIDTH 727 0
DWIDTH 8 0
BBX 7 2 0 4
BITMAP
10
FE
ENDCHAR
STARTCHAR U+4EA1
ENCODING 20129
SWIDTH 727 0
DWIDTH 8 0
BBX 7 7 0 0
BITMAP
10
FE
40
40
40
40
7E
ENDCHAR
STARTCHAR U+4EA2
ENCODING 20130
SWIDTH 727 0
DWIDTH 8 0
BBX 7 7 0 0
BITMAP
10
FE
00
7C
44
44
86
ENDCHAR
STARTCHAR U+4EA4
ENCODING 20132
SWIDTH 727 0
DWIDTH 8 0
BBX 7 7 0 0
BITMAP
10
FE
44
AA
10
28
C6
ENDCHAR
STARTCHAR U+4EA5
ENCODING 20133
SWIDTH 727 0
DWIDTH 8 0
BBX 7 7 0 0
BITMAP
10
FE
28
54
28
54
A2
ENDCHAR
STARTCHAR U+4EA6
ENCODING 20134
SWIDTH 727 0
DWIDTH 8 0
BBX 7 7 0 0
BITMAP
10
FE
28
AA
AA
28
48
ENDCHAR
STARTCHAR U+4EA8
ENCODING 20136
SWIDTH 727 0
DWIDTH 8 0
BBX 7 7 0 0
BITMAP
10
FE
44
FE
08
10
30
ENDCHAR
STARTCHAR U+4EAB
ENCODING 20139
SWIDTH 727 0
DWIDTH 8 0
BBX 7 7 0 0
BITMAP
FE
44
7C
08
FE
10
10
ENDCHAR
STARTCHAR U+4EAC
ENCODING 20140
SWIDTH 727 0
DWIDTH 8 0
BBX 7 7 0 0
BITMAP
10
FE
44
7C
10
54
92
ENDCHAR
STARTCHAR U+4EAD
ENCODING 20141
SWIDTH 727 0
DWIDTH 8 0
BBX 7 7 0 0
BITMAP
FE
44
7C
00
FE
92
30
ENDCHAR
STARTCHAR U+4EAE
ENCODING 20142
SWIDTH 727 0
DWIDTH 8 0
BBX 7 7 0 0
BITMAP
10
FE
44
FE
AA
28
CE
ENDCHAR
STARTCHAR U+4EB0
ENCODING 20144
SWIDTH 727 0
DWIDTH 8 0
BBX 7 7 0 0
BITMAP
FE
44
7C
44
7C
54
92
ENDCHAR
STARTCHAR U+4EB3
ENCODING 20147
SWIDTH 727 0
DWIDTH 8 0
BBX 7 7 0 0
BITMAP
FE
44
FE
82
7C
22
3E
ENDCHAR
STARTCHAR U+4EB6
ENCODING 20150
SWIDTH 727 0
DWIDTH 8 0
BBX 7 7 0 0
BITMAP
FE
44
7C
00
7C
44
FE
ENDCHAR
STARTCHAR U+4EBA
ENCODING 20154
SWIDTH 727 0
DWIDTH 8 0
BBX 7 7 0 0
BITMAP
10
10
10
10
28
44
82
ENDCHAR
STARTCHAR U+4EC0
ENCODING 20160
SWIDTH 727 0
DWIDTH 8 0
BBX 7 7 0 0
BITMAP
48
48
DE
48
48
48
48
ENDCHAR
STARTCHAR U+4EC1
ENCODING 20161
SWIDTH 727 0
DWIDTH 8 0
BBX 7 7 0 0
BITMAP
40
5E
C0
40
40
40
5E
ENDCHAR
STARTCHAR U+4EC2
ENCODING 20162
SWIDTH 727 0
DWIDTH 8 0
BBX 7 7 0 0
BITMAP
48
5E
CA
4A
4A
4A
56
ENDCHAR
STARTCHAR U+4EC4
ENCODING 20164
SWIDTH 727 0
DWIDTH 8 0
BBX 7 7 0 0
BITMAP
7E
40
48
48
48
94
22
ENDCHAR
STARTCHAR U+4EC6
ENCODING 20166
SWIDTH 727 0
DWIDTH 8 0
BBX 7 7 0 0
BITMAP
48
48
C8
4C
4A
48
48
ENDCHAR
STARTCHAR U+4EC7
ENCODING 20167
SWIDTH 727 0
DWIDTH 8 0
BBX 7 7 0 0
BITMAP
50
BC
94
94
94
94
A6
ENDCHAR
STARTCHAR U+4ECA
ENCODING 20170
SWIDTH 727 0
DWIDTH 8 0
BBX 7 7 0 0
BITMAP
10
28
D6
00
7C
08
10
ENDCHAR
STARTCHAR U+4ECB
ENCODING 20171
SWIDTH 727 0
DWIDTH 8 0
BBX 7 7 0 0
BITMAP
10
28
C6
44
44
44
84
ENDCHAR
STARTCHAR U+4ECD
ENCODING 20173
SWIDTH 727 0
DWIDTH 8 0
BBX 7 7 0 0
BITMAP
7C
54
D4
56
52
52
66
ENDCHAR
STARTCHAR U+4ECE
ENCODING 20174
SWIDTH 727 0
DWIDTH 8 0
BBX 7 7 0 0
BITMAP
44
44
44
44
44
AA
92
ENDCHAR
STARTCHAR U+4ECF
ENCODING 20175
SWIDTH 727 0
DWIDTH 8 0
BBX 7 7 0 0
BITMAP
48
48
C8
48
52
52
5E
ENDCHAR
STARTCHAR U+4ED4
ENCODING 20180
SWIDTH 727 0
DWIDTH 8 0
BBX 7 7 0 0
BITMAP
5E
42
C4
5E
44
44
4C
ENDCHAR
STARTCHAR U+4ED5
ENCODING 20181
SWIDTH 727 0
DWIDTH 8 0
BBX 7 7 0 0
BITMAP
48
48
DE
48
48
48
5E
ENDCHAR
STARTCHAR U+4ED6
ENCODING 20182
SWIDTH 727 0
DWIDTH 8 0
BBX 7 7 0 0
BITMAP
68
AE
BA
AA
A8
A2
BE
ENDCHAR
STARTCHAR U+4ED7
ENCODING 20183
SWIDTH 727 0
DWIDTH 8 0
BBX 7 7 0 0
BITMAP
44
5E
C4
54
54
48
56
ENDCHAR
STARTCHAR U+4ED8
ENCODING 20184
SWIDTH 727 0
DWIDTH 8 0
BBX 7 7 0 0
BITMAP
44
5E
C4
54
54
44
4C
ENDCHAR
STARTCHAR U+4ED9
ENCODING 20185
SWIDTH 727 0
DWIDTH 8 0
BBX 7 7 0 0
BITMAP
48
AA
AA
AA
AA
AA
BE
ENDCHAR
STARTCHAR U+4EDE
ENCODING 20190
SWIDTH 727 0
DWIDTH 8 0
BBX 7 7 0 0
BITMAP
5E
4A
CA
5A
4A
4A
56
ENDCHAR
STARTCHAR U+4EDF
ENCODING 20191
SWIDTH 727 0
DWIDTH 8 0
BBX 7 7 0 0
BITMAP
44
58
C8
7E
48
48
48
ENDCHAR
STARTCHAR U+4EE3
ENCODING 20195
SWIDTH 727 0
DWIDTH 8 0
BBX 7 7 0 0
BITMAP
2A
48
DE
48
48
4A
46
ENDCHAR
STARTCHAR U+4EE4
ENCODING 20196
SWIDTH 727 0
DWIDTH 8 0
BBX 7 7 0 0
BITMAP
38
C6
00
FE
22
2E
20
ENDCHAR
STARTCHAR U+4EE5
ENCODING 20197
SWIDTH 727 0
DWIDTH 8 0
BBX 7 7 0 0
BITMAP
54
54
54
44
44
6A
92
ENDCHAR
STARTCHAR U+4EED
ENCODING 20205
SWIDTH 727 0
DWIDTH 8 0
BBX 7 7 0 0
BITMAP
7C
54
D4
5C
56
54
6C
ENDCHAR
STARTCHAR U+4EEE
ENCODING 20206
SWIDTH 727 0
DWIDTH 8 0
BBX 7 7 0 0
BITMAP
5E
D0
5E
5A
54
54
6A
ENDCHAR
STARTCHAR U+4EF0
ENCODING 20208
SWIDTH 727 0
DWIDTH 8 0
BBX 7 7 0 0
BITMAP
5E
AA
AA
AA
AA
BA
88
ENDCHAR
STARTCHAR U+4EF2
ENCODING 20210
SWIDTH 727 0
DWIDTH 8 0
BBX 7 7 0 0
BITMAP
48
BE
AA
AA
BE
88
88
ENDCHAR
STARTCHAR U+4EF6
ENCODING 20214
SWIDTH 727 0
DWIDTH 8 0
BBX 7 7 0 0
BITMAP
54
5E
D4
7E
44
44
44
ENDCHAR
STARTCHAR U+4EF7
ENCODING 20215
SWIDTH 727 0
DWIDTH 8 0
BBX 7 7 0 0
BITMAP
48
94
A2
94
94
94
A4
ENDCHAR
STARTCHAR U+4EFB
ENCODING 20219
SWIDTH 727 0
DWIDTH 8 0
BBX 7 7 0 0
BITMAP
46
5C
C4
5E
44
44
5E
ENDCHAR
STARTCHAR U+4F01
ENCODING 20225
SWIDTH 727 0
DWIDTH 8 0
BBX 7 7 0 0
BITMAP
10
28
C6
10
5C
50
FE
ENDCHAR
STARTCHAR U+4F09
ENCODING 20233
SWIDTH 727 0
DWIDTH 8 0
BBX 7 7 0 0
BITMAP
48
7E
C0
5C
54
54
66
ENDCHAR
STARTCHAR U+4F0A
ENCODING 20234
SWIDTH 727 0
DWIDTH 8 0
BBX 7 7 0 0
BITMAP
5E
CA
5E
4A
5E
48
50
ENDCHAR
STARTCHAR U+4F0D
ENCODING 20237
SWIDTH 727 0
DWIDTH 8 0
BBX 7 7 0 0
BITMAP
5E
48
C8
5E
4A
4A
5E
ENDCHAR
STARTCHAR U+4F0E
ENCODING 20238
SWIDTH 727 0
DWIDTH 8 0
BBX 7 7 0 0
BITMAP
48
7E
C8
7E
52
4C
52
ENDCHAR
STARTCHAR U+4F0F
ENCODING 20239
SWIDTH 727 0
DWIDTH 8 0
BBX 7 7 0 0
BITMAP
4A
7E
C8
48
48
54
62
ENDCHAR
STARTCHAR U+4F10
ENCODING 20240
SWIDTH 727 0
DWIDTH 8 0
BBX 7 7 0 0
BITMAP
4A
5E
C8
4A
4C
48
56
ENDCHAR
STARTCHAR U+4F11
ENCODING 20241
SWIDTH 727 0
DWIDTH 8 0
BBX 7 7 0 0
BITMAP
48
7E
C8
5C
5C
6A
48
ENDCHAR
STARTCHAR U+4F1A
ENCODING 20250
SWIDTH 727 0
DWIDTH 8 0
BBX 7 7 0 0
BITMAP
10
28
44
BA
20
44
FA
ENDCHAR
STARTCHAR U+4F1C
ENCODING 20252
SWIDTH 727 0
DWIDTH 8 0
BBX 7 7 0 0
BITMAP
50
BC
94
A6
88
BE
88
ENDCHAR
STARTCHAR U+4F1D
ENCODING 20253
SWIDTH 727 0
DWIDTH 8 0
BBX 7 7 0 0
BITMAP
5E
40
DE
48
48
52
5E
ENDCHAR
STARTCHAR U+4F2F
ENCODING 20271
SWIDTH 727 0
DWIDTH 8 0
BBX 7 7 0 0
BITMAP
48
5E
D2
5E
52
52
5E
ENDCHAR
STARTCHAR U+4F30
ENCODING 20272
SWIDTH 727 0
DWIDTH 8 0
BBX 7 7 0 0
BITMAP
48
5E
C8
5E
52
52
5E
ENDCHAR
STARTCHAR U+4F34
ENCODING 20276
SWIDTH 727 0
DWIDTH 8 0
BBX 7 7 0 0
BITMAP
6A
88
BE
88
BE
88
88
ENDCHAR
STARTCHAR U+4F36
ENCODING 20278
SWIDTH 727 0
DWIDTH 8 0
BBX 7 7 0 0
BITMAP
4C
52
C0
5E
4A
4A
48
ENDCHAR
STARTCHAR U+4F38
ENCODING 20280
SWIDTH 727 0
DWIDTH 8 0
BBX 7 7 0 0
BITMAP
48
BE
AA
BE
AA
BE
88
ENDCHAR
STARTCHAR U+4F3A
ENCODING 20282
SWIDTH 727 0
DWIDTH 8 0
BBX 7 7 0 0
BITMAP
5E
42
DE
42
5E
52
5E
ENDCHAR
STARTCHAR U+4F3C
ENCODING 20284
SWIDTH 727 0
DWIDTH 8 0
BBX 7 7 0 0
BITMAP
54
DC
54
54
54
5A
6A
ENDCHAR
STARTCHAR U+4F3D
ENCODING 20285
SWIDTH 727 0
DWIDTH 8 0
BBX 7 7 0 0
BITMAP
6E
AA
FA
AA
AA
AA
CE
ENDCHAR
STARTCHAR U+4F43
ENCODING 20291
SWIDTH 727 0
DWIDTH 8 0
BBX 7 7 0 0
BITMAP
7E
AA
AA
BE
AA
AA
BE
ENDCHAR
STARTCHAR U+4F46
ENCODING 20294
SWIDTH 727 0
DWIDTH 8 0
BBX 7 7 0 0
BITMAP
5E
D2
5E
52
5E
40
5E
ENDCHAR
STARTCHAR U+4F47
ENCODING 20295
SWIDTH 727 0
DWIDTH 8 0
BBX 7 7 0 0
BITMAP
5E
52
C0
5E
44
44
4C
ENDCHAR
STARTCHAR U+4F4D
ENCODING 20301
SWIDTH 727 0
DWIDTH 8 0
BBX 7 7 0 0
BITMAP
48
7E
D4
54
54
54
7E
ENDCHAR
STARTCHAR U+4F4E
ENCODING 20302
SWIDTH 727 0
DWIDTH 8 0
BBX 7 7 0 0
BITMAP
5E
D4
5E
54
5A
60
5E
ENDCHAR
STARTCHAR U+4F4F
ENCODING 20303
SWIDTH 727 0
DWIDTH 8 0
BBX 7 7 0 0
BITMAP
48
5E
C8
5E
48
48
7E
ENDCHAR
STARTCHAR U+4F50
ENCODING 20304
SWIDTH 727 0
DWIDTH 8 0
BBX 7 7 0 0
BITMAP
28
5E
C8
50
6E
44
5E
ENDCHAR
STARTCHAR U+4F51
ENCODING 20305
SWIDTH 727 0
DWIDTH 8 0
BBX 7 7 0 0
BITMAP
48
5E
C8
4E
5A
6A
4E
ENDCHAR
STARTCHAR U+4F53
ENCODING 20307
SWIDTH 727 0
DWIDTH 8 0
BBX 7 7 0 0
BITMAP
48
5E
C8
5C
6A
5C
48
ENDCHAR
STARTCHAR U+4F55
ENCODING 20309
SWIDTH 727 0
DWIDTH 8 0
BBX 7 7 0 0
BITMAP
5E
42
DE
52
5E
42
46
ENDCHAR
STARTCHAR U+4F57
ENCODING 20311
SWIDTH 727 0
DWIDTH 8 0
BBX 7 7 0 0
BITMAP
5E
52
C8
4E
48
4A
4E
ENDCHAR
STARTCHAR U+4F59
ENCODING 20313
SWIDTH 727 0
DWIDTH 8 0
BBX 7 7 0 0
BITMAP
38
44
BA
10
FE
54
92
ENDCHAR
STARTCHAR U+4F5A
ENCODING 20314
SWIDTH 727 0
DWIDTH 8 0
BBX 7 7 0 0
BITMAP
54
5E
C4
5E
44
44
5A
ENDCHAR
STARTCHAR U+4F5B
ENCODING 20315
SWIDTH 727 0
DWIDTH 8 0
BBX 7 7 0 0
BITMAP
7E
AA
BE
A8
BE
AA
AA
ENDCHAR
STARTCHAR U+4F5C
ENCODING 20316
SWIDTH 727 0
DWIDTH 8 0
BBX 7 7 0 0
BITMAP
50
5E
E8
4E
48
4E
48
ENDCHAR
STARTCHAR U+4F5D
ENCODING 20317
SWIDTH 727 0
DWIDTH 8 0
BBX 7 7 0 0
BITMAP
50
5E
E2
5E
52
5E
42
ENDCHAR
STARTCHAR U+4F5E
ENCODING 20318
SWIDTH 727 0
DWIDTH 8 0
BBX 7 7 0 0
BITMAP
5E
80
BE
94
BE
88
B6
ENDCHAR
STARTCHAR U+4F69
ENCODING 20329
SWIDTH 727 0
DWIDTH 8 0
BBX 7 7 0 0
BITMAP
7E
A2
BE
AA
BE
AA
CA
ENDCHAR
STARTCHAR U+4F6F
ENCODING 20335
SWIDTH 727 0
DWIDTH 8 0
BBX 7 7 0 0
BITMAP
54
7E
C8
7E
48
7E
48
ENDCHAR
STARTCHAR U+4F70
ENCODING 20336
SWIDTH 727 0
DWIDTH 8 0
BBX 7 7 0 0
BITMAP
5E
48
DE
52
5E
52
5E
ENDCHAR
STARTCHAR U+4F73
ENCODING 20339
SWIDTH 727 0
DWIDTH 8 0
BBX 7 7 0 0
BITMAP
5C
48
FE
48
5C
48
7E
ENDCHAR
STARTCHAR U+4F75
ENCODING 20341
SWIDTH 727 0
DWIDTH 8 0
BBX 7 7 0 0
BITMAP
54
BE
94
BE
94
94
A4
ENDCHAR
STARTCHAR U+4F76
ENCODING 20342
SWIDTH 727 0
DWIDTH 8 0
BBX 7 7 0 0
BITMAP
5E
44
DE
40
5E
52
5E
ENDCHAR
STARTCHAR U+4F7B
ENCODING 20347
SWIDTH 727 0
DWIDTH 8 0
BBX 7 7 0 0
BITMAP
54
B6
94
B6
94
94
A6
ENDCHAR
STARTCHAR U+4F7C
ENCODING 20348
SWIDTH 727 0
DWIDTH 8 0
BBX 7 7 0 0
BITMAP
48
BE
94
A2
94
88
B6
ENDCHAR
STARTCHAR U+4F7F
ENCODING 20351
SWIDTH 727 0
DWIDTH 8 0
BBX 7 7 0 0
BITMAP
48
7E
CA
7E
58
48
76
ENDCHAR
STARTCHAR U+4F83
ENCODING 20355
SWIDTH 727 0
DWIDTH 8 0
BBX 7 7 0 0
BITMAP
5E
52
D2
5E
54
54
66
ENDCHAR
STARTCHAR U+4F86
ENCODING 20358
SWIDTH 727 0
DWIDTH 8 0
BBX 7 7 0 0
BITMAP
10
FE
54
BA
38
54
92
ENDCHAR
STARTCHAR U+4F88
ENCODING 20360
SWIDTH 727 0
DWIDTH 8 0
BBX 7 7 0 0
BITMAP
4E
5A
C4
4E
5A
46
5C
ENDCHAR
STARTCHAR U+4F8B
ENCODING 20363
SWIDTH 727 0
DWIDTH 8 0
BBX 7 7 0 0
BITMAP
7A
AA
CA
AA
9A
92
A6
ENDCHAR
STARTCHAR U+4F8D
ENCODING 20365
SWIDTH 727 0
DWIDTH 8 0
BBX 7 7 0 0
BITMAP
5C
48
FE
44
7E
54
4C
ENDCHAR
STARTCHAR U+4F8F
ENCODING 20367
SWIDTH 727 0
DWIDTH 8 0
BBX 7 7 0 0
BITMAP
68
BE
88
BE
88
9C
AA
ENDCHAR
STARTCHAR U+4F91
ENCODING 20369
SWIDTH 727 0
DWIDTH 8 0
BBX 7 7 0 0
BITMAP
48
5E
C8
5E
4A
4E
4A
ENDCHAR
STARTCHAR U+4F96
ENCODING 20374
SWIDTH 727 0
DWIDTH 8 0
BBX 7 7 0 0
BITMAP
38
C6
00
FE
AA
FE
AA
ENDCHAR
STARTCHAR U+4F98
ENCODING 20376
SWIDTH 727 0
DWIDTH 8 0
BBX 7 7 0 0
BITMAP
5E
52
C8
5E
48
4A
4E
ENDCHAR
STARTCHAR U+4F9B
ENCODING 20379
SWIDTH 727 0
DWIDTH 8 0
BBX 7 7 0 0
BITMAP
54
7E
D4
54
7E
54
62
ENDCHAR
STARTCHAR U+4F9D
ENCODING 20381
SWIDTH 727 0
DWIDTH 8 0
BBX 7 7 0 0
BITMAP
48
FE
54
76
54
54
52
ENDCHAR
STARTCHAR U+4FA0
ENCODING 20384
SWIDTH 727 0
DWIDTH 8 0
BBX 7 7 0 0
BITMAP
48
7E
D4
7E
48
54
62
ENDCHAR
STARTCHAR U+4FA1
ENCODING 20385
SWIDTH 727 0
DWIDTH 8 0
BBX 7 7 0 0
BITMAP
7E
88
BE
AA
AA
AA
BE
ENDCHAR
STARTCHAR U+4FAB
ENCODING 20395
SWIDTH 727 0
DWIDTH 8 0
BBX 7 7 0 0
BITMAP
7E
A0
BE
94
BE
88
B6
ENDCHAR
STARTCHAR U+4FAD
ENCODING 20397
SWIDTH 727 0
DWIDTH 8 0
BBX 7 7 0 0
BITMAP
7E
A2
BE
A4
A4
B4
CA
ENDCHAR
STARTCHAR U+4FAE
ENCODING 20398
SWIDTH 727 0
DWIDTH 8 0
BBX 7 7 0 0
BITMAP
5E
70
DC
54
7E
54
5C
ENDCHAR
STARTCHAR U+4FAF
ENCODING 20399
SWIDTH 727 0
DWIDTH 8 0
BBX 7 7 0 0
BITMAP
5C
44
DE
48
5E
48
76
ENDCHAR
STARTCHAR U+4FB5
ENCODING 20405
SWIDTH 727 0
DWIDTH 8 0
BBX 7 7 0 0
BITMAP
5E
C2
5E
40
5E
44
5A
ENDCHAR
STARTCHAR U+4FB6
ENCODING 20406
SWIDTH 727 0
DWIDTH 8 0
BBX 7 7 0 0
BITMAP
5E
52
DE
48
5E
52
5E
ENDCHAR
STARTCHAR U+4FBF
ENCODING 20415
SWIDTH 727 0
DWIDTH 8 0
BBX 7 7 0 0
BITMAP
7E
88
BE
AA
BE
88
B6
ENDCHAR
STARTCHAR U+4FC2
ENCODING 20418
SWIDTH 727 0
DWIDTH 8 0
BBX 7 7 0 0
BITMAP
5E
48
D4
4A
7E
48
6A
ENDCHAR
STARTCHAR U+4FC3
ENCODING 20419
SWIDTH 727 0
DWIDTH 8 0
BBX 7 7 0 0
BITMAP
7E
A2
BE
88
AC
A8
DE
ENDCHAR
STARTCHAR U+4FC4
ENCODING 20420
SWIDTH 727 0
DWIDTH 8 0
BBX 7 7 0 0
BITMAP
54
7E
D4
5C
76
54
5A
ENDCHAR
STARTCHAR U+4FCA
ENCODING 20426
SWIDTH 727 0
DWIDTH 8 0
BBX 7 7 0 0
BITMAP
52
7E
D4
7E
54
64
5A
ENDCHAR
STARTCHAR U+4FCE
ENCODING 20430
SWIDTH 727 0
DWIDTH 8 0
BBX 7 7 0 0
BITMAP
5C
54
BC
54
5C
54
BE
ENDCHAR
STARTCHAR U+4FD0
ENCODING 20432
SWIDTH 727 0
DWIDTH 8 0
BBX 7 7 0 0
BITMAP
7A
92
BA
92
BA
D2
96
ENDCHAR
STARTCHAR U+4FD1
ENCODING 20433
SWIDTH 727 0
DWIDTH 8 0
BBX 7 7 0 0
BITMAP
5E
44
DE
52
5E
52
56
ENDCHAR
STARTCHAR U+4FD4
ENCODING 20436
SWIDTH 727 0
DWIDTH 8 0
BBX 7 7 0 0
BITMAP
5C
54
DC
54
5C
54
66
ENDCHAR
STARTCHAR U+4FD7
ENCODING 20439
SWIDTH 727 0
DWIDTH 8 0
BBX 7 7 0 0
BITMAP
54
62
C8
76
5C
54
5C
ENDCHAR
STARTCHAR U+4FD8
ENCODING 20440
SWIDTH 727 0
DWIDTH 8 0
BBX 7 7 0 0
BITMAP
5E
4A
DE
44
5E
44
4C
ENDCHAR
STARTCHAR U+4FDA
ENCODING 20442
SWIDTH 727 0
DWIDTH 8 0
BBX 7 7 0 0
BITMAP
7E
AA
BE
AA
BE
88
BE
ENDCHAR
STARTCHAR U+4FDB
ENCODING 20443
SWIDTH 727 0
DWIDTH 8 0
BBX 7 7 0 0
BITMAP
5C
A4
BE
AA
BE
94
A6
ENDCHAR
STARTCHAR U+4FDD
ENCODING 20445
SWIDTH 727 0
DWIDTH 8 0
BBX 7 7 0 0
BITMAP
5E
52
DE
48
7E
5C
6A
ENDCHAR
STARTCHAR U+4FDF
ENCODING 20447
SWIDTH 727 0
DWIDTH 8 0
BBX 7 7 0 0
BITMAP
52
DE
54
5E
54
44
5A
ENDCHAR
STARTCHAR U+4FE1
ENCODING 20449
SWIDTH 727 0
DWIDTH 8 0
BBX 7 7 0 0
BITMAP
5E
C0
5E
40
5E
52
5E
ENDCHAR
STARTCHAR U+4FE3
ENCODING 20451
SWIDTH 727 0
DWIDTH 8 0
BBX 7 7 0 0
BITMAP
5E
52
DE
48
5E
48
56
ENDCHAR
STARTCHAR U+4FE4
ENCODING 20452
SWIDTH 727 0
DWIDTH 8 0
BBX 7 7 0 0
BITMAP
54
BE
8A
BE
AA
9A
A8
ENDCHAR
STARTCHAR U+4FE5
ENCODING 20453
SWIDTH 727 0
DWIDTH 8 0
BBX 7 7 0 0
BITMAP
48
BE
AA
BE
88
BE
88
ENDCHAR
STARTCHAR U+4FEE
ENCODING 20462
SWIDTH 727 0
DWIDTH 8 0
BBX 7 7 0 0
BITMAP
5E
B4
AA
B4
AA
A4
A8
ENDCHAR
STARTCHAR U+4FEF
ENCODING 20463
SWIDTH 727 0
DWIDTH 8 0
BBX 7 7 0 0
BITMAP
48
BE
A4
BE
A4
A4
CC
ENDCHAR
STARTCHAR U+4FF3
ENCODING 20467
SWIDTH 727 0
DWIDTH 8 0
BBX 7 7 0 0
BITMAP
54
B6
94
B6
94
B6
94
ENDCHAR
STARTCHAR U+4FF5
ENCODING 20469
SWIDTH 727 0
DWIDTH 8 0
BBX 7 7 0 0
BITMAP
5E
48
DE
54
76
54
5A
ENDCHAR
STARTCHAR U+4FF6
ENCODING 20470
SWIDTH 727 0
DWIDTH 8 0
BBX 7 7 0 0
BITMAP
76
A2
FA
AA
F4
AA
AA
ENDCHAR
STARTCHAR U+4FF8
ENCODING 20472
SWIDTH 727 0
DWIDTH 8 0
BBX 7 7 0 0
BITMAP
5C
48
FE
54
6A
5C
48
ENDCHAR
STARTCHAR U+4FFA
ENCODING 20474
SWIDTH 727 0
DWIDTH 8 0
BBX 7 7 0 0
BITMAP
5C
AA
BE
AA
BE
88
8E
ENDCHAR
STARTCHAR U+4FFE
ENCODING 20478
SWIDTH 727 0
DWIDTH 8 0
BBX 7 7 0 0
BITMAP
48
5E
D2
5E
54
7E
44
ENDCHAR
STARTCHAR U+5005
ENCODING 20485
SWIDTH 727 0
DWIDTH 8 0
BBX 7 7 0 0
BITMAP
48
BE
94
AA
88
BE
88
ENDCHAR
STARTCHAR U+5006
ENCODING 20486
SWIDTH 727 0
DWIDTH 8 0
BBX 7 7 0 0
BITMAP
7E
88
BE
AA
BE
AA
AA
ENDCHAR
STARTCHAR U+5009
ENCODING 20489
SWIDTH 727 0
DWIDTH 8 0
BBX 7 7 0 0
BITMAP
38
C6
7C
44
7E
42
FE
ENDCHAR
STARTCHAR U+500B
ENCODING 20491
SWIDTH 727 0
DWIDTH 8 0
BBX 7 7 0 0
BITMAP
7E
AA
BE
AA
BE
A2
BE
ENDCHAR
STARTCHAR U+500D
ENCODING 20493
SWIDTH 727 0
DWIDTH 8 0
BBX 7 7 0 0
BITMAP
48
7E
D4
7E
54
54
5C
ENDCHAR
STARTCHAR U+500F
ENCODING 20495
SWIDTH 727 0
DWIDTH 8 0
BBX 7 7 0 0
BITMAP
4E
A4
AA
A4
AE
A4
8A
ENDCHAR
STARTCHAR U+5011
ENCODING 20497
SWIDTH 727 0
DWIDTH 8 0
BBX 7 7 0 0
BITMAP
7E
AA
AA
BE
A2
A2
A6
ENDCHAR
STARTCHAR U+5012
ENCODING 20498
SWIDTH 727 0
DWIDTH 8 0
BBX 7 7 0 0
BITMAP
7A
A2
BA
92
BA
92
BE
ENDCHAR
STARTCHAR U+5014
ENCODING 20500
SWIDTH 727 0
DWIDTH 8 0
BBX 7 7 0 0
BITMAP
7E
A2
BE
AA
BE
AA
DE
ENDCHAR
STARTCHAR U+5016
ENCODING 20502
SWIDTH 727 0
DWIDTH 8 0
BBX 7 7 0 0
BITMAP
48
7E
D4
7E
48
7E
48
ENDCHAR
STARTCHAR U+5019
ENCODING 20505
SWIDTH 727 0
DWIDTH 8 0
BBX 7 7 0 0
BITMAP
5C
A4
BE
A8
BE
A8
B6
ENDCHAR
STARTCHAR U+501A
ENCODING 20506
SWIDTH 727 0
DWIDTH 8 0
BBX 7 7 0 0
BITMAP
48
BE
94
BE
AA
BA
86
ENDCHAR
STARTCHAR U+501F
ENCODING 20511
SWIDTH 727 0
DWIDTH 8 0
BBX 7 7 0 0
BITMAP
54
7E
D4
5E
52
52
5E
ENDCHAR
STARTCHAR U+5021
ENCODING 20513
SWIDTH 727 0
DWIDTH 8 0
BBX 7 7 0 0
BITMAP
5E
52
DE
40
5E
52
5E
ENDCHAR
STARTCHAR U+5023
ENCODING 20515
SWIDTH 727 0
DWIDTH 8 0
BBX 7 7 0 0
BITMAP
54
FE
AA
BA
AC
AA
DA
ENDCHAR
STARTCHAR U+5024
ENCODING 20516
SWIDTH 727 0
DWIDTH 8 0
BBX 7 7 0 0
BITMAP
5E
44
DE
52
5E
50
5E
ENDCHAR
STARTCHAR U+5025
ENCODING 20517
SWIDTH 727 0
DWIDTH 8 0
BBX 7 7 0 0
BITMAP
5E
52
CC
52
5E
48
5E
ENDCHAR
STARTCHAR U+5026
ENCODING 20518
SWIDTH 727 0
DWIDTH 8 0
BBX 7 7 0 0
BITMAP
2A
C8
7E
54
6A
48
4E
ENDCHAR
STARTCHAR U+5028
ENCODING 20520
SWIDTH 727 0
DWIDTH 8 0
BBX 7 7 0 0
BITMAP
7E
A2
BE
A4
BE
B2
DE
ENDCHAR
STARTCHAR U+5029
ENCODING 20521
SWIDTH 727 0
DWIDTH 8 0
BBX 7 7 0 0
BITMAP
48
BE
88
BE
AA
BE
A2
ENDCHAR
STARTCHAR U+502A
ENCODING 20522
SWIDTH 727 0
DWIDTH 8 0
BBX 7 7 0 0
BITMAP
56
A2
B6
A2
BE
94
A6
ENDCHAR
STARTCHAR U+502B
ENCODING 20523
SWIDTH 727 0
DWIDTH 8 0
BBX 7 7 0 0
BITMAP
48
94
A2
BE
AA
BE
AA
ENDCHAR
STARTCHAR U+502C
ENCODING 20524
SWIDTH 727 0
DWIDTH 8 0
BBX 7 7 0 0
BITMAP
48
BE
A2
BE
88
BE
88
ENDCHAR
STARTCHAR U+502D
ENCODING 20525
SWIDTH 727 0
DWIDTH 8 0
BBX 7 7 0 0
BITMAP
5C
88
BE
88
BE
94
BE
ENDCHAR
STARTCHAR U+5036
ENCODING 20534
SWIDTH 727 0
DWIDTH 8 0
BBX 7 7 0 0
BITMAP
5E
52
DE
52
7E
4C
52
ENDCHAR
STARTCHAR U+5039
ENCODING 20537
SWIDTH 727 0
DWIDTH 8 0
BBX 7 7 0 0
BITMAP
4C
D2
5E
4A
5E
48
56
ENDCHAR
STARTCHAR U+5043
ENCODING 20547
SWIDTH 727 0
DWIDTH 8 0
BBX 7 7 0 0
BITMAP
7E
A4
BC
A8
BE
A4
BE
ENDCHAR
STARTCHAR U+5047
ENCODING 20551
SWIDTH 727 0
DWIDTH 8 0
BBX 7 7 0 0
BITMAP
7E
AA
BE
A0
BE
A4
AA
ENDCHAR
STARTCHAR U+5048
ENCODING 20552
SWIDTH 727 0
DWIDTH 8 0
BBX 7 7 0 0
BITMAP
7C
A4
BC
A4
DE
A2
B6
ENDCHAR
STARTCHAR U+5049
ENCODING 20553
SWIDTH 727 0
DWIDTH 8 0
BBX 7 7 0 0
BITMAP
5C
44
DE
54
7E
48
48
ENDCHAR
STARTCHAR U+504F
ENCODING 20559
SWIDTH 727 0
DWIDTH 8 0
BBX 7 7 0 0
BITMAP
7E
52
DE
50
5E
5A
6A
ENDCHAR
STARTCHAR U+5050
ENCODING 20560
SWIDTH 727 0
DWIDTH 8 0
BBX 7 7 0 0
BITMAP
7E
94
BE
A4
AA
A4
C8
ENDCHAR
STARTCHAR U+5055
ENCODING 20565
SWIDTH 727 0
DWIDTH 8 0
BBX 7 7 0 0
BITMAP
76
A4
B6
88
BE
A2
BE
ENDCHAR
STARTCHAR U+5056
ENCODING 20566
SWIDTH 727 0
DWIDTH 8 0
BBX 7 7 0 0
BITMAP
5A
8C
BE
90
BE
D2
9E
ENDCHAR
STARTCHAR U+505A
ENCODING 20570
SWIDTH 727 0
DWIDTH 8 0
BBX 7 7 0 0
BITMAP
54
BE
92
BA
AC
AA
BA
ENDCHAR
STARTCHAR U+505C
ENCODING 20572
SWIDTH 727 0
DWIDTH 8 0
BBX 7 7 0 0
BITMAP
7E
D4
7E
42
5C
48
58
ENDCHAR
STARTCHAR U+5065
ENCODING 20581
SWIDTH 727 0
DWIDTH 8 0
BBX 7 7 0 0
BITMAP
7E
92
BE
94
DE
A4
DE
ENDCHAR
STARTCHAR U+506C
ENCODING 20588
SWIDTH 727 0
DWIDTH 8 0
BBX 7 7 0 0
BITMAP
50
BE
AA
AA
94
B2
DC
ENDCHAR
STARTCHAR U+5072
ENCODING 20594
SWIDTH 727 0
DWIDTH 8 0
BBX 7 7 0 0
BITMAP
5E
52
D2
5E
48
5A
6E
ENDCHAR
STARTCHAR U+5074
ENCODING 20596
SWIDTH 727 0
DWIDTH 8 0
BBX 7 7 0 0
BITMAP
7A
AA
BA
AA
AA
BA
AE
ENDCHAR
STARTCHAR U+5075
ENCODING 20597
SWIDTH 727 0
DWIDTH 8 0
BBX 7 7 0 0
BITMAP
4E
48
DE
52
52
5E
52
ENDCHAR
STARTCHAR U+5076
ENCODING 20598
SWIDTH 727 0
DWIDTH 8 0
BBX 7 7 0 0
BITMAP
5C
94
94
BE
AA
AE
B2
ENDCHAR
STARTCHAR U+5078
ENCODING 20600
SWIDTH 727 0
DWIDTH 8 0
BBX 7 7 0 0
BITMAP
48
B6
80
BA
AC
BA
AA
ENDCHAR
STARTCHAR U+507D
ENCODING 20605
SWIDTH 727 0
DWIDTH 8 0
BBX 7 7 0 0
BITMAP
54
48
DC
64
5E
42
56
ENDCHAR
STARTCHAR U+5080
ENCODING 20608
SWIDTH 727 0
DWIDTH 8 0
BBX 7 7 0 0
BITMAP
50
BE
AA
BE
94
94
A6
ENDCHAR
STARTCHAR U+5085
ENCODING 20613
SWIDTH 727 0
DWIDTH 8 0
BBX 7 7 0 0
BITMAP
7E
AA
BE
AA
84
BE
84
ENDCHAR
STARTCHAR U+508D
ENCODING 20621
SWIDTH 727 0
DWIDTH 8 0
BBX 7 7 0 0
BITMAP
7E
94
BE
A2
9C
94
A4
ENDCHAR
STARTCHAR U+5091
ENCODING 20625
SWIDTH 727 0
DWIDTH 8 0
BBX 7 7 0 0
BITMAP
5E
AA
9A
AA
BE
9C
AA
ENDCHAR
STARTCHAR U+5098
ENCODING 20632
SWIDTH 727 0
DWIDTH 8 0
BBX 7 7 0 0
BITMAP
38
C6
54
54
BA
FE
10
ENDCHAR
STARTCHAR U+5099
ENCODING 20633
SWIDTH 727 0
DWIDTH 8 0
BBX 7 7 0 0
BITMAP
54
BE
94
BE
AA
BE
AA
ENDCHAR
STARTCHAR U+509A
ENCODING 20634
SWIDTH 727 0
DWIDTH 8 0
BBX 7 7 0 0
BITMAP
54
BE
8A
BA
94
AA
CA
ENDCHAR
STARTCHAR U+50AC
ENCODING 20652
SWIDTH 727 0
DWIDTH 8 0
BBX 7 7 0 0
BITMAP
52
5E
C8
54
5E
54
5E
ENDCHAR
STARTCHAR U+50AD
ENCODING 20653
SWIDTH 727 0
DWIDTH 8 0
BBX 7 7 0 0
BITMAP
7E
A8
BE
A8
BE
AA
CA
ENDCHAR
STARTCHAR U+50B2
ENCODING 20658
SWIDTH 727 0
DWIDTH 8 0
BBX 7 7 0 0
BITMAP
64
BE
AA
FA
A4
BA
CA
ENDCHAR
STARTCHAR U+50B3
ENCODING 20659
SWIDTH 727 0
DWIDTH 8 0
BBX 7 7 0 0
BITMAP
48
BE
AA
BE
84
BE
94
ENDCHAR
STARTCHAR U+50B4
ENCODING 20660
SWIDTH 727 0
DWIDTH 8 0
BBX 7 7 0 0
BITMAP
7E
A4
A4
BE
AA
AA
BE
ENDCHAR
STARTCHAR U+50B5
ENCODING 20661
SWIDTH 727 0
DWIDTH 8 0
BBX 7 7 0 0
BITMAP
5C
48
FE
54
54
5C
76
ENDCHAR
STARTCHAR U+50B7
ENCODING 20663
SWIDTH 727 0
DWIDTH 8 0
BBX 7 7 0 0
BITMAP
5E
72
DE
50
7E
4A
56
ENDCHAR
STARTCHAR U+50BE
ENCODING 20670
SWIDTH 727 0
DWIDTH 8 0
BBX 7 7 0 0
BITMAP
6E
B4
AE
AA
AA
AE
BA
ENDCHAR
STARTCHAR U+50C2
ENCODING 20674
SWIDTH 727 0
DWIDTH 8 0
BBX 7 7 0 0
BITMAP
7E
AA
BE
94
BE
94
AE
ENDCHAR
STARTCHAR U+50C5
ENCODING 20677
SWIDTH 727 0
DWIDTH 8 0
BBX 7 7 0 0
BITMAP
7E
54
BE
AA
BE
88
BE
ENDCHAR
STARTCHAR U+50C9
ENCODING 20681
SWIDTH 727 0
DWIDTH 8 0
BBX 7 7 0 0
BITMAP
38
44
EE
AA
EE
44
AA
ENDCHAR
STARTCHAR U+50CA
ENCODING 20682
SWIDTH 727 0
DWIDTH 8 0
BBX 7 7 0 0
BITMAP
7E
94
BE
A4
DA
94
9C
ENDCHAR
STARTCHAR U+50CD
ENCODING 20685
SWIDTH 727 0
DWIDTH 8 0
BBX 7 7 0 0
BITMAP
78
96
BA
AA
BA
92
BE
ENDCHAR
STARTCHAR U+50CF
ENCODING 20687
SWIDTH 727 0
DWIDTH 8 0
BBX 7 7 0 0
BITMAP
4C
D4
7E
50
6A
4C
5A
ENDCHAR
STARTCHAR U+50D1
ENCODING 20689
SWIDTH 727 0
DWIDTH 8 0
BBX 7 7 0 0
BITMAP
5E
CC
52
6A
5E
52
56
ENDCHAR
STARTCHAR U+50D5
ENCODING 20693
SWIDTH 727 0
DWIDTH 8 0
BBX 7 7 0 0
BITMAP
54
7E
C8
7E
48
7E
54
ENDCHAR
STARTCHAR U+50D6
ENCODING 20694
SWIDTH 727 0
DWIDTH 8 0
BBX 7 7 0 0
BITMAP
7E
88
BE
94
FE
A2
BE
ENDCHAR
STARTCHAR U+50DA
ENCODING 20698
SWIDTH 727 0
DWIDTH 8 0
BBX 7 7 0 0
BITMAP
7E
94
A2
BE
88
AA
DA
ENDCHAR
STARTCHAR U+50DE
ENCODING 20702
SWIDTH 727 0
DWIDTH 8 0
BBX 7 7 0 0
BITMAP
5C
AA
BC
A4
BE
A2
D6
ENDCHAR
STARTCHAR U+50E3
ENCODING 20707
SWIDTH 727 0
DWIDTH 8 0
BBX 7 7 0 0
BITMAP
54
BE
94
AA
BE
A2
BE
ENDCHAR
STARTCHAR U+50E5
ENCODING 20709
SWIDTH 727 0
DWIDTH 8 0
BBX 7 7 0 0
BITMAP
7E
88
BE
94
BE
94
A6
ENDCHAR
STARTCHAR U+50E7
ENCODING 20711
SWIDTH 727 0
DWIDTH 8 0
BBX 7 7 0 0
BITMAP
54
BE
AA
BE
94
94
9C
ENDCHAR
STARTCHAR U+50ED
ENCODING 20717
SWIDTH 727 0
DWIDTH 8 0
BBX 7 7 0 0
BITMAP
5E
94
BE
A8
BE
A2
BE
ENDCHAR
STARTCHAR U+50EE
ENCODING 20718
SWIDTH 727 0
DWIDTH 8 0
BBX 7 7 0 0
BITMAP
7E
94
BE
AA
BE
88
BE
ENDCHAR
STARTCHAR U+50F5
ENCODING 20725
SWIDTH 727 0
DWIDTH 8 0
BBX 7 7 0 0
BITMAP
7E
AA
BE
88
BE
AA
BE
ENDCHAR
STARTCHAR U+50F9
ENCODING 20729
SWIDTH 727 0
DWIDTH 8 0
BBX 7 7 0 0
BITMAP
7E
94
BE
A2
BE
94
A2
ENDCHAR
STARTCHAR U+50FB
ENCODING 20731
SWIDTH 727 0
DWIDTH 8 0
BBX 7 7 0 0
BITMAP
7A
AE
BA
A6
BA
AE
BA
ENDCHAR
STARTCHAR U+5100
ENCODING 20736
SWIDTH 727 0
DWIDTH 8 0
BBX 7 7 0 0
BITMAP
5E
48
FE
54
7E
54
52
ENDCHAR
STARTCHAR U+5101
ENCODING 20737
SWIDTH 727 0
DWIDTH 8 0
BBX 7 7 0 0
BITMAP
54
BE
A8
BE
80
B6
AA
ENDCHAR
STARTCHAR U+5102
ENCODING 20738
SWIDTH 727 0
DWIDTH 8 0
BBX 7 7 0 0
BITMAP
54
BE
94
BE
AA
AC
D6
ENDCHAR
STARTCHAR U+5104
ENCODING 20740
SWIDTH 727 0
DWIDTH 8 0
BBX 7 7 0 0
BITMAP
5E
4A
DE
52
5E
48
56
ENDCHAR
STARTCHAR U+5109
ENCODING 20745
SWIDTH 727 0
DWIDTH 8 0
BBX 7 7 0 0
BITMAP
5C
A2
BE
AA
BE
94
AA
ENDCHAR
STARTCHAR U+5112
ENCODING 20754
SWIDTH 727 0
DWIDTH 8 0
BBX 7 7 0 0
BITMAP
7E
AA
80
BE
90
BE
AA
ENDCHAR
STARTCHAR U+5114
ENCODING 20756
SWIDTH 727 0
DWIDTH 8 0
BBX 7 7 0 0
BITMAP
7E
88
BE
92
BE
82
B6
ENDCHAR
STARTCHAR U+5115
ENCODING 20757
SWIDTH 727 0
DWIDTH 8 0
BBX 7 7 0 0
BITMAP
48
BE
94
AA
92
9E
A2
ENDCHAR
STARTCHAR U+5116
ENCODING 20758
SWIDTH 727 0
DWIDTH 8 0
BBX 7 7 0 0
BITMAP
74
AE
B8
A6
BC
A4
FE
ENDCHAR
STARTCHAR U+5118
ENCODING 20760
SWIDTH 727 0
DWIDTH 8 0
BBX 7 7 0 0
BITMAP
7E
8A
BE
80
BE
AA
BE
ENDCHAR
STARTCHAR U+511A
ENCODING 20762
SWIDTH 727 0
DWIDTH 8 0
BBX 7 7 0 0
BITMAP
54
BE
94
BE
AA
84
98
ENDCHAR
STARTCHAR U+511F
ENCODING 20767
SWIDTH 727 0
DWIDTH 8 0
BBX 7 7 0 0
BITMAP
54
7E
D6
5C
54
5C
62
ENDCHAR
STARTCHAR U+5121
ENCODING 20769
SWIDTH 727 0
DWIDTH 8 0
BBX 7 7 0 0
BITMAP
7E
A2
BE
AA
BE
AA
BE
ENDCHAR
STARTCHAR U+512A
ENCODING 20778
SWIDTH 727 0
DWIDTH 8 0
BBX 7 7 0 0
BITMAP
5E
48
DE
52
5E
54
6A
ENDCHAR
STARTCHAR U+5132
ENCODING 20786
SWIDTH 727 0
DWIDTH 8 0
BBX 7 7 0 0
BITMAP
7A
8C
BE
80
BE
AA
BE
ENDCHAR
STARTCHAR U+5137
ENCODING 20791
SWIDTH 727 0
DWIDTH 8 0
BBX 7 7 0 0
BITMAP
5E
94
BE
AA
BE
B4
DE
ENDCHAR
STARTCHAR U+513A
ENCODING 20794
SWIDTH 727 0
DWIDTH 8 0
BBX 7 7 0 0
BITMAP
6A
BC
96
BC
96
AC
AE
ENDCHAR
STARTCHAR U+513B
ENCODING 20795
SWIDTH 727 0
DWIDTH 8 0
BBX 7 7 0 0
BITMAP
6A
BE
AA
BE
88
BE
AA
ENDCHAR
STARTCHAR U+513C
ENCODING 20796
SWIDTH 727 0
DWIDTH 8 0
BBX 7 7 0 0
BITMAP
54
BE
A4
BE
AA
BC
CA
ENDCHAR
STARTCHAR U+513F
ENCODING 20799
SWIDTH 727 0
DWIDTH 8 0
BBX 7 7 0 0
BITMAP
48
48
48
48
4A
4A
8E
ENDCHAR
STARTCHAR U+5140
ENCODING 20800
SWIDTH 727 0
DWIDTH 8 0
BBX 7 7 0 0
BITMAP
FE
28
28
28
2A
4A
8E
ENDCHAR
STARTCHAR U+5141
ENCODING 20801
SWIDTH 727 0
DWIDTH 8 0
BBX 7 7 0 0
BITMAP
20
44
FE
28
28
2A
CE
ENDCHAR
STARTCHAR U+5143
ENCODING 20803
SWIDTH 727 0
DWIDTH 8 0
BBX 7 7 0 0
BITMAP
7C
00
FE
28
28
4A
8E
ENDCHAR
STARTCHAR U+5144
ENCODING 20804
SWIDTH 727 0
DWIDTH 8 0
BBX 7 7 0 0
BITMAP
7C
44
44
7C
28
2A
CE
ENDCHAR
STARTCHAR U+5145
ENCODING 20805
SWIDTH 727 0
DWIDTH 8 0
BBX 7 7 0 0
BITMAP
10
FE
24
FE
28
2A
CE
ENDCHAR
STARTCHAR U+5146
ENCODING 20806
SWIDTH 727 0
DWIDTH 8 0
BBX 7 7 0 0
BITMAP
28
AA
6C
6C
AA
48
8E
ENDCHAR
STARTCHAR U+5147
ENCODING 20807
SWIDTH 727 0
DWIDTH 8 0
BBX 7 7 0 0
BITMAP
AA
92
AA
FE
28
2A
CE
ENDCHAR
STARTCHAR U+5148
ENCODING 20808
SWIDTH 727 0
DWIDTH 8 0
BBX 7 7 0 0
BITMAP
50
7C
90
FE
28
2A
CE
ENDCHAR
STARTCHAR U+5149
ENCODING 20809
SWIDTH 727 0
DWIDTH 8 0
BBX 7 7 0 0
BITMAP
10
54
28
FE
28
2A
CE
ENDCHAR
STARTCHAR U+514B
ENCODING 20811
SWIDTH 727 0
DWIDTH 8 0
BBX 7 7 0 0
BITMAP
FE
10
7C
44
7C
28
CE
ENDCHAR
STARTCHAR U+514C
ENCODING 20812
SWIDTH 727 0
DWIDTH 8 0
BBX 7 7 0 0
BITMAP
6C
82
FE
82
FE
28
CE
ENDCHAR
STARTCHAR U+514D
ENCODING 20813
SWIDTH 727 0
DWIDTH 8 0
BBX 7 7 0 0
BITMAP
78
88
FE
92
FE
28
CE
ENDCHAR
STARTCHAR U+514E
ENCODING 20814
SWIDTH 727 0
DWIDTH 8 0
BBX 7 7 0 0
BITMAP
FE
10
FE
92
FE
28
CE
ENDCHAR
STARTCHAR U+5150
ENCODING 20816
SWIDTH 727 0
DWIDTH 8 0
BBX 7 7 0 0
BITMAP
BC
A4
BC
A4
BC
28
CE
ENDCHAR
STARTCHAR U+5152
ENCODING 20818
SWIDTH 727 0
DWIDTH 8 0
BBX 7 7 0 0
BITMAP
6E
82
EE
82
FE
28
CE
ENDCHAR
STARTCHAR U+5154
ENCODING 20820
SWIDTH 727 0
DWIDTH 8 0
BBX 7 7 0 0
BITMAP
7C
84
FE
92
FE
28
CE
ENDCHAR
STARTCHAR U+515A
ENCODING 20826
SWIDTH 727 0
DWIDTH 8 0
BBX 7 7 0 0
BITMAP
54
FE
44
7C
28
4A
8E
ENDCHAR
STARTCHAR U+515C
ENCODING 20828
SWIDTH 727 0
DWIDTH 8 0
BBX 7 7 0 0
BITMAP
BA
AA
AA
BA
28
28
CE
ENDCHAR
STARTCHAR U+5162
ENCODING 20834
SWIDTH 727 0
DWIDTH 8 0
BBX 7 7 0 0
BITMAP
EE
44
EE
AA
EE
44
AA
ENDCHAR
STARTCHAR U+5165
ENCODING 20837
SWIDTH 727 0
DWIDTH 8 0
BBX 7 7 0 0
BITMAP
70
10
10
10
10
28
C6
ENDCHAR
STARTCHAR U+5168
ENCODING 20840
SWIDTH 727 0
DWIDTH 8 0
BBX 7 7 0 0
BITMAP
38
44
BA
10
7C
10
FE
ENDCHAR
STARTCHAR U+5169
ENCODING 20841
SWIDTH 727 0
DWIDTH 8 0
BBX 7 7 0 0
BITMAP
FE
10
FE
92
DA
B6
DA
ENDCHAR
STARTCHAR U+516A
ENCODING 20842
SWIDTH 727 0
DWIDTH 8 0
BBX 7 7 0 0
BITMAP
10
6C
82
EA
B4
EA
AA
ENDCHAR
STARTCHAR U+516B
ENCODING 20843
SWIDTH 727 0
DWIDTH 8 0
BBX 7 7 0 0
BITMAP
28
28
28
44
44
82
82
ENDCHAR
STARTCHAR U+516C
ENCODING 20844
SWIDTH 727 0
DWIDTH 8 0
BBX 7 7 0 0
BITMAP
28
44
92
20
28
44
FA
ENDCHAR
STARTCHAR U+516D
ENCODING 20845
SWIDTH 727 0
DWIDTH 8 0
BBX 7 7 0 0
BITMAP
10
FE
00
44
44
44
82
ENDCHAR
STARTCHAR U+516E
ENCODING 20846
SWIDTH 727 0
DWIDTH 8 0
BBX 7 7 0 0
BITMAP
28
44
BA
20
7C
04
1C
ENDCHAR
STARTCHAR U+5171
ENCODING 20849
SWIDTH 727 0
DWIDTH 8 0
BBX 7 7 0 0
BITMAP
44
FE
44
44
FE
44
82
ENDCHAR
STARTCHAR U+5175
ENCODING 20853
SWIDTH 727 0
DWIDTH 8 0
BBX 7 7 0 0
BITMAP
7C
40
7E
44
FE
28
C6
ENDCHAR
STARTCHAR U+5176
ENCODING 20854
SWIDTH 727 0
DWIDTH 8 0
BBX 7 7 0 0
BITMAP
FE
44
7C
44
FE
44
82
ENDCHAR
STARTCHAR U+5177
ENCODING 20855
SWIDTH 727 0
DWIDTH 8 0
BBX 7 7 0 0
BITMAP
7C
44
7C
44
FE
28
44
ENDCHAR
STARTCHAR U+5178
ENCODING 20856
SWIDTH 727 0
DWIDTH 8 0
BBX 7 7 0 0
BITMAP
28
7C
54
7C
54
FE
44
ENDCHAR
STARTCHAR U+517C
ENCODING 20860
SWIDTH 727 0
DWIDTH 8 0
BBX 7 7 0 0
BITMAP
28
FE
2A
FE
28
6C
AA
ENDCHAR
STARTCHAR U+5180
ENCODING 20864
SWIDTH 727 0
DWIDTH 8 0
BBX 7 7 0 0
BITMAP
EE
28
FE
92
FE
28
C6
ENDCHAR
STARTCHAR U+5182
ENCODING 20866
SWIDTH 727 0
DWIDTH 8 0
BBX 7 7 0 0
BITMAP
FE
82
82
82
82
82
8E
ENDCHAR
STARTCHAR U+5185
ENCODING 20869
SWIDTH 727 0
DWIDTH 8 0
BBX 7 7 0 0
BITMAP
10
FE
92
92
AA
82
86
ENDCHAR
STARTCHAR U+5186
ENCODING 20870
SWIDTH 727 0
DWIDTH 8 0
BBX 7 7 0 0
BITMAP
FE
92
92
FE
82
82
86
ENDCHAR
STARTCHAR U+5189
ENCODING 20873
SWIDTH 727 0
DWIDTH 8 0
BBX 7 7 0 0
BITMAP
10
FE
92
FE
92
FE
82
ENDCHAR
STARTCHAR U+518A
ENCODING 20874
SWIDTH 727 0
DWIDTH 8 0
BBX 7 7 0 0
BITMAP
7C
54
54
FE
54
54
54
ENDCHAR
STARTCHAR U+518C
ENCODING 20876
SWIDTH 727 0
DWIDTH 8 0
BBX 7 7 0 0
BITMAP
EE
AA
AA
FE
AA
AA
AA
ENDCHAR
STARTCHAR U+518D
ENCODING 20877
SWIDTH 727 0
DWIDTH 8 0
BBX 7 7 0 0
BITMAP
FE
10
7C
54
FE
44
4C
ENDCHAR
STARTCHAR U+518F
ENCODING 20879
SWIDTH 727 0
DWIDTH 8 0
BBX 7 7 0 0
BITMAP
FE
AA
C6
BA
AA
BA
86
ENDCHAR
STARTCHAR U+5190
ENCODING 20880
SWIDTH 727 0
DWIDTH 8 0
BBX 7 7 0 0
BITMAP
FE
82
7C
00
7C
44
4C
ENDCHAR
STARTCHAR U+5191
ENCODING 20881
SWIDTH 727 0
DWIDTH 8 0
BBX 7 7 0 0
BITMAP
10
FE
92
FE
44
7C
44
ENDCHAR
STARTCHAR U+5192
ENCODING 20882
SWIDTH 727 0
DWIDTH 8 0
BBX 7 7 0 0
BITMAP
FE
82
FE
44
7C
44
7C
ENDCHAR
STARTCHAR U+5193
ENCODING 20883
SWIDTH 727 0
DWIDTH 8 0
BBX 7 7 0 0
BITMAP
44
FE
44
FE
54
FE
44
ENDCHAR
STARTCHAR U+5195
ENCODING 20885
SWIDTH 727 0
DWIDTH 8 0
BBX 7 7 0 0
BITMAP
FE
82
7C
48
FE
28
CE
ENDCHAR
STARTCHAR U+5196
ENCODING 20886
SWIDTH 727 0
DWIDTH 8 0
BBX 7 3 0 3
BITMAP
FE
82
82
ENDCHAR
STARTCHAR U+5197
ENCODING 20887
SWIDTH 727 0
DWIDTH 8 0
BBX 7 7 0 0
BITMAP
FE
82
38
28
28
2A
CE
ENDCHAR
STARTCHAR U+5199
ENCODING 20889
SWIDTH 727 0
DWIDTH 8 0
BBX 7 7 0 0
BITMAP
FE
A2
BA
08
FE
08
38
ENDCHAR
STARTCHAR U+51A0
ENCODING 20896
SWIDTH 727 0
DWIDTH 8 0
BBX 7 7 0 0
BITMAP
FE
82
EE
A4
AC
A2
BE
ENDCHAR
STARTCHAR U+51A2
ENCODING 20898
SWIDTH 727 0
DWIDTH 8 0
BBX 7 7 0 0
BITMAP
FE
92
30
D4
38
D6
30
ENDCHAR
STARTCHAR U+51A4
ENCODING 20900
SWIDTH 727 0
DWIDTH 8 0
BBX 7 7 0 0
BITMAP
FE
A2
7C
D4
7C
28
CE
ENDCHAR
STARTCHAR U+51A5
ENCODING 20901
SWIDTH 727 0
DWIDTH 8 0
BBX 7 7 0 0
BITMAP
FE
AA
38
28
FE
28
C6
ENDCHAR
STARTCHAR U+51A6
ENCODING 20902
SWIDTH 727 0
DWIDTH 8 0
BBX 7 7 0 0
BITMAP
FE
8A
EE
04
EA
A2
BE
ENDCHAR
STARTCHAR U+51A8
ENCODING 20904
SWIDTH 727 0
DWIDTH 8 0
BBX 7 7 0 0
BITMAP
FE
82
7C
44
FE
92
FE
ENDCHAR
STARTCHAR U+51A9
ENCODING 20905
SWIDTH 727 0
DWIDTH 8 0
BBX 7 7 0 0
BITMAP
FE
82
6C
44
7E
82
56
ENDCHAR
STARTCHAR U+51AA
ENCODING 20906
SWIDTH 727 0
DWIDTH 8 0
BBX 7 7 0 0
BITMAP
FE
AA
7C
44
FE
54
92
ENDCHAR
STARTCHAR U+51AB
ENCODING 20907
SWIDTH 727 0
DWIDTH 8 0
BBX 2 7 2 0
BITMAP
80
40
00
40
40
80
80
ENDCHAR
STARTCHAR U+51AC
ENCODING 20908
SWIDTH 727 0
DWIDTH 8 0
BBX 7 7 0 0
BITMAP
3C
68
10
28
D6
28
10
ENDCHAR
STARTCHAR U+51B0
ENCODING 20912
SWIDTH 727 0
DWIDTH 8 0
BBX 7 7 0 0
BITMAP
88
8A
3C
18
2C
8A
88
ENDCHAR
STARTCHAR U+51B1
ENCODING 20913
SWIDTH 727 0
DWIDTH 8 0
BBX 7 7 0 0
BITMAP
BE
50
1C
14
5C
84
BE
ENDCHAR
STARTCHAR U+51B2
ENCODING 20914
SWIDTH 727 0
DWIDTH 8 0
BBX 7 7 0 0
BITMAP
88
7E
2A
2A
7E
88
88
ENDCHAR
STARTCHAR U+51B3
ENCODING 20915
SWIDTH 727 0
DWIDTH 8 0
BBX 7 7 0 0
BITMAP
88
5E
0A
7E
48
94
A2
ENDCHAR
STARTCHAR U+51B4
ENCODING 20916
SWIDTH 727 0
DWIDTH 8 0
BBX 7 7 0 0
BITMAP
9E
54
14
3E
4C
94
24
ENDCHAR
STARTCHAR U+51B5
ENCODING 20917
SWIDTH 727 0
DWIDTH 8 0
BBX 7 7 0 0
BITMAP
BE
A2
22
3E
94
94
A6
ENDCHAR
STARTCHAR U+51B6
ENCODING 20918
SWIDTH 727 0
DWIDTH 8 0
BBX 7 7 0 0
BITMAP
88
52
1E
00
5E
52
9E
ENDCHAR
STARTCHAR U+51B7
ENCODING 20919
SWIDTH 727 0
DWIDTH 8 0
BBX 7 7 0 0
BITMAP
88
54
22
7E
12
56
90
ENDCHAR
STARTCHAR U+51BD
ENCODING 20925
SWIDTH 727 0
DWIDTH 8 0
BBX 7 7 0 0
BITMAP
FA
AA
2A
5A
0A
92
A6
ENDCHAR
STARTCHAR U+51C4
ENCODING 20932
SWIDTH 727 0
DWIDTH 8 0
BBX 7 7 0 0
BITMAP
BE
8A
3E
08
BE
94
2E
ENDCHAR
STARTCHAR U+51C5
ENCODING 20933
SWIDTH 727 0
DWIDTH 8 0
BBX 7 7 0 0
BITMAP
BE
AA
3E
2A
BE
A2
BE
ENDCHAR
STARTCHAR U+51C6
ENCODING 20934
SWIDTH 727 0
DWIDTH 8 0
BBX 7 7 0 0
BITMAP
94
5E
34
1E
54
94
1E
ENDCHAR
STARTCHAR U+51C9
ENCODING 20937
SWIDTH 727 0
DWIDTH 8 0
BBX 7 7 0 0
BITMAP
88
7E
24
3C
48
AA
AA
ENDCHAR
STARTCHAR U+51CB
ENCODING 20939
SWIDTH 727 0
DWIDTH 8 0
BBX 7 7 0 0
BITMAP
BE
6A
3E
2A
6E
AA
2E
ENDCHAR
STARTCHAR U+51CC
ENCODING 20940
SWIDTH 727 0
DWIDTH 8 0
BBX 7 7 0 0
BITMAP
BE
88
7E
10
7C
88
B6
ENDCHAR
STARTCHAR U+51CD
ENCODING 20941
SWIDTH 727 0
DWIDTH 8 0
BBX 7 7 0 0
BITMAP
BE
48
3E
2A
3E
48
AA
ENDCHAR
STARTCHAR U+51D6
ENCODING 20950
SWIDTH 727 0
DWIDTH 8 0
BBX 7 7 0 0
BITMAP
94
3E
A8
BE
10
FE
10
ENDCHAR
STARTCHAR U+51DB
ENCODING 20955
SWIDTH 727 0
DWIDTH 8 0
BBX 7 7 0 0
BITMAP
BE
A2
3E
00
BE
88
AA
ENDCHAR
STARTCHAR U+51DC
ENCODING 20956
SWIDTH 727 0
DWIDTH 8 0
BBX 7 7 0 0
BITMAP
BE
94
1C
08
3E
9C
AA
ENDCHAR
STARTCHAR U+51DD
ENCODING 20957
SWIDTH 727 0
DWIDTH 8 0
BBX 7 7 0 0
BITMAP
2E
B2
64
3E
64
94
AE
ENDCHAR
STARTCHAR U+51E0
ENCODING 20960
SWIDTH 727 0
DWIDTH 8 0
BBX 7 7 0 0
BITMAP
78
48
48
48
4A
4A
8E
ENDCHAR
STARTCHAR U+51E1
ENCODING 20961
SWIDTH 727 0
DWIDTH 8 0
BBX 7 7 0 0
BITMAP
7C
44
44
54
54
44
86
ENDCHAR
STARTCHAR U+51E6
ENCODING 20966
SWIDTH 727 0
DWIDTH 8 0
BBX 7 7 0 0
BITMAP
EE
AA
AA
2A
AA
40
BE
ENDCHAR
STARTCHAR U+51E7
ENCODING 20967
SWIDTH 727 0
DWIDTH 8 0
BBX 7 7 0 0
BITMAP
FE
A2
FA
AA
AA
BA
A2
ENDCHAR
STARTCHAR U+51E9
ENCODING 20969
SWIDTH 727 0
DWIDTH 8 0
BBX 7 7 0 0
BITMAP
FE
92
FE
92
BA
D6
92
ENDCHAR
STARTCHAR U+51EA
ENCODING 20970
SWIDTH 727 0
DWIDTH 8 0
BBX 7 7 0 0
BITMAP
FE
8A
AA
AE
AA
FE
82
ENDCHAR
STARTCHAR U+51ED
ENCODING 20973
SWIDTH 727 0
DWIDTH 8 0
BBX 7 7 0 0
BITMAP
5E
C8
5E
00
7C
44
86
ENDCHAR
STARTCHAR U+51F0
ENCODING 20976
SWIDTH 727 0
DWIDTH 8 0
BBX 7 7 0 0
BITMAP
FE
A2
BA
AA
BA
92
BA
ENDCHAR
STARTCHAR U+51F1
ENCODING 20977
SWIDTH 727 0
DWIDTH 8 0
BBX 7 7 0 0
BITMAP
AE
EA
AA
EA
AA
4A
EA
ENDCHAR
STARTCHAR U+51F5
ENCODING 20981
SWIDTH 727 0
DWIDTH 8 0
BBX 7 7 0 0
BITMAP
82
82
82
82
82
82
FE
ENDCHAR
STARTCHAR U+51F6
ENCODING 20982
SWIDTH 727 0
DWIDTH 8 0
BBX 7 7 0 0
BITMAP
8A
8A
AA
92
AA
C2
FE
ENDCHAR
STARTCHAR U+51F8
ENCODING 20984
SWIDTH 727 0
DWIDTH 8 0
BBX 7 7 0 0
BITMAP
38
28
28
EE
82
82
FE
ENDCHAR
STARTCHAR U+51F9
ENCODING 20985
SWIDTH 727 0
DWIDTH 8 0
BBX 7 7 0 0
BITMAP
EE
AA
AA
AA
BA
82
FE
ENDCHAR
STARTCHAR U+51FA
ENCODING 20986
SWIDTH 727 0
DWIDTH 8 0
BBX 7 7 0 0
BITMAP
92
92
FE
10
92
92
FE
ENDCHAR
STARTCHAR U+51FD
ENCODING 20989
SWIDTH 727 0
DWIDTH 8 0
BBX 7 7 0 0
BITMAP
FE
10
A6
9A
96
A2
FE
ENDCHAR
STARTCHAR U+51FE
ENCODING 20990
SWIDTH 727 0
DWIDTH 8 0
BBX 7 7 0 0
BITMAP
FC
10
EA
B6
EA
92
FE
ENDCHAR
STARTCHAR U+5200
ENCODING 20992
SWIDTH 727 0
DWIDTH 8 0
BBX 7 7 0 0
BITMAP
FE
22
22
22
22
42
86
ENDCHAR
STARTCHAR U+5203
ENCODING 20995
SWIDTH 727 0
DWIDTH 8 0
BBX 7 7 0 0
BITMAP
FE
12
12
52
22
52
86
ENDCHAR
STARTCHAR U+5204
ENCODING 20996
SWIDTH 727 0
DWIDTH 8 0
BBX 7 7 0 0
BITMAP
FC
24
A4
74
2E
44
8C
ENDCHAR
STARTCHAR U+5206
ENCODING 20998
SWIDTH 727 0
DWIDTH 8 0
BBX 7 7 0 0
BITMAP
28
C6
00
7C
24
24
CC
ENDCHAR
STARTCHAR U+5207
ENCODING 20999
SWIDTH 727 0
DWIDTH 8 0
BBX 7 7 0 0
BITMAP
9E
AA
CA
8A
AA
EA
16
ENDCHAR
STARTCHAR U+5208
ENCODING 21000
SWIDTH 727 0
DWIDTH 8 0
BBX 7 7 0 0
BITMAP
2A
AA
AA
4A
4A
A2
A6
ENDCHAR
STARTCHAR U+520A
ENCODING 21002
SWIDTH 727 0
DWIDTH 8 0
BBX 7 7 0 0
BITMAP
EA
4A
4A
EA
4A
42
46
ENDCHAR
STARTCHAR U+520B
ENCODING 21003
SWIDTH 727 0
DWIDTH 8 0
BBX 7 7 0 0
BITMAP
EA
4A
4A
EA
4A
42
86
ENDCHAR
STARTCHAR U+520E
ENCODING 21006
SWIDTH 727 0
DWIDTH 8 0
BBX 7 7 0 0
BITMAP
4A
7A
AA
2A
2A
4A
96
ENDCHAR
STARTCHAR U+5211
ENCODING 21009
SWIDTH 727 0
DWIDTH 8 0
BBX 7 7 0 0
BITMAP
FA
AA
AA
FA
AA
A2
A6
ENDCHAR
STARTCHAR U+5214
ENCODING 21012
SWIDTH 727 0
DWIDTH 8 0
BBX 7 7 0 0
BITMAP
4A
FA
4A
FA
4A
A2
92
ENDCHAR
STARTCHAR U+5217
ENCODING 21015
SWIDTH 727 0
DWIDTH 8 0
BBX 7 7 0 0
BITMAP
EA
8A
EA
AA
6A
22
C6
ENDCHAR
STARTCHAR U+521D
ENCODING 21021
SWIDTH 727 0
DWIDTH 8 0
BBX 7 7 0 0
BITMAP
5E
EA
2A
4A
EA
4A
56
ENDCHAR
STARTCHAR U+5224
ENCODING 21028
SWIDTH 727 0
DWIDTH 8 0
BBX 7 7 0 0
BITMAP
AA
2A
FA
2A
FA
22
26
ENDCHAR
STARTCHAR U+5225
ENCODING 21029
SWIDTH 727 0
DWIDTH 8 0
BBX 7 7 0 0
BITMAP
EA
AA
EA
4A
7A
52
B6
ENDCHAR
STARTCHAR U+5227
ENCODING 21031
SWIDTH 727 0
DWIDTH 8 0
BBX 7 7 0 0
BITMAP
5E
EA
4A
EA
4A
AA
F6
ENDCHAR
STARTCHAR U+5229
ENCODING 21033
SWIDTH 727 0
DWIDTH 8 0
BBX 7 7 0 0
BITMAP
EA
4A
EA
4A
EA
C2
46
ENDCHAR
STARTCHAR U+522A
ENCODING 21034
SWIDTH 727 0
DWIDTH 8 0
BBX 7 7 0 0
BITMAP
FA
AA
AA
FA
AA
AA
AE
ENDCHAR
STARTCHAR U+522E
ENCODING 21038
SWIDTH 727 0
DWIDTH 8 0
BBX 7 7 0 0
BITMAP
EA
4A
EA
4A
EA
A2
E6
ENDCHAR
STARTCHAR U+5230
ENCODING 21040
SWIDTH 727 0
DWIDTH 8 0
BBX 7 7 0 0
BITMAP
EA
4A
EA
4A
EA
52
E6
ENDCHAR
STARTCHAR U+5233
ENCODING 21043
SWIDTH 727 0
DWIDTH 8 0
BBX 7 7 0 0
BITMAP
EA
4A
AA
8A
EA
22
66
ENDCHAR
STARTCHAR U+5236
ENCODING 21046
SWIDTH 727 0
DWIDTH 8 0
BBX 7 7 0 0
BITMAP
EA
4A
EA
4A
EA
A2
A6
ENDCHAR
STARTCHAR U+5237
ENCODING 21047
SWIDTH 727 0
DWIDTH 8 0
BBX 7 7 0 0
BITMAP
EA
AA
EA
8A
EA
A2
A6
ENDCHAR
STARTCHAR U+5238
ENCODING 21048
SWIDTH 727 0
DWIDTH 8 0
BBX 7 7 0 0
BITMAP
54
38
FE
44
BA
28
48
ENDCHAR
STARTCHAR U+5239
ENCODING 21049
SWIDTH 727 0
DWIDTH 8 0
BBX 7 7 0 0
BITMAP
AA
4A
AA
4A
EA
42
46
ENDCHAR
STARTCHAR U+523A
ENCODING 21050
SWIDTH 727 0
DWIDTH 8 0
BBX 7 7 0 0
BITMAP
2A
FA
2A
FA
AA
72
AE
ENDCHAR
STARTCHAR U+523B
ENCODING 21051
SWIDTH 727 0
DWIDTH 8 0
BBX 7 7 0 0
BITMAP
4A
FA
4A
AA
4A
A2
56
ENDCHAR
STARTCHAR U+5243
ENCODING 21059
SWIDTH 727 0
DWIDTH 8 0
BBX 7 7 0 0
BITMAP
AA
4A
EA
8A
FA
52
B6
ENDCHAR
STARTCHAR U+5244
ENCODING 21060
SWIDTH 727 0
DWIDTH 8 0
BBX 7 7 0 0
BITMAP
EA
AA
4A
AA
EA
42
E6
ENDCHAR
STARTCHAR U+5247
ENCODING 21063
SWIDTH 727 0
DWIDTH 8 0
BBX 7 7 0 0
BITMAP
EA
AA
EA
AA
EA
42
A6
ENDCHAR
STARTCHAR U+524A
ENCODING 21066
SWIDTH 727 0
DWIDTH 8 0
BBX 7 7 0 0
BITMAP
AA
4A
EA
AA
EA
A2
A6
ENDCHAR
STARTCHAR U+524B
ENCODING 21067
SWIDTH 727 0
DWIDTH 8 0
BBX 7 7 0 0
BITMAP
EA
4A
EA
A2
E6
A0
BE
ENDCHAR
STARTCHAR U+524C
ENCODING 21068
SWIDTH 727 0
DWIDTH 8 0
BBX 7 7 0 0
BITMAP
FA
22
FA
AA
FA
72
AE
ENDCHAR
STARTCHAR U+524D
ENCODING 21069
SWIDTH 727 0
DWIDTH 8 0
BBX 7 7 0 0
BITMAP
FE
00
EA
AA
EA
A2
A6
ENDCHAR
STARTCHAR U+524F
ENCODING 21071
SWIDTH 727 0
DWIDTH 8 0
BBX 7 7 0 0
BITMAP
AE
EA
AA
BA
EE
AA
B2
ENDCHAR
STARTCHAR U+5254
ENCODING 21076
SWIDTH 727 0
DWIDTH 8 0
BBX 7 7 0 0
BITMAP
FA
8A
FA
42
FA
AA
AA
ENDCHAR
STARTCHAR U+5256
ENCODING 21078
SWIDTH 727 0
DWIDTH 8 0
BBX 7 7 0 0
BITMAP
EA
AA
FA
0A
EA
A2
E6
ENDCHAR
STARTCHAR U+525B
ENCODING 21083
SWIDTH 727 0
DWIDTH 8 0
BBX 7 7 0 0
BITMAP
EA
AA
EA
AA
AA
E2
A6
ENDCHAR
STARTCHAR U+525E
ENCODING 21086
SWIDTH 727 0
DWIDTH 8 0
BBX 7 7 0 0
BITMAP
FA
52
8A
FA
52
72
16
ENDCHAR
STARTCHAR U+5263
ENCODING 21091
SWIDTH 727 0
DWIDTH 8 0
BBX 7 7 0 0
BITMAP
4A
AA
EA
AA
EA
42
A6
ENDCHAR
STARTCHAR U+5264
ENCODING 21092
SWIDTH 727 0
DWIDTH 8 0
BBX 7 7 0 0
BITMAP
EA
AA
4A
AA
EA
A2
A6
ENDCHAR
STARTCHAR U+5265
ENCODING 21093
SWIDTH 727 0
DWIDTH 8 0
BBX 7 7 0 0
BITMAP
EA
2A
FA
5A
EA
52
C6
ENDCHAR
STARTCHAR U+5269
ENCODING 21097
SWIDTH 727 0
DWIDTH 8 0
BBX 7 7 0 0
BITMAP
EA
4A
FA
4A
EA
52
46
ENDCHAR
STARTCHAR U+526A
ENCODING 21098
SWIDTH 727 0
DWIDTH 8 0
BBX 7 7 0 0
BITMAP
FE
AA
AA
A2
FE
22
C6
ENDCHAR
STARTCHAR U+526F
ENCODING 21103
SWIDTH 727 0
DWIDTH 8 0
BBX 7 7 0 0
BITMAP
EA
0A
EA
AA
EA
A2
E6
ENDCHAR
STARTCHAR U+5270
ENCODING 21104
SWIDTH 727 0
DWIDTH 8 0
BBX 7 7 0 0
BITMAP
72
2A
FA
52
FA
72
AA
ENDCHAR
STARTCHAR U+5271
ENCODING 21105
SWIDTH 727 0
DWIDTH 8 0
BBX 7 7 0 0
BITMAP
5E
AA
EA
BA
EE
4A
B6
ENDCHAR
STARTCHAR U+5272
ENCODING 21106
SWIDTH 727 0
DWIDTH 8 0
BBX 7 7 0 0
BITMAP
EA
AA
FA
4A
EA
A2
E6
ENDCHAR
STARTCHAR U+5273
ENCODING 21107
SWIDTH 727 0
DWIDTH 8 0
BBX 7 7 0 0
BITMAP
FA
52
72
8A
FA
52
76
ENDCHAR
STARTCHAR U+5274
ENCODING 21108
SWIDTH 727 0
DWIDTH 8 0
BBX 7 7 0 0
BITMAP
AA
FA
8A
FA
52
52
FE
ENDCHAR
STARTCHAR U+5275
ENCODING 21109
SWIDTH 727 0
DWIDTH 8 0
BBX 7 7 0 0
BITMAP
4A
AA
EA
8A
EA
A2
E6
ENDCHAR
STARTCHAR U+527D
ENCODING 21117
SWIDTH 727 0
DWIDTH 8 0
BBX 7 7 0 0
BITMAP
FA
52
FA
8A
FA
22
AE
ENDCHAR
STARTCHAR U+527F
ENCODING 21119
SWIDTH 727 0
DWIDTH 8 0
BBX 7 7 0 0
BITMAP
AA
52
FA
AA
FA
72
AE
ENDCHAR
STARTCHAR U+5283
ENCODING 21123
SWIDTH 727 0
DWIDTH 8 0
BBX 7 7 0 0
BITMAP
EA
2A
FA
AA
EA
02
F6
ENDCHAR
STARTCHAR U+5287
ENCODING 21127
SWIDTH 727 0
DWIDTH 8 0
BBX 7 7 0 0
BITMAP
62
4A
FA
AA
FA
A2
D6
ENDCHAR
STARTCHAR U+5288
ENCODING 21128
SWIDTH 727 0
DWIDTH 8 0
BBX 7 7 0 0
BITMAP
EE
A4
EE
84
FE
12
E6
ENDCHAR
STARTCHAR U+5289
ENCODING 21129
SWIDTH 727 0
DWIDTH 8 0
BBX 7 7 0 0
BITMAP
DA
8A
DA
22
DA
22
FA
ENDCHAR
STARTCHAR U+528D
ENCODING 21133
SWIDTH 727 0
DWIDTH 8 0
BBX 7 7 0 0
BITMAP
72
8A
FA
AA
FA
52
AA
ENDCHAR
STARTCHAR U+5291
ENCODING 21137
SWIDTH 727 0
DWIDTH 8 0
BBX 7 7 0 0
BITMAP
FA
22
72
AA
8A
FA
8E
ENDCHAR
STARTCHAR U+5292
ENCODING 21138
SWIDTH 727 0
DWIDTH 8 0
BBX 7 7 0 0
BITMAP
5E
AA
EA
AA
EA
4A
B6
ENDCHAR
STARTCHAR U+5294
ENCODING 21140
SWIDTH 727 0
DWIDTH 8 0
BBX 7 7 0 0
BITMAP
5E
AA
EA
BA
EE
4A
B4
ENDCHAR
STARTCHAR U+529B
ENCODING 21147
SWIDTH 727 0
DWIDTH 8 0
BBX 7 7 0 0
BITMAP
20
FE
22
22
22
42
86
ENDCHAR
STARTCHAR U+529F
ENCODING 21151
SWIDTH 727 0
DWIDTH 8 0
BBX 7 7 0 0
BITMAP
08
DE
4A
4A
6A
CA
16
ENDCHAR
STARTCHAR U+52A0
ENCODING 21152
SWIDTH 727 0
DWIDTH 8 0
BBX 7 7 0 0
BITMAP
8E
EA
AA
AA
AA
AA
AE
ENDCHAR
STARTCHAR U+52A3
ENCODING 21155
SWIDTH 727 0
DWIDTH 8 0
BBX 7 7 0 0
BITMAP
54
9A
70
10
FE
22
C6
ENDCHAR
STARTCHAR U+52A9
ENCODING 21161
SWIDTH 727 0
DWIDTH 8 0
BBX 7 7 0 0
BITMAP
E8
BE
EA
AA
EA
AA
D6
ENDCHAR
STARTCHAR U+52AA
ENCODING 21162
SWIDTH 727 0
DWIDTH 8 0
BBX 7 7 0 0
BITMAP
EE
AA
44
AA
FE
22
C6
ENDCHAR
STARTCHAR U+52AB
ENCODING 21163
SWIDTH 727 0
DWIDTH 8 0
BBX 7 7 0 0
BITMAP
48
EE
4A
EA
4A
AA
F2
ENDCHAR
STARTCHAR U+52AC
ENCODING 21164
SWIDTH 727 0
DWIDTH 8 0
BBX 7 7 0 0
BITMAP
88
FE
2A
EA
AA
EA
36
ENDCHAR
STARTCHAR U+52AD
ENCODING 21165
SWIDTH 727 0
DWIDTH 8 0
BBX 7 7 0 0
BITMAP
E8
BE
AA
0A
EA
AA
F6
ENDCHAR
STARTCHAR U+52B1
ENCODING 21169
SWIDTH 727 0
DWIDTH 8 0
BBX 7 7 0 0
BITMAP
E8
9E
EA
AA
AA
AA
B6
ENDCHAR
STARTCHAR U+52B4
ENCODING 21172
SWIDTH 727 0
DWIDTH 8 0
BBX 7 7 0 0
BITMAP
54
FE
A2
7C
24
24
CC
ENDCHAR
STARTCHAR U+52B5
ENCODING 21173
SWIDTH 727 0
DWIDTH 8 0
BBX 7 7 0 0
BITMAP
54
FE
28
FE
44
BA
28
ENDCHAR
STARTCHAR U+52B9
ENCODING 21177
SWIDTH 727 0
DWIDTH 8 0
BBX 7 7 0 0
BITMAP
48
FE
AA
BA
AA
4A
B6
ENDCHAR
STARTCHAR U+52BC
ENCODING 21180
SWIDTH 727 0
DWIDTH 8 0
BBX 7 7 0 0
BITMAP
E8
5E
EA
0A
EA
AA
F6
ENDCHAR
STARTCHAR U+52BE
ENCODING 21182
SWIDTH 727 0
DWIDTH 8 0
BBX 7 7 0 0
BITMAP
E8
5E
AA
4A
AA
4A
B6
ENDCHAR
STARTCHAR U+52C1
ENCODING 21185
SWIDTH 727 0
DWIDTH 8 0
BBX 7 7 0 0
BITMAP
E8
AE
4A
AA
EA
4A
F6
ENDCHAR
STARTCHAR U+52C3
ENCODING 21187
SWIDTH 727 0
DWIDTH 8 0
BBX 7 7 0 0
BITMAP
E8
5E
EA
AA
4A
EA
56
ENDCHAR
STARTCHAR U+52C5
ENCODING 21189
SWIDTH 727 0
DWIDTH 8 0
BBX 7 7 0 0
BITMAP
48
FE
AA
EA
4A
EA
52
ENDCHAR
STARTCHAR U+52C7
ENCODING 21191
SWIDTH 727 0
DWIDTH 8 0
BBX 7 7 0 0
BITMAP
FC
08
FE
92
FE
22
C6
ENDCHAR
STARTCHAR U+52C9
ENCODING 21193
SWIDTH 727 0
DWIDTH 8 0
BBX 7 7 0 0
BITMAP
C8
4E
FA
AA
FA
50
9E
ENDCHAR
STARTCHAR U+52CD
ENCODING 21197
SWIDTH 727 0
DWIDTH 8 0
BBX 7 7 0 0
BITMAP
48
FE
AA
EA
4A
EA
56
ENDCHAR
STARTCHAR U+52D2
ENCODING 21202
SWIDTH 727 0
DWIDTH 8 0
BBX 7 7 0 0
BITMAP
A8
FE
4A
EA
AA
EA
56
ENDCHAR
STARTCHAR U+52D5
ENCODING 21205
SWIDTH 727 0
DWIDTH 8 0
BBX 7 7 0 0
BITMAP
E8
5E
EA
AA
EA
4A
F2
ENDCHAR
STARTCHAR U+52D7
ENCODING 21207
SWIDTH 727 0
DWIDTH 8 0
BBX 7 7 0 0
BITMAP
FE
82
FE
A8
FE
AA
F6
ENDCHAR
STARTCHAR U+52D8
ENCODING 21208
SWIDTH 727 0
DWIDTH 8 0
BBX 7 7 0 0
BITMAP
A8
EE
AA
EA
8A
8A
F2
ENDCHAR
STARTCHAR U+52D9
ENCODING 21209
SWIDTH 727 0
DWIDTH 8 0
BBX 7 7 0 0
BITMAP
FE
48
F6
48
DE
4A
D2
ENDCHAR
STARTCHAR U+52DD
ENCODING 21213
SWIDTH 727 0
DWIDTH 8 0
BBX 7 7 0 0
BITMAP
EA
BE
E8
BE
F4
AE
B4
ENDCHAR
STARTCHAR U+52DE
ENCODING 21214
SWIDTH 727 0
DWIDTH 8 0
BBX 7 7 0 0
BITMAP
EE
44
AA
FE
AA
28
D8
ENDCHAR
STARTCHAR U+52DF
ENCODING 21215
SWIDTH 727 0
DWIDTH 8 0
BBX 7 7 0 0
BITMAP
FE
44
7C
28
FE
24
CC
ENDCHAR
STARTCHAR U+52E0
ENCODING 21216
SWIDTH 727 0
DWIDTH 8 0
BBX 7 7 0 0
BITMAP
E8
5E
4A
AA
4A
AA
56
ENDCHAR
STARTCHAR U+52E2
ENCODING 21218
SWIDTH 727 0
DWIDTH 8 0
BBX 7 7 0 0
BITMAP
E8
5E
EA
52
FE
22
C6
ENDCHAR
STARTCHAR U+52E3
ENCODING 21219
SWIDTH 727 0
DWIDTH 8 0
BBX 7 7 0 0
BITMAP
48
EE
4A
EA
AA
EA
B6
ENDCHAR
STARTCHAR U+52E4
ENCODING 21220
SWIDTH 727 0
DWIDTH 8 0
BBX 7 7 0 0
BITMAP
F4
5E
FA
AA
FA
2A
F6
ENDCHAR
STARTCHAR U+52E6
ENCODING 21222
SWIDTH 727 0
DWIDTH 8 0
BBX 7 7 0 0
BITMAP
A8
EE
AA
EA
4A
EA
56
ENDCHAR
STARTCHAR U+52E7
ENCODING 21223
SWIDTH 727 0
DWIDTH 8 0
BBX 7 7 0 0
BITMAP
68
AE
FA
AA
FA
AA
F2
ENDCHAR
STARTCHAR U+52F2
ENCODING 21234
SWIDTH 727 0
DWIDTH 8 0
BBX 7 7 0 0
BITMAP
E8
4E
EA
AA
EA
00
AA
ENDCHAR
STARTCHAR U+52F3
ENCODING 21235
SWIDTH 727 0
DWIDTH 8 0
BBX 7 7 0 0
BITMAP
E8
5E
AA
EA
4A
EA
96
ENDCHAR
STARTCHAR U+52F5
ENCODING 21237
SWIDTH 727 0
DWIDTH 8 0
BBX 7 7 0 0
BITMAP
F8
AE
FA
AA
FA
AA
B6
ENDCHAR
STARTCHAR U+52F8
ENCODING 21240
SWIDTH 727 0
DWIDTH 8 0
BBX 7 7 0 0
BITMAP
F8
5E
AA
FA
AA
AA
F6
ENDCHAR
STARTCHAR U+52F9
ENCODING 21241
SWIDTH 727 0
DWIDTH 8 0
BBX 7 7 0 0
BITMAP
40
7E
42
82
02
02
0E
ENDCHAR
STARTCHAR U+52FA
ENCODING 21242
SWIDTH 727 0
DWIDTH 8 0
BBX 7 7 0 0
BITMAP
40
7E
82
22
12
02
0C
ENDCHAR
STARTCHAR U+52FE
ENCODING 21246
SWIDTH 727 0
DWIDTH 8 0
BBX 7 7 0 0
BITMAP
40
7E
82
22
22
4A
F6
ENDCHAR
STARTCHAR U+52FF
ENCODING 21247
SWIDTH 727 0
DWIDTH 8 0
BBX 7 7 0 0
BITMAP
40
7E
AA
2A
2A
52
A6
ENDCHAR
STARTCHAR U+5301
ENCODING 21249
SWIDTH 727 0
DWIDTH 8 0
BBX 7 7 0 0
BITMAP
40
7C
A4
74
2C
46
8C
ENDCHAR
STARTCHAR U+5302
ENCODING 21250
SWIDTH 727 0
DWIDTH 8 0
BBX 7 7 0 0
BITMAP
40
7E
42
A2
3A
22
3A
ENDCHAR
STARTCHAR U+5305
ENCODING 21253
SWIDTH 727 0
DWIDTH 8 0
BBX 7 7 0 0
BITMAP
7E
42
BA
0A
78
42
7E
ENDCHAR
STARTCHAR U+5306
ENCODING 21254
SWIDTH 727 0
DWIDTH 8 0
BBX 7 7 0 0
BITMAP
40
7E
AA
6A
3E
2A
56
ENDCHAR
STARTCHAR U+5308
ENCODING 21256
SWIDTH 727 0
DWIDTH 8 0
BBX 7 7 0 0
BITMAP
40
7E
A2
5A
6A
7A
06
ENDCHAR
STARTCHAR U+530D
ENCODING 21261
SWIDTH 727 0
DWIDTH 8 0
BBX 7 7 0 0
BITMAP
40
7E
92
7A
4A
7A
4A
ENDCHAR
STARTCHAR U+530F
ENCODING 21263
SWIDTH 727 0
DWIDTH 8 0
BBX 7 7 0 0
BITMAP
48
EE
52
AE
E8
2A
6E
ENDCHAR
STARTCHAR U+5310
ENCODING 21264
SWIDTH 727 0
DWIDTH 8 0
BBX 7 7 0 0
BITMAP
40
7E
CA
7A
4A
7A
4E
ENDCHAR
STARTCHAR U+5315
ENCODING 21269
SWIDTH 727 0
DWIDTH 8 0
BBX 7 7 0 0
BITMAP
80
8C
F0
80
82
82
FE
ENDCHAR
STARTCHAR U+5316
ENCODING 21270
SWIDTH 727 0
DWIDTH 8 0
BBX 7 7 0 0
BITMAP
50
52
D4
58
50
52
5E
ENDCHAR
STARTCHAR U+5317
ENCODING 21271
SWIDTH 727 0
DWIDTH 8 0
BBX 7 7 0 0
BITMAP
28
2A
EC
28
68
AA
2E
ENDCHAR
STARTCHAR U+5319
ENCODING 21273
SWIDTH 727 0
DWIDTH 8 0
BBX 7 7 0 0
BITMAP
F4
96
F4
24
B6
E0
BE
ENDCHAR
STARTCHAR U+531A
ENCODING 21274
SWIDTH 727 0
DWIDTH 8 0
BBX 7 7 0 0
BITMAP
FE
80
80
80
80
80
FE
ENDCHAR
STARTCHAR U+531D
ENCODING 21277
SWIDTH 727 0
DWIDTH 8 0
BBX 7 7 0 0
BITMAP
FE
88
BE
AA
AA
88
FE
ENDCHAR
STARTCHAR U+5320
ENCODING 21280
SWIDTH 727 0
DWIDTH 8 0
BBX 7 7 0 0
BITMAP
FE
80
BE
A8
A8
A8
FE
ENDCHAR
STARTCHAR U+5321
ENCODING 21281
SWIDTH 727 0
DWIDTH 8 0
BBX 7 7 0 0
BITMAP
FE
80
BE
88
BE
80
FE
ENDCHAR
STARTCHAR U+5323
ENCODING 21283
SWIDTH 727 0
DWIDTH 8 0
BBX 7 7 0 0
BITMAP
FE
AA
BE
AA
BE
88
FE
ENDCHAR
STARTCHAR U+532A
ENCODING 21290
SWIDTH 727 0
DWIDTH 8 0
BBX 7 7 0 0
BITMAP
FE
94
B6
94
B6
94
FE
ENDCHAR
STARTCHAR U+532F
ENCODING 21295
SWIDTH 727 0
DWIDTH 8 0
BBX 7 7 0 0
BITMAP
FE
88
DE
B4
DE
94
FE
ENDCHAR
STARTCHAR U+5331
ENCODING 21297
SWIDTH 727 0
DWIDTH 8 0
BBX 7 7 0 0
BITMAP
FE
A4
FE
A4
BC
A4
FE
ENDCHAR
STARTCHAR U+5333
ENCODING 21299
SWIDTH 727 0
DWIDTH 8 0
BBX 7 7 0 0
BITMAP
FE
98
E6
BC
A4
DA
FE
ENDCHAR
STARTCHAR U+5338
ENCODING 21304
SWIDTH 727 0
DWIDTH 8 0
BBX 7 7 0 0
BITMAP
FE
40
40
40
40
40
7E
ENDCHAR
STARTCHAR U+5339
ENCODING 21305
SWIDTH 727 0
DWIDTH 8 0
BBX 7 7 0 0
BITMAP
FE
A8
A8
AA
CE
80
FE
ENDCHAR
STARTCHAR U+533A
ENCODING 21306
SWIDTH 727 0
DWIDTH 8 0
BBX 7 7 0 0
BITMAP
FE
84
A4
98
98
A4
FE
ENDCHAR
STARTCHAR U+533B
ENCODING 21307
SWIDTH 727 0
DWIDTH 8 0
BBX 7 7 0 0
BITMAP
FE
90
BC
88
BE
94
FE
ENDCHAR
STARTCHAR U+533F
ENCODING 21311
SWIDTH 727 0
DWIDTH 8 0
BBX 7 7 0 0
BITMAP
FE
A4
FE
A0
DC
94
FE
ENDCHAR
STARTCHAR U+5340
ENCODING 21312
SWIDTH 727 0
DWIDTH 8 0
BBX 7 7 0 0
BITMAP
FE
A4
BC
80
EE
AA
FE
ENDCHAR
STARTCHAR U+5341
ENCODING 21313
SWIDTH 727 0
DWIDTH 8 0
BBX 7 7 0 0
BITMAP
10
10
10
FE
10
10
10
ENDCHAR
STARTCHAR U+5343
ENCODING 21315
SWIDTH 727 0
DWIDTH 8 0
BBX 7 7 0 0
BITMAP
0C
70
10
FE
10
10
10
ENDCHAR
STARTCHAR U+5345
ENCODING 21317
SWIDTH 727 0
DWIDTH 8 0
BBX 7 7 0 0
BITMAP
54
54
54
FE
54
54
84
ENDCHAR
STARTCHAR U+5346
ENCODING 21318
SWIDTH 727 0
DWIDTH 8 0
BBX 7 7 0 0
BITMAP
20
F8
2A
CE
10
FE
10
ENDCHAR
STARTCHAR U+5347
ENCODING 21319
SWIDTH 727 0
DWIDTH 8 0
BBX 7 7 0 0
BITMAP
24
C4
44
FE
44
44
84
ENDCHAR
STARTCHAR U+5348
ENCODING 21320
SWIDTH 727 0
DWIDTH 8 0
BBX 7 7 0 0
BITMAP
40
7E
90
10
FE
10
10
ENDCHAR
STARTCHAR U+5349
ENCODING 21321
SWIDTH 727 0
DWIDTH 8 0
BBX 7 7 0 0
BITMAP
10
FE
10
44
FE
44
84
ENDCHAR
STARTCHAR U+534A
ENCODING 21322
SWIDTH 727 0
DWIDTH 8 0
BBX 7 7 0 0
BITMAP
92
54
FE
10
FE
10
10
ENDCHAR
STARTCHAR U+534D
ENCODING 21325
SWIDTH 727 0
DWIDTH 8 0
BBX 7 7 0 0
BITMAP
F2
12
12
FE
90
90
9E
ENDCHAR
STARTCHAR U+5351
ENCODING 21329
SWIDTH 727 0
DWIDTH 8 0
BBX 7 7 0 0
BITMAP
20
7C
54
7C
28
FE
08
ENDCHAR
STARTCHAR U+5352
ENCODING 21330
SWIDTH 727 0
DWIDTH 8 0
BBX 7 7 0 0
BITMAP
10
FE
44
AA
10
FE
10
ENDCHAR
STARTCHAR U+5353
ENCODING 21331
SWIDTH 727 0
DWIDTH 8 0
BBX 7 7 0 0
BITMAP
1C
10
7C
44
54
FE
10
ENDCHAR
STARTCHAR U+5354
ENCODING 21332
SWIDTH 727 0
DWIDTH 8 0
BBX 7 7 0 0
BITMAP
48
FE
4A
52
7E
52
66
ENDCHAR
STARTCHAR U+5357
ENCODING 21335
SWIDTH 727 0
DWIDTH 8 0
BBX 7 7 0 0
BITMAP
FE
10
FE
AA
BA
92
96
ENDCHAR
STARTCHAR U+5358
ENCODING 21336
SWIDTH 727 0
DWIDTH 8 0
BBX 7 7 0 0
BITMAP
54
FE
92
FE
10
FE
10
ENDCHAR
STARTCHAR U+535A
ENCODING 21338
SWIDTH 727 0
DWIDTH 8 0
BBX 7 7 0 0
BITMAP
5E
48
FE
4A
5E
44
54
ENDCHAR
STARTCHAR U+535C
ENCODING 21340
SWIDTH 727 0
DWIDTH 8 0
BBX 4 7 2 0
BITMAP
80
80
C0
A0
90
80
80
ENDCHAR
STARTCHAR U+535E
ENCODING 21342
SWIDTH 727 0
DWIDTH 8 0
BBX 7 7 0 0
BITMAP
10
FE
20
30
28
20
20
ENDCHAR
STARTCHAR U+5360
ENCODING 21344
SWIDTH 727 0
DWIDTH 8 0
BBX 7 7 0 0
BITMAP
10
1E
10
FE
82
82
FE
ENDCHAR
STARTCHAR U+5366
ENCODING 21350
SWIDTH 727 0
DWIDTH 8 0
BBX 7 7 0 0
BITMAP
48
E8
48
EC
4A
48
E8
ENDCHAR
STARTCHAR U+5369
ENCODING 21353
SWIDTH 727 0
DWIDTH 8 0
BBX 5 7 1 0
BITMAP
F8
88
88
88
B8
80
80
ENDCHAR
STARTCHAR U+536E
ENCODING 21358
SWIDTH 727 0
DWIDTH 8 0
BBX 7 7 0 0
BITMAP
FE
80
FE
A4
AC
A2
BE
ENDCHAR
STARTCHAR U+536F
ENCODING 21359
SWIDTH 727 0
DWIDTH 8 0
BBX 7 7 0 0
BITMAP
6E
8A
AA
AA
EA
2E
C8
ENDCHAR
STARTCHAR U+5370
ENCODING 21360
SWIDTH 727 0
DWIDTH 8 0
BBX 7 7 0 0
BITMAP
6E
8A
EA
8A
8A
EE
08
ENDCHAR
STARTCHAR U+5371
ENCODING 21361
SWIDTH 727 0
DWIDTH 8 0
BBX 7 7 0 0
BITMAP
78
88
7E
54
54
52
9E
ENDCHAR
STARTCHAR U+5373
ENCODING 21363
SWIDTH 727 0
DWIDTH 8 0
BBX 7 7 0 0
BITMAP
EE
AA
AA
EA
8A
AE
E8
ENDCHAR
STARTCHAR U+5374
ENCODING 21364
SWIDTH 727 0
DWIDTH 8 0
BBX 7 7 0 0
BITMAP
40
EE
4A
EA
4A
AA
E8
ENDCHAR
STARTCHAR U+5375
ENCODING 21365
SWIDTH 727 0
DWIDTH 8 0
BBX 7 7 0 0
BITMAP
6E
8A
AA
AA
EE
28
C8
ENDCHAR
STARTCHAR U+5377
ENCODING 21367
SWIDTH 727 0
DWIDTH 8 0
BBX 7 7 0 0
BITMAP
54
FE
28
FE
64
A2
3C
ENDCHAR
STARTCHAR U+5378
ENCODING 21368
SWIDTH 727 0
DWIDTH 8 0
BBX 7 7 0 0
BITMAP
8E
EA
4A
6A
CA
CE
E8
ENDCHAR
STARTCHAR U+537B
ENCODING 21371
SWIDTH 727 0
DWIDTH 8 0
BBX 7 7 0 0
BITMAP
AE
4A
AA
0A
EA
AE
E8
ENDCHAR
STARTCHAR U+537F
ENCODING 21375
SWIDTH 727 0
DWIDTH 8 0
BBX 7 7 0 0
BITMAP
BE
AA
AA
BA
CA
5A
A8
ENDCHAR
STARTCHAR U+5382
ENCODING 21378
SWIDTH 727 0
DWIDTH 8 0
BBX 7 7 0 0
BITMAP
7E
40
40
40
40
80
80
ENDCHAR
STARTCHAR U+5384
ENCODING 21380
SWIDTH 727 0
DWIDTH 8 0
BBX 7 7 0 0
BITMAP
FE
80
BC
A4
AC
A2
BE
ENDCHAR
STARTCHAR U+5396
ENCODING 21398
SWIDTH 727 0
DWIDTH 8 0
BBX 7 7 0 0
BITMAP
FE
A4
FA
A4
A2
B4
DE
ENDCHAR
STARTCHAR U+5398
ENCODING 21400
SWIDTH 727 0
DWIDTH 8 0
BBX 7 7 0 0
BITMAP
FE
80
BE
AA
BE
88
BE
ENDCHAR
STARTCHAR U+539A
ENCODING 21402
SWIDTH 727 0
DWIDTH 8 0
BBX 7 7 0 0
BITMAP
FE
A4
BC
88
BE
88
98
ENDCHAR
STARTCHAR U+539F
ENCODING 21407
SWIDTH 727 0
DWIDTH 8 0
BBX 7 7 0 0
BITMAP
FE
90
BE
A2
BE
88
AA
ENDCHAR
STARTCHAR U+53A0
ENCODING 21408
SWIDTH 727 0
DWIDTH 8 0
BBX 7 7 0 0
BITMAP
FE
80
BA
AA
AA
BA
AA
ENDCHAR
STARTCHAR U+53A5
ENCODING 21413
SWIDTH 727 0
DWIDTH 8 0
BBX 7 7 0 0
BITMAP
FE
AA
F6
94
F4
AA
AA
ENDCHAR
STARTCHAR U+53A6
ENCODING 21414
SWIDTH 727 0
DWIDTH 8 0
BBX 7 7 0 0
BITMAP
FE
A4
BC
A4
BC
94
EE
ENDCHAR
STARTCHAR U+53A8
ENCODING 21416
SWIDTH 727 0
DWIDTH 8 0
BBX 7 7 0 0
BITMAP
FE
80
F2
96
F2
A2
F6
ENDCHAR
STARTCHAR U+53A9
ENCODING 21417
SWIDTH 727 0
DWIDTH 8 0
BBX 7 7 0 0
BITMAP
FE
A4
A4
EE
84
AC
F6
ENDCHAR
STARTCHAR U+53AD
ENCODING 21421
SWIDTH 727 0
DWIDTH 8 0
BBX 7 7 0 0
BITMAP
FE
A4
EE
A4
E4
AA
B2
ENDCHAR
STARTCHAR U+53AE
ENCODING 21422
SWIDTH 727 0
DWIDTH 8 0
BBX 7 7 0 0
BITMAP
FE
A4
FE
AA
FA
8A
B2
ENDCHAR
STARTCHAR U+53B0
ENCODING 21424
SWIDTH 727 0
DWIDTH 8 0
BBX 7 7 0 0
BITMAP
FE
A4
AE
F2
9A
D4
BA
ENDCHAR
STARTCHAR U+53B3
ENCODING 21427
SWIDTH 727 0
DWIDTH 8 0
BBX 7 7 0 0
BITMAP
54
FE
A8
EE
B2
E4
AA
ENDCHAR
STARTCHAR U+53B6
ENCODING 21430
SWIDTH 727 0
DWIDTH 8 0
BBX 7 7 0 0
BITMAP
20
20
20
48
44
84
FA
ENDCHAR
STARTCHAR U+53BB
ENCODING 21435
SWIDTH 727 0
DWIDTH 8 0
BBX 7 7 0 0
BITMAP
10
FE
10
FE
20
44
FA
ENDCHAR
STARTCHAR U+53C2
ENCODING 21442
SWIDTH 727 0
DWIDTH 8 0
BBX 7 7 0 0
BITMAP
20
44
FE
44
92
24
D8
ENDCHAR
STARTCHAR U+53C3
ENCODING 21443
SWIDTH 727 0
DWIDTH 8 0
BBX 7 7 0 0
BITMAP
FE
44
EE
10
EE
04
F8
ENDCHAR
STARTCHAR U+53C8
ENCODING 21448
SWIDTH 727 0
DWIDTH 8 0
BBX 7 7 0 0
BITMAP
7C
04
44
28
10
28
C6
ENDCHAR
STARTCHAR U+53C9
ENCODING 21449
SWIDTH 727 0
DWIDTH 8 0
BBX 7 7 0 0
BITMAP
FE
12
4C
28
10
28
C6
ENDCHAR
STARTCHAR U+53CA
ENCODING 21450
SWIDTH 727 0
DWIDTH 8 0
BBX 7 7 0 0
BITMAP
F8
48
4C
64
54
48
B6
ENDCHAR
STARTCHAR U+53CB
ENCODING 21451
SWIDTH 727 0
DWIDTH 8 0
BBX 7 7 0 0
BITMAP
20
FE
20
3C
54
48
B6
ENDCHAR
STARTCHAR U+53CC
ENCODING 21452
SWIDTH 727 0
DWIDTH 8 0
BBX 7 7 0 0
BITMAP
EE
22
AA
AA
44
AA
B2
ENDCHAR
STARTCHAR U+53CD
ENCODING 21453
SWIDTH 727 0
DWIDTH 8 0
BBX 7 7 0 0
BITMAP
7E
40
7C
54
54
48
B6
ENDCHAR
STARTCHAR U+53CE
ENCODING 21454
SWIDTH 727 0
DWIDTH 8 0
BBX 7 7 0 0
BITMAP
2E
A2
AA
AA
E4
2A
32
ENDCHAR
STARTCHAR U+53D4
ENCODING 21460
SWIDTH 727 0
DWIDTH 8 0
BBX 7 7 0 0
BITMAP
4E
62
4A
EA
4C
EC
52
ENDCHAR
STARTCHAR U+53D6
ENCODING 21462
SWIDTH 727 0
DWIDTH 8 0
BBX 7 7 0 0
BITMAP
FE
A2
AA
EA
A4
EA
32
ENDCHAR
STARTCHAR U+53D7
ENCODING 21463
SWIDTH 727 0
DWIDTH 8 0
BBX 7 7 0 0
BITMAP
7C
28
FE
82
38
10
EE
ENDCHAR
STARTCHAR U+53D9
ENCODING 21465
SWIDTH 727 0
DWIDTH 8 0
BBX 7 7 0 0
BITMAP
4E
A2
EA
44
E4
4A
EA
ENDCHAR
STARTCHAR U+53DB
ENCODING 21467
SWIDTH 727 0
DWIDTH 8 0
BBX 7 7 0 0
BITMAP
5E
50
FC
54
FC
54
6A
ENDCHAR
STARTCHAR U+53DF
ENCODING 21471
SWIDTH 727 0
DWIDTH 8 0
BBX 7 7 0 0
BITMAP
D6
92
FE
10
FC
28
F6
ENDCHAR
STARTCHAR U+53E1
ENCODING 21473
SWIDTH 727 0
DWIDTH 8 0
BBX 7 7 0 0
BITMAP
EE
A2
4A
AA
E4
AA
EA
ENDCHAR
STARTCHAR U+53E2
ENCODING 21474
SWIDTH 727 0
DWIDTH 8 0
BBX 7 7 0 0
BITMAP
FE
10
FE
A0
AE
E4
2A
ENDCHAR
STARTCHAR U+53E3
ENCODING 21475
SWIDTH 727 0
DWIDTH 8 0
BBX 6 7 0 0
BITMAP
FC
84
84
84
84
84
FC
ENDCHAR
STARTCHAR U+53E4
ENCODING 21476
SWIDTH 727 0
DWIDTH 8 0
BBX 7 7 0 0
BITMAP
10
FE
10
7C
44
44
7C
ENDCHAR
STARTCHAR U+53E5
ENCODING 21477
SWIDTH 727 0
DWIDTH 8 0
BBX 7 7 0 0
BITMAP
40
7E
82
7A
4A
7A
06
ENDCHAR
STARTCHAR U+53E8
ENCODING 21480
SWIDTH 727 0
DWIDTH 8 0
BBX 7 7 0 0
BITMAP
FE
AA
AA
AA
AA
EA
16
ENDCHAR
STARTCHAR U+53E9
ENCODING 21481
SWIDTH 727 0
DWIDTH 8 0
BBX 7 7 0 0
BITMAP
EE
AA
AA
AA
EA
08
08
ENDCHAR
STARTCHAR U+53EA
ENCODING 21482
SWIDTH 727 0
DWIDTH 8 0
BBX 7 7 0 0
BITMAP
FE
82
82
FE
00
44
82
ENDCHAR
STARTCHAR U+53EB
ENCODING 21483
SWIDTH 727 0
DWIDTH 8 0
BBX 7 7 0 0
BITMAP
EA
AA
AA
AA
EA
1E
02
ENDCHAR
STARTCHAR U+53EC
ENCODING 21484
SWIDTH 727 0
DWIDTH 8 0
BBX 7 7 0 0
BITMAP
FE
22
46
00
FE
82
FE
ENDCHAR
STARTCHAR U+53ED
ENCODING 21485
SWIDTH 727 0
DWIDTH 8 0
BBX 7 7 0 0
BITMAP
EA
AA
AA
AA
EA
12
12
ENDCHAR
STARTCHAR U+53EE
ENCODING 21486
SWIDTH 727 0
DWIDTH 8 0
BBX 7 7 0 0
BITMAP
FE
A4
A4
A4
A4
E4
0C
ENDCHAR
STARTCHAR U+53EF
ENCODING 21487
SWIDTH 727 0
DWIDTH 8 0
BBX 7 7 0 0
BITMAP
FE
04
74
54
74
04
0C
ENDCHAR
STARTCHAR U+53F0
ENCODING 21488
SWIDTH 727 0
DWIDTH 8 0
BBX 7 7 0 0
BITMAP
20
44
FE
00
7C
44
7C
ENDCHAR
STARTCHAR U+53F1
ENCODING 21489
SWIDTH 727 0
DWIDTH 8 0
BBX 7 7 0 0
BITMAP
E8
AA
AC
B8
A8
EA
0E
ENDCHAR
STARTCHAR U+53F2
ENCODING 21490
SWIDTH 727 0
DWIDTH 8 0
BBX 7 7 0 0
BITMAP
10
FE
92
FE
50
30
CE
ENDCHAR
STARTCHAR U+53F3
ENCODING 21491
SWIDTH 727 0
DWIDTH 8 0
BBX 7 7 0 0
BITMAP
20
FE
20
40
BE
22
3E
ENDCHAR
STARTCHAR U+53F6
ENCODING 21494
SWIDTH 727 0
DWIDTH 8 0
BBX 7 7 0 0
BITMAP
E4
A4
BE
A4
A4
E4
04
ENDCHAR
STARTCHAR U+53F7
ENCODING 21495
SWIDTH 727 0
DWIDTH 8 0
BBX 7 7 0 0
BITMAP
7C
44
FE
20
3C
04
3C
ENDCHAR
STARTCHAR U+53F8
ENCODING 21496
SWIDTH 727 0
DWIDTH 8 0
BBX 7 7 0 0
BITMAP
FE
02
F2
02
F2
92
F6
ENDCHAR
STARTCHAR U+53FA
ENCODING 21498
SWIDTH 727 0
DWIDTH 8 0
BBX 7 7 0 0
BITMAP
EC
A4
A4
A4
A4
EA
12
ENDCHAR
STARTCHAR U+5401
ENCODING 21505
SWIDTH 727 0
DWIDTH 8 0
BBX 7 7 0 0
BITMAP
FE
A4
A4
BE
A4
E4
0C
ENDCHAR
STARTCHAR U+5403
ENCODING 21507
SWIDTH 727 0
DWIDTH 8 0
BBX 7 7 0 0
BITMAP
EE
B0
AE
A2
A4
EA
0E
ENDCHAR
STARTCHAR U+5404
ENCODING 21508
SWIDTH 727 0
DWIDTH 8 0
BBX 7 7 0 0
BITMAP
3C
64
98
24
FE
44
7C
ENDCHAR
STARTCHAR U+5408
ENCODING 21512
SWIDTH 727 0
DWIDTH 8 0
BBX 7 7 0 0
BITMAP
38
44
BA
00
7C
44
7C
ENDCHAR
STARTCHAR U+5409
ENCODING 21513
SWIDTH 727 0
DWIDTH 8 0
BBX 7 7 0 0
BITMAP
FE
10
7C
00
FE
82
FE
ENDCHAR
STARTCHAR U+540A
ENCODING 21514
SWIDTH 727 0
DWIDTH 8 0
BBX 7 7 0 0
BITMAP
FE
82
FE
10
FE
92
92
ENDCHAR
STARTCHAR U+540B
ENCODING 21515
SWIDTH 727 0
DWIDTH 8 0
BBX 7 7 0 0
BITMAP
E2
BE
A2
AA
AA
E2
06
ENDCHAR
STARTCHAR U+540C
ENCODING 21516
SWIDTH 727 0
DWIDTH 8 0
BBX 7 7 0 0
BITMAP
FE
82
BA
82
BA
AA
BA
ENDCHAR
STARTCHAR U+540D
ENCODING 21517
SWIDTH 727 0
DWIDTH 8 0
BBX 7 7 0 0
BITMAP
3C
44
A8
10
FE
22
3E
ENDCHAR
STARTCHAR U+540E
ENCODING 21518
SWIDTH 727 0
DWIDTH 8 0
BBX 7 7 0 0
BITMAP
FE
80
FE
80
BE
A2
BE
ENDCHAR
STARTCHAR U+540F
ENCODING 21519
SWIDTH 727 0
DWIDTH 8 0
BBX 7 7 0 0
BITMAP
10
FE
54
7C
50
20
DE
ENDCHAR
STARTCHAR U+5410
ENCODING 21520
SWIDTH 727 0
DWIDTH 8 0
BBX 7 7 0 0
BITMAP
E4
BE
A4
A4
A4
E4
1E
ENDCHAR
STARTCHAR U+5411
ENCODING 21521
SWIDTH 727 0
DWIDTH 8 0
BBX 7 7 0 0
BITMAP
20
FE
82
BA
AA
BA
86
ENDCHAR
STARTCHAR U+541B
ENCODING 21531
SWIDTH 727 0
DWIDTH 8 0
BBX 7 7 0 0
BITMAP
FE
12
FE
20
7E
A2
3E
ENDCHAR
STARTCHAR U+541D
ENCODING 21533
SWIDTH 727 0
DWIDTH 8 0
BBX 7 7 0 0
BITMAP
FE
44
38
44
FE
44
7C
ENDCHAR
STARTCHAR U+541F
ENCODING 21535
SWIDTH 727 0
DWIDTH 8 0
BBX 7 7 0 0
BITMAP
EC
B2
AC
A0
BE
E4
08
ENDCHAR
STARTCHAR U+5420
ENCODING 21536
SWIDTH 727 0
DWIDTH 8 0
BBX 7 7 0 0
BITMAP
EA
BE
A8
A8
AC
F2
22
ENDCHAR
STARTCHAR U+5426
ENCODING 21542
SWIDTH 727 0
DWIDTH 8 0
BBX 7 7 0 0
BITMAP
FE
38
D6
10
FE
82
FE
ENDCHAR
STARTCHAR U+5429
ENCODING 21545
SWIDTH 727 0
DWIDTH 8 0
BBX 7 7 0 0
BITMAP
EC
B2
A0
BE
AA
EA
16
ENDCHAR
STARTCHAR U+542B
ENCODING 21547
SWIDTH 727 0
DWIDTH 8 0
BBX 7 7 0 0
BITMAP
38
C6
38
08
FE
82
FE
ENDCHAR
STARTCHAR U+542C
ENCODING 21548
SWIDTH 727 0
DWIDTH 8 0
BBX 7 7 0 0
BITMAP
EE
A8
AE
AA
AA
EA
12
ENDCHAR
STARTCHAR U+542D
ENCODING 21549
SWIDTH 727 0
DWIDTH 8 0
BBX 7 7 0 0
BITMAP
E4
BE
A0
AE
AA
EA
12
ENDCHAR
STARTCHAR U+542E
ENCODING 21550
SWIDTH 727 0
DWIDTH 8 0
BBX 7 7 0 0
BITMAP
EA
AE
A0
AA
AA
EA
12
ENDCHAR
STARTCHAR U+5436
ENCODING 21558
SWIDTH 727 0
DWIDTH 8 0
BBX 7 7 0 0
BITMAP
08
FE
AA
AA
AA
F6
22
ENDCHAR
ENDFONT
